<svg width="32" height="45" fill="none" xmlns="http://www.w3.org/2000/svg"><path fill-rule="evenodd" clip-rule="evenodd" d="M5.835 10.37a1.313 1.313 0 01-2.588.446C2.27 5.15 6.644 0 12.347 0c5.71 0 10.064 5.152 9.105 10.794a1.313 1.313 0 11-2.59-.44c.69-4.054-2.44-7.728-6.515-7.728-4.086 0-7.211 3.691-6.512 7.743zm15.232 8.945a3.938 3.938 0 015.253 1.75c2.612-1.29 5.68.625 5.68 3.535v13.656a6.573 6.573 0 01-6.565 6.565H14.742a6.59 6.59 0 01-4.79-2.075L1.087 33.29a3.936 3.936 0 01.213-5.64c1.568-1.417 4.047-1.307 5.527.242l1.543 1.616V9.279c0-2.224 1.839-4 4.058-3.938 2.117.058 3.84 1.85 3.84 3.993v8.041a3.937 3.937 0 014.8 1.94zm4.368 22.879a3.944 3.944 0 003.939-3.94V24.6c0-.724-.59-1.314-1.313-1.314-.724 0-1.313.59-1.313 1.314v.437a1.313 1.313 0 11-2.627 0v-2.188c0-.724-.589-1.313-1.313-1.313s-1.313.589-1.313 1.313v2.188a1.313 1.313 0 11-2.626 0v-3.939a1.313 1.313 0 00-2.601-.25v4.19c0 .727-.594 1.32-1.326 1.312a1.312 1.312 0 01-1.325-1.313c0-3.305.004-4.035.01-4.877.006-1.145.014-2.497.014-10.825 0-.735-.576-1.348-1.285-1.368a1.318 1.318 0 00-1.36 1.313v23.506c0 1.18-1.447 1.76-2.263.906l-3.805-3.985c-.507-.53-1.345-.58-1.867-.108a1.313 1.313 0 00-.07 1.883 64510.166 64510.166 0 018.877 9.468 3.953 3.953 0 002.874 1.245h10.693z" fill="#000"/></svg>