<svg xmlns="http://www.w3.org/2000/svg" width="58" height="28" fill="none"><path fill="#232323" fill-opacity=".02" d="M0 0h57.636v28H0z"/><path fill="#fff" d="M6.727 13.818a8.148 8.148 0 018.182-8.182c.545 0 1.273 0 1.818.182V0H14C6.182 0 0 6.182 0 13.818c0 7.636 6.364 13.818 14.182 13.818h2.727v-6c-.545.182-1.273.182-1.818.182-4.727.182-8.364-3.454-8.364-8zM17.818 0v6.364c3.091 1.272 5.273 4.182 5.273 7.636 0 3.454-2.182 6.364-5.273 7.636V28h6.546V12.546l10 13.818V13.818L24.364 0h-6.546zm24.546 0h-6.728v27.636h6.546V12.182l6.727 9.272h-5.636v6.182h14.363v-6.181L42.363 0z"/><path fill="#fff" d="M7.818 13.818c0 3.818 3.273 7.091 7.091 7.091 4 0 7.09-3.09 7.09-7.09 0-3.82-3.272-7.092-7.09-7.092-3.818.182-7.09 3.273-7.09 7.091zM14.91 8c1.273 0 2.364.364 3.273 1.09-.364 0-1.273.183-1.818.546-.182.182-.546.91-.728 1.091-.181.182-.545.364-.727.364-.182 0-.364 0-.545-.182-.182-.182-.182-.364-.364-.364s-.182 0-.182.182c-.182.364 0 .91-.364 1.273-.181.182-.363.364-.545.364-.182.181-.182.181-.364.181-.181.182-.181.182-.181.364s0 .364.181.545c0 .182.182.182 0 .364.182 0 0 0 0 .364.182.545.728 1.09 1.273 1.272.182 0 .364.182.364.364s-.364.364-.546.364c-.727 0-1.454-.364-2-.91-.181-.181-.545-.363-.727-.727v-1.454s0-.182-.182-.182h-.182s-.181 0-.181.182H9.09C9.636 10 12 8 14.909 8zm2.91 10.727c-.183.364-.728.727-1.092.546-.182-.182-.363-.182-.545-.364-.182-.182-.364-.182-.727-.182-.546 0-1.091.182-1.637-.182-.364-.182-.727-.545-.727-1.09 0-.364.545-.546.909-.728.364-.182.909-.364 1.273-.545 0 0 .545-.182.727 0 .182 0 .364 0 .545.181.182 0 .182.182.364.364s.182.364.364.546l.545.545c.182.182.182.364.182.545.182 0 0 .182-.182.364z"/></svg>