<svg xmlns="http://www.w3.org/2000/svg" width="28" height="28" fill="none"><path fill="#fff" d="M23.61 10.063a.28.28 0 01-.272.287H20.67v1.082h2.668a.28.28 0 01.272.286v1.03a.28.28 0 01-.272.287H20.67v1.082h2.668a.28.28 0 01.272.286v1.031a.28.28 0 01-.272.286h-3.923a.263.263 0 01-.193-.083l-.004-.005a.291.291 0 01-.076-.198V9.033c0-.077.029-.146.076-.198l.004-.005.003-.003c.05-.05.116-.08.19-.08h3.923a.28.28 0 01.272.286v1.03zm-5.423 5.372a.28.28 0 01-.272.285h-.982a.258.258 0 01-.07-.01h-.004a.159.159 0 01-.019-.007l-.008-.003-.013-.006a.148.148 0 01-.013-.007l-.008-.004a.263.263 0 01-.02-.013.268.268 0 01-.069-.07l-2.798-3.968v3.803a.28.28 0 01-.274.285h-.981a.28.28 0 01-.273-.285V9.032a.28.28 0 01.273-.285h.991l.014.001c.005 0 .01 0 .014.002l.012.001.016.004.01.003a.273.273 0 01.016.005l.008.004.016.006.008.005a.177.177 0 01.023.014l.014.01a.149.149 0 01.022.019l.005.004a.433.433 0 01.017.018l.001.002a.23.23 0 01.021.029l2.796 3.962V9.032a.28.28 0 01.273-.285h.982a.28.28 0 01.272.285v6.403zm-6.759 0a.28.28 0 01-.272.285h-.982a.28.28 0 01-.273-.285V9.032a.28.28 0 01.273-.285h.982a.28.28 0 01.272.285v6.403zm-2.367-.001a.28.28 0 01-.273.286H4.865a.265.265 0 01-.188-.08c-.002 0-.003-.002-.004-.003l-.004-.005a.29.29 0 01-.076-.198V9.033a.28.28 0 01.272-.286h.982a.28.28 0 01.273.286v5.084h2.668a.28.28 0 01.273.286v1.031zM28 11.924C28 5.349 21.72 0 14 0S0 5.35 0 11.924c0 5.894 4.98 10.83 11.708 11.764.456.103 1.077.315 1.234.724.141.372.092.953.045 1.329l-.2 1.258c-.06.37-.28 1.452 1.213.792 1.495-.661 8.063-4.983 11-8.531 2.028-2.335 3-4.705 3-7.336z"/></svg>