<svg xmlns="http://www.w3.org/2000/svg" width="1200" height="305" fill="none"><path fill="#293840" d="M735.434 136.566a18.945 18.945 0 00-7.222-4.527c2.88-1.982 4.772-5.299 4.772-9.055 0-6.056-4.928-10.984-10.984-10.984s-10.984 4.928-10.984 10.984c0 3.748 1.892 7.073 4.772 9.055a18.945 18.945 0 00-7.222 4.527C704.974 140.151 703 144.923 703 150h38c0-5.077-1.974-9.849-5.566-13.434z"/><path fill="#293840" d="M772.434 136.566a18.945 18.945 0 00-7.222-4.527c2.88-1.982 4.772-5.299 4.772-9.055 0-6.056-4.928-10.984-10.984-10.984s-10.984 4.928-10.984 10.984c0 3.748 1.892 7.073 4.772 9.055a18.945 18.945 0 00-7.222 4.527C741.974 140.151 740 144.923 740 150h38c0-5.077-1.974-9.849-5.566-13.434z"/><path fill="#293840" d="M809.434 136.566a18.945 18.945 0 00-7.222-4.527c2.88-1.982 4.772-5.299 4.772-9.055 0-6.056-4.928-10.984-10.984-10.984s-10.984 4.928-10.984 10.984c0 3.748 1.892 7.073 4.772 9.055a18.945 18.945 0 00-7.222 4.527C778.974 140.151 777 144.923 777 150h38c0-5.077-1.974-9.849-5.566-13.434zm-74 98a18.945 18.945 0 00-7.222-4.527c2.88-1.982 4.772-5.299 4.772-9.055 0-6.056-4.928-10.984-10.984-10.984s-10.984 4.928-10.984 10.984c0 3.748 1.892 7.073 4.772 9.055a18.945 18.945 0 00-7.222 4.527C704.974 238.151 703 242.923 703 248h38c0-5.077-1.974-9.849-5.566-13.434z"/><path fill="#293840" d="M772.434 234.566a18.945 18.945 0 00-7.222-4.527c2.88-1.982 4.772-5.299 4.772-9.055 0-6.056-4.928-10.984-10.984-10.984s-10.984 4.928-10.984 10.984c0 3.748 1.892 7.073 4.772 9.055a18.945 18.945 0 00-7.222 4.527C741.974 238.151 740 242.923 740 248h38c0-5.077-1.974-9.849-5.566-13.434z"/><path fill="#293840" d="M809.434 234.566a18.945 18.945 0 00-7.222-4.527c2.88-1.982 4.772-5.299 4.772-9.055 0-6.056-4.928-10.984-10.984-10.984s-10.984 4.928-10.984 10.984c0 3.748 1.892 7.073 4.772 9.055a18.945 18.945 0 00-7.222 4.527C778.974 238.151 777 242.923 777 248h38c0-5.077-1.974-9.849-5.566-13.434zm-79.824-64.652h-1.652v-.809h-12.331v-12.023h1.652v10.441h4.553v-13.315h1.582v13.315h4.544v-10.441h1.652v12.832zm18.914-3.454c-.046 1.189-.202 1.998-.465 2.426-.258.422-.718.674-1.38.756-.662.082-1.837.123-3.525.123-1.324 0-2.226-.027-2.707-.079-.48-.047-.855-.223-1.125-.528-.269-.304-.404-.764-.404-1.38v-5.73l-1.248.492-.193-1.626 1.441-.589v-4.034h1.564v3.366l2.11-.826v-4.623h1.564v3.973l3.744-1.53c-.058 3.065-.316 5.687-.773 7.867l-1.529-.466c.351-1.647.571-3.328.659-5.045l-2.101.852v6.75h-1.564v-6.09l-2.11.852v6.258c0 .346.129.536.387.571.258.035 1.081.053 2.47.053 1.418 0 2.347-.012 2.786-.035.439-.024.688-.232.747-.624.065-.399.106-.973.123-1.723l1.529.589zm-10.397.07c-1.916.973-3.592 1.711-5.027 2.215l-.413-1.512a19.249 19.249 0 001.959-.755v-6.619h-1.722v-1.511h1.722v-4.122h1.609v4.122h1.617v1.511h-1.617v5.88a18.366 18.366 0 001.74-.843l.132 1.634zm28.31-10.415h-6.267c-.147.457-.337.935-.571 1.433h5.528v6.794h-4.254v4.06c0 .34-.1.63-.299.87-.199.241-.43.399-.694.475-.264.082-.768.123-1.512.123-.316 0-.633-.009-.949-.026l-.483-1.477c1.224 0 1.918-.026 2.083-.079.169-.059.254-.223.254-.492v-3.454h-4.359v-6.794h3.032c.188-.393.378-.87.572-1.433h-4.931v5.81c0 3.404-.583 6.111-1.749 8.121l-1.38-.958c1.031-1.863 1.547-4.359 1.547-7.488v-6.961h14.414l.018 1.476zm-2.936 4.157v-1.3h-6.943v1.3h6.943zm0 2.664v-1.266h-6.943v1.266h6.943zm3.103 5.414l-1.249 1.028c-.802-1.231-1.863-2.449-3.181-3.656l1.239-.932a20.02 20.02 0 013.191 3.56zm-8.754-2.804c-.809 1.365-1.943 2.613-3.402 3.744l-1.257-1.028c1.571-1.237 2.681-2.394 3.331-3.472l1.328.756zm15.864-11.109a29.884 29.884 0 01-.888 2.223l-.589 1.327v11.874h-1.643v-9c-.428.68-.823 1.21-1.187 1.591l-.861-1.731c1.301-1.524 2.511-3.756 3.63-6.698l1.538.414zm10.635 15.231h-11.391v-1.547h4.878v-3.999h-4.184v-1.547h4.184v-3.586h-4.579v-1.547h4.579a14.147 14.147 0 00-1.011-2.9l1.635-.448c.504 1.189.87 2.305 1.099 3.348h4.623v1.547h-4.676v3.586h4.227v1.547h-4.227v3.999h4.843v1.547zm18.219-3.296c-.656 2.391-1.646 3.586-2.97 3.586-.914 0-1.91-.58-2.989-1.74-1.078-1.16-1.854-2.807-2.329-4.94h-4.799v4.659a52.55 52.55 0 004.799-1.257l.15 1.652a64.705 64.705 0 01-6.592 1.582l-.536-1.617c.334-.129.501-.381.501-.756v-12.937h13.122v5.018h-5.362c-.017.756.024 1.453.124 2.092h6.336v1.564h-6.029c.322 1.442.876 2.637 1.661 3.586.791.949 1.421 1.424 1.89 1.424a.749.749 0 00.448-.132c.123-.088.302-.392.536-.914.241-.527.434-1.11.58-1.749l1.459.879zm-3.313-8.332v-1.854h-9.774v1.854h9.774zm-5.221 3.674a26.083 26.083 0 01-.184-2.092h-4.369v2.092h4.553zm-63.685 100.628h-7.005v5.616h-1.635v-5.616h-7.022v-1.591h7.022v-6.46h-6.557v-1.582h14.819v1.582h-6.627v6.46h7.005v1.591zm-10.512-2.971l-1.529.703c-.522-1.312-1.295-2.724-2.321-4.236l1.512-.756a24.483 24.483 0 012.338 4.289zm9.395-3.516c-.779 1.706-1.631 3.129-2.557 4.272l-1.477-.738c.844-1.02 1.697-2.444 2.558-4.272l1.476.738zm19.292 8.605c-.046 1.189-.202 1.998-.465 2.426-.258.422-.718.674-1.38.756-.662.082-1.837.123-3.525.123-1.324 0-2.226-.027-2.707-.079-.48-.047-.855-.223-1.125-.528-.269-.304-.404-.764-.404-1.38v-5.73l-1.248.492-.193-1.626 1.441-.589v-4.034h1.564v3.366l2.11-.826v-4.623h1.564v3.973l3.744-1.53c-.058 3.065-.316 5.687-.773 7.867l-1.529-.466c.351-1.647.571-3.328.659-5.045l-2.101.852v6.75h-1.564v-6.09l-2.11.852v6.258c0 .346.129.536.387.571.258.035 1.081.053 2.47.053 1.418 0 2.347-.012 2.786-.035.439-.024.688-.232.747-.624.065-.399.106-.973.123-1.723l1.529.589zm-10.397.07c-1.916.973-3.592 1.711-5.027 2.215l-.413-1.512a19.249 19.249 0 001.959-.755v-6.619h-1.722v-1.511h1.722v-4.122h1.609v4.122h1.617v1.511h-1.617v5.88a18.366 18.366 0 001.74-.843l.132 1.634zm28.31-10.415h-6.267c-.147.457-.337.935-.571 1.433h5.528v6.794h-4.254v4.06c0 .34-.1.63-.299.87-.199.241-.43.399-.694.475-.264.082-.768.123-1.512.123-.316 0-.633-.009-.949-.026l-.483-1.477c1.224 0 1.918-.026 2.083-.079.169-.059.254-.223.254-.492v-3.454h-4.359v-6.794h3.032c.188-.393.378-.87.572-1.433h-4.931v5.81c0 3.404-.583 6.111-1.749 8.121l-1.38-.958c1.031-1.863 1.547-4.359 1.547-7.488v-6.961h14.414l.018 1.476zm-2.936 4.157v-1.3h-6.943v1.3h6.943zm0 2.664v-1.266h-6.943v1.266h6.943zm3.103 5.414l-1.249 1.028c-.802-1.231-1.863-2.449-3.181-3.656l1.239-.932a20.02 20.02 0 013.191 3.56zm-8.754-2.804c-.809 1.365-1.943 2.613-3.402 3.744l-1.257-1.028c1.571-1.237 2.681-2.394 3.331-3.472l1.328.756zm15.864-11.109a29.884 29.884 0 01-.888 2.223l-.589 1.327v11.874h-1.643v-9c-.428.68-.823 1.21-1.187 1.591l-.861-1.731c1.301-1.524 2.511-3.756 3.63-6.698l1.538.414zm10.635 15.231h-11.391v-1.547h4.878v-3.999h-4.184v-1.547h4.184v-3.586h-4.579v-1.547h4.579a14.147 14.147 0 00-1.011-2.9l1.635-.448c.504 1.189.87 2.305 1.099 3.348h4.623v1.547h-4.676v3.586h4.227v1.547h-4.227v3.999h4.843v1.547zm18.219-3.296c-.656 2.391-1.646 3.586-2.97 3.586-.914 0-1.91-.58-2.989-1.74-1.078-1.16-1.854-2.807-2.329-4.94h-4.799v4.659a52.55 52.55 0 004.799-1.257l.15 1.652a64.705 64.705 0 01-6.592 1.582l-.536-1.617c.334-.129.501-.381.501-.756v-12.937h13.122v5.018h-5.362c-.017.756.024 1.453.124 2.092h6.336v1.564h-6.029c.322 1.442.876 2.637 1.661 3.586.791.949 1.421 1.424 1.89 1.424a.749.749 0 00.448-.132c.123-.088.302-.392.536-.914.241-.527.434-1.11.58-1.749l1.459.879zm-3.313-8.332v-1.854h-9.774v1.854h9.774zm-5.221 3.674a26.083 26.083 0 01-.184-2.092h-4.369v2.092h4.553z"/><path fill="#A3BAC1" d="M0 17C0 11.477 4.477 7 10 7h802c5.523 0 10 4.477 10 10v25H0V17z"/><path fill="#293840" d="M370.777 14.838a47.939 47.939 0 01-1.298 3.223l-.704 1.416v12.52h-1.738v-9.718a12.89 12.89 0 01-.976 1.182l-.879-1.816c1.497-1.797 2.77-4.232 3.818-7.305l1.777.498zm12.002 5H372.34v-1.621h6.582c.137-.664.221-1.23.254-1.7h-6.074v-1.582h8.037c-.098 1.303-.231 2.396-.401 3.282h2.041v1.62zm-11.054 9.658h-1.748V17.504h1.748v11.992zm10.937-2.617h-4.785c-.846 2.409-2.572 4.163-5.176 5.264l-1.123-1.387c2.305-.938 3.792-2.23 4.463-3.877h-3.682v-1.602h4.18c.124-.566.212-1.24.264-2.021h-2.188a8.4 8.4 0 01-1.26 1.68l-1.416-.977c.899-.938 1.674-2.204 2.325-3.799l1.591.498a4.395 4.395 0 01-.351.986h6.592v1.612h-3.535c-.026.488-.108 1.162-.245 2.021h4.346v1.602zm.215 4.277l-1.338 1.065c-1.003-1.185-2.308-2.337-3.916-3.457l1.201-1.221c1.725 1.204 3.076 2.409 4.053 3.613zm6.738-14.258l-1.191 1.221c-.736-.86-1.631-1.693-2.686-2.5l1.221-1.201c1.27 1.029 2.155 1.855 2.656 2.48zm12.705 4.297h-3.935c-.521 0-.908-.123-1.162-.37-.254-.248-.381-.704-.381-1.368V14.74h4.922v3.682h-3.301v1.035c0 .228.114.342.342.342h3.515v1.396zm-2.177-4.13v-.967h-1.68v.966h1.68zm-4.219 3.71l-5.127 1.006-.361-1.484c.253-.085.38-.283.38-.596v-4.96h4.903v3.7h-3.301v1.602c.508-.072 1.663-.3 3.467-.684l.039 1.416zm-1.826-3.71v-.967h-1.68v.966h1.68zm8.779 13.095l-.498 1.68c-1.289.032-2.695.049-4.219.049-1.653 0-3.004-.013-4.053-.04a11.297 11.297 0 01-3.144-.537c-1.042-.332-1.93-.85-2.666-1.552-.788 1.204-1.38 2.024-1.777 2.46l-1.358-1.161c1.589-1.856 2.536-3.721 2.842-5.596h-2.461v-1.7c.924-1.19 1.657-2.317 2.197-3.378h-2.402v-1.69h4.326v1.69a34.177 34.177 0 01-2.1 3.457h2.159c.032.26.048.53.048.81 0 1.185-.257 2.38-.771 3.584a6.462 6.462 0 002.178 1.407c.827.319 1.94.5 3.34.546 1.406.04 2.666.059 3.779.059 1.627 0 3.154-.03 4.58-.088zm-.313-3.262h-12.382v-1.455h2.978v-1.181h-2.539v-1.485h2.539v-.976h1.699v.976h2.959v-.976h1.7v.976h2.519v1.485h-2.519v1.181h3.046v1.455zm-4.746-1.455v-1.181h-2.959v1.181h2.959zm-2.353 2.735c-.879.553-2.113 1.048-3.701 1.484l-1.241-1.338c1.179-.26 2.403-.68 3.672-1.26l1.27 1.114zm6.953.341l-1.094 1.3a24.335 24.335 0 00-3.847-1.417l1.084-1.299c1.113.32 2.399.791 3.857 1.416zm20.478 2.159l-1.152 1.465c-3.893-2.95-6.455-6.045-7.685-9.288-.964 3.633-3.516 6.693-7.657 9.18l-1.201-1.455c5.254-3.275 7.881-7.549 7.881-12.822v-3.193h1.895v4.11c0 2.175.725 4.307 2.177 6.397 1.459 2.084 3.373 3.952 5.742 5.606zM442.76 16.4h-5.537v1.104h4.541v4.238h-15.381v-4.238h4.56V16.4h-5.605v-1.543h17.422V16.4zm-7.276 1.104V16.4h-2.802v1.104h2.802zm4.532 2.793v-1.358h-2.793v1.358h2.793zm-4.532 0v-1.358h-2.802v1.358h2.802zm-4.541 0v-1.358h-2.802v1.358h2.802zm10.518 3.965h-14.717v-1.504h14.717v1.504zm1.338 2.597h-7.783v5.206h-1.817v-5.206h-7.842v-1.543h17.442v1.543zm-10.957 1.446c-1.289 1.354-3.145 2.558-5.567 3.613l-.976-1.436c2.35-1.035 4.049-2.102 5.097-3.203l1.446 1.026zm11.123 2.353l-1.162 1.338a45.422 45.422 0 00-5.479-3.457l1.172-1.24a32.345 32.345 0 015.469 3.36z"/><g opacity=".2"><path fill="#A3BAC1" d="M882 17c0-5.523 4.477-10 10-10h297c5.52 0 10 4.477 10 10v25H882V17z"/><path fill="#293840" d="M1028.06 30.805l-1.08 1.455c-1.42-.97-2.61-2.07-3.58-3.301-1.23 1.341-2.75 2.448-4.56 3.32l-1.08-1.504c1.97-.852 3.51-1.956 4.64-3.31a14.072 14.072 0 01-1.5-3.77l1.56-.732c.23.97.55 1.881.96 2.734.77-1.953 1.21-4.118 1.32-6.494h-2.44c-.65 1.895-1.32 3.532-2.02 4.912l-1.36-1.191c1.38-2.826 2.28-5.654 2.72-8.486l1.72.322a25.447 25.447 0 01-.56 2.744h4.9v1.7h-1.2c-.29 3.554-.97 6.334-2.02 8.339 1 1.348 2.2 2.435 3.58 3.262zm-8.64-2.764c-2.46 1.204-5.32 2.35-8.56 3.438l-.66-1.622 1-.322v-9.619h1.78v8.965c.23-.046.72-.225 1.5-.537V16.996h-3.78v-1.68h8.56v1.68h-3v4.16h2.44v1.7h-2.44v4.726c1.05-.423 2-.856 2.86-1.299l.3 1.758zm22.6-13.184c.8-.22 1.6-.452 2.38-.693l1.02 1.152c-.93.326-1.74.573-2.44.743l-.96-1.202zm-9.14.323l1.24-.977c.67.215 1.42.521 2.26.918l-1.12 1.016c-.54-.293-1.33-.612-2.38-.957zm14.48 1.123v3.838h-1.74v-2.5h-13.04v2.5h-1.72v-3.838h7.38v-1.905h1.74v1.905h7.38zm-2.9 4.677h-10.7v-2.763h10.7v2.764zm-1.72-1.064v-.635h-7.2v.635h7.2zm5.24 11.309l-1.58 1.015a12.7 12.7 0 00-2.52-2.217l1.48-1.005h-14.86v-1.221h7.74v-.654h-6.92V25.98h6.92v-.664h-6.3v-3.76h14.32v3.76h-6.24v.665h6.9v1.162h-6.9v.654h7.66v1.22h-2.22c.92.71 1.76 1.446 2.52 2.208zm-3.46-6.983V22.7h-2.18l1.26.557c-.22.273-.53.602-.94.986h1.86zm-2.48 0l-1.26-.586a8.82 8.82 0 001.04-.957h-1.8v1.543h2.02zm-3.8 0V22.7h-1.8c.38.339.7.707.98 1.104l-1.22.44h2.04zm-2.28-1.543h-2.28v1.543h1.88c-.32-.37-.66-.726-1.02-1.064l1.42-.479zm-1.7 7.285c-.52.625-1.39 1.377-2.6 2.256l-1.5-1.181c1.06-.619 1.89-1.25 2.5-1.895l1.6.82zm3.88 1.739l-1.76.312c-.13-.8-.37-1.592-.7-2.373l1.7-.361c.23.534.48 1.34.76 2.422zm4.34-.108l-1.74.362c-.28-.84-.62-1.612-1.04-2.315l1.78-.342c.33.6.66 1.364 1 2.295zm25.28-15.215h-5.54v1.104h4.54v4.238h-15.38v-4.238h4.56V16.4h-5.6v-1.543h17.42V16.4zm-7.28 1.104V16.4h-2.8v1.104h2.8zm4.54 2.793v-1.358h-2.8v1.358h2.8zm-4.54 0v-1.358h-2.8v1.358h2.8zm-4.54 0v-1.358h-2.8v1.358h2.8zm10.52 3.965h-14.72v-1.504h14.72v1.504zm1.34 2.597h-7.78v5.206h-1.82v-5.206h-7.84v-1.543h17.44v1.543zm-10.96 1.446c-1.29 1.354-3.14 2.558-5.56 3.613l-.98-1.436c2.35-1.035 4.05-2.102 5.1-3.203l1.44 1.026zm11.12 2.353l-1.16 1.338a45.2 45.2 0 00-5.48-3.457l1.18-1.24c1.9.918 3.72 2.038 5.46 3.36z"/></g><path stroke="#000" stroke-dasharray="5 5" d="M663.5 65v241"/><path fill="#293840" d="M265.799 87.518h-14.678c-.579 0-1.029-.183-1.348-.547-.312-.371-.468-.85-.468-1.436V72.557h-.928v-1.534h17.207v1.534h-14.541v12.861c0 .13.059.257.176.38.123.124.25.186.381.186h14.199v1.534zm-3.057-9.317h-8.887v-4.54h8.887v4.54zm-1.777-1.484v-1.553h-5.303v1.553h5.303zm3.574 8.086h-5.635v-5.567h5.635v5.567zm-1.66-1.543v-2.52h-2.315v2.52h2.315zm-5.137 1.543h-5.547v-5.567h5.547v5.567zm-1.66-1.524V80.74h-2.197v2.54h2.197zm29.082-11.338l-1.103 1.123a10.057 10.057 0 00-1.739-1.445l.996-1.142c.586.338 1.202.826 1.846 1.464zm.801 12.276c-.13 1.14-.371 2.07-.723 2.793-.345.729-.804 1.093-1.377 1.093-.547 0-1.015-.283-1.406-.85-.391-.559-.742-1.25-1.055-2.07a31.324 31.324 0 01-2.822 2.96l-1.26-1.162c1.498-1.29 2.676-2.53 3.535-3.721-.507-2.657-.774-5.436-.8-8.34h-6.416v-1.621h6.318c-.013-.71-.02-1.25-.02-1.621 0-.417.007-.798.02-1.143l1.68.069c-.013.572-.02 1.097-.02 1.572 0 .462.007.836.02 1.123h4.101v1.62h-4.043c-.013 1.629.14 3.69.459 6.183a25.706 25.706 0 001.748-4.805l1.592.586c-.84 2.825-1.807 5.039-2.9 6.64a8.73 8.73 0 00.615 1.768c.247.501.446.752.596.752.078 0 .185-.208.322-.625.143-.423.247-1.042.312-1.856l1.524.655zm-12.227-.596c-1.321.879-2.975 1.77-4.961 2.676l-.615-1.621c.664-.228 1.364-.54 2.1-.938v-6.494h-1.68v-1.66h1.68v-5.02h1.718v5.02h1.524v1.66h-1.524v5.576a19.518 19.518 0 001.582-.996l.176 1.797zm5.42-1.758h-5.039v-5.722h5.039v5.722zm-1.699-1.562v-2.598h-1.621v2.598h1.621zm2.402 3.603c-1.367.716-3.414 1.468-6.142 2.256l-.342-1.7c2.428-.572 4.551-1.298 6.367-2.177l.117 1.621zm25.86 3.575h-17.383V85.7h5.078c-.625-3.567-1.458-6.64-2.5-9.219l1.387-.966h-3.262v-1.797h7.256a15.698 15.698 0 00-1.318-2.783l1.923-.655a24.636 24.636 0 011.514 3.438h6.787v1.797h-3.564l1.465.947c-.385 2.695-1.179 5.775-2.383 9.238h5v1.778zm-4.317-11.963h-8.808c1.139 3.027 2.028 6.422 2.666 10.185h3.535c1.315-3.756 2.184-7.151 2.607-10.185zm24.375 3.505l-1.084 1.338c-1.959-1.067-4.225-1.982-6.797-2.744v1.729h-1.699v-2.52c-1.862 1.433-4.189 2.643-6.982 3.633l-.996-1.455c2.747-.924 4.954-1.98 6.621-3.164h-6.26v-1.66h7.617v-1.114a111.56 111.56 0 01-5.722.157l-.577-1.64c.638.012 1.263.019 1.875.019 4.343 0 8.171-.362 11.485-1.084l1.045 1.445c-1.315.326-3.451.645-6.407.957v1.26h7.686l-.02 1.66h-7.666v.225c3.093.787 5.72 1.774 7.881 2.959zm-.175 3.76h-4.6a10.27 10.27 0 01-1.621 2.002c3.157.873 5.208 1.498 6.152 1.875l-.84 1.524c-1.692-.704-4.004-1.423-6.933-2.159-2.045 1.224-5.033 1.895-8.965 2.012l-.615-1.65c2.858.026 5.192-.29 7.002-.948a57.937 57.937 0 00-3.985-.673c.489-.508 1.009-1.169 1.563-1.983h-4.258v-1.64h5.312c.365-.554.713-1.14 1.045-1.758l1.817.38c-.215.43-.482.89-.801 1.378h4.062l.557-1.163 1.602.479c-.039.17-.131.397-.274.684h3.78v1.64zm-6.749 0h-3.994c-.13.235-.364.56-.703.977l3.164.547c.502-.352 1.013-.86 1.533-1.524zm19.112-10.01L332.195 87h-2.392l5.566-13.154h-7.422v-1.973h10.02v.898zm2.392 11.465a5.657 5.657 0 003.516 1.182c.97 0 1.745-.234 2.324-.703.58-.475.869-1.117.869-1.924 0-1.777-1.295-2.666-3.886-2.666h-1.289v-1.846h1.211c2.311 0 3.466-.83 3.466-2.49 0-1.55-.882-2.324-2.646-2.324-1.042 0-2.038.351-2.988 1.054v-2.05c.996-.567 2.174-.85 3.535-.85 1.302 0 2.366.332 3.193.996.833.658 1.25 1.547 1.25 2.666 0 1.986-1.009 3.252-3.027 3.8v.038c1.067.104 1.924.488 2.568 1.153.645.657.967 1.468.967 2.431 0 1.406-.511 2.516-1.533 3.33-1.016.814-2.341 1.22-3.975 1.22-1.478 0-2.663-.263-3.555-.79v-2.227zM369.568 73.7H355.33v6.065c0 3.633-.579 6.406-1.738 8.32l-1.465-1.025c.963-1.68 1.445-4.275 1.445-7.784v-7.1h7.158c-.149-.364-.416-.79-.8-1.278l1.875-.596c.397.625.758 1.25 1.084 1.875h6.679V73.7zm-.156 3.262h-3.008v2.783h-3.076v1.416h5.342v3.78c0 .598-.156 1.106-.469 1.523-.306.41-1.019.615-2.139.615-.221 0-.54-.006-.957-.02l-.498-1.66c.43.04.775.059 1.036.059.52 0 .869-.045 1.045-.137.175-.09.263-.263.263-.517v-2.1h-3.623v5.254h-1.68v-5.254h-3.603v4.375l-1.699.02V81.16h5.302v-1.416h-3.037v-2.783h-2.685v-1.523h2.666v-1.114h1.66v1.114h4.453v-1.114h1.699v1.114h3.008v1.523zm-4.707 1.338v-1.34h-4.453v1.338h4.453z"/><rect width="140.5" height="26.5" x="237.75" y="65.75" stroke="#293840" stroke-width="1.5" rx="9.25"/><g opacity=".2"><path fill="#293840" d="M993.916 81.96l-1.035 1.456c-2.09-1.745-4.411-3.35-6.963-4.814v9.375h-1.875v-10.02c-2.109 2.188-4.398 3.994-6.865 5.42l-1.035-1.514c4.518-2.604 7.63-5.644 9.336-9.12h-8.995v-1.759h17.012v1.758h-5.957c-.397.846-.937 1.794-1.621 2.842v.977c3.796 2.187 6.462 3.987 7.998 5.4zm9.604-10.82c-.47 1.4-1.29 2.868-2.45 4.405-1.155 1.53-2.366 2.754-3.629 3.672l-1.24-1.28c2.5-1.718 4.439-4.205 5.819-7.46l1.5.664zm10.38 6.739l-1.14 1.426c-2.48-2.103-4.14-4.392-4.98-6.866h-1.82V70.74h2.98c.8 2.852 2.46 5.231 4.96 7.139zm-3.12-.137a63.55 63.55 0 01-.21 5.537c-.15 1.83-.32 2.956-.5 3.38a2.15 2.15 0 01-.87 1.005c-.4.248-.87.371-1.42.371-1.24 0-2.08-.013-2.52-.039l-.6-1.777c.94.065 1.91.097 2.92.097.25 0 .47-.061.67-.185.21-.13.37-.96.48-2.49.11-1.53.18-2.91.21-4.141h-4.34c-.54 3.945-2.67 6.833-6.397 8.662l-1.26-1.387c1.387-.56 2.647-1.455 3.777-2.685 1.14-1.23 1.82-2.76 2.04-4.59h-3.18v-1.758h11.2zm23.02 9.776h-14.68c-.58 0-1.03-.183-1.35-.547-.31-.371-.47-.85-.47-1.436V72.557h-.92v-1.534h17.2v1.534h-14.54v12.861c0 .13.06.257.18.38.12.124.25.186.38.186h14.2v1.534zm-3.06-9.317h-8.88v-4.54h8.88v4.54zm-1.78-1.484v-1.553h-5.3v1.553h5.3zm3.58 8.086h-5.64v-5.567h5.64v5.567zm-1.66-1.543v-2.52h-2.32v2.52h2.32zm-5.14 1.543h-5.54v-5.567h5.54v5.567zm-1.66-1.524V80.74h-2.2v2.54h2.2zm29.64 4.2h-17.38V85.7h5.08c-.63-3.567-1.46-6.64-2.5-9.219l1.38-.966h-3.26v-1.797h7.26a15.98 15.98 0 00-1.32-2.783l1.92-.655a25.02 25.02 0 011.52 3.438h6.78v1.797h-3.56l1.46.947c-.38 2.695-1.17 5.775-2.38 9.238h5v1.778zm-4.32-11.963h-8.8c1.14 3.027 2.02 6.422 2.66 10.185h3.54c1.31-3.756 2.18-7.151 2.6-10.185zm24.38 3.505l-1.08 1.338c-1.96-1.067-4.23-1.982-6.8-2.744v1.729h-1.7v-2.52c-1.86 1.433-4.19 2.643-6.98 3.633l-1-1.455c2.75-.924 4.96-1.98 6.62-3.164h-6.26v-1.66h7.62v-1.114c-2.04.105-3.95.157-5.72.157l-.58-1.64c.64.012 1.26.019 1.88.019 4.34 0 8.17-.362 11.48-1.084l1.04 1.445c-1.31.326-3.45.645-6.4.957v1.26h7.68l-.02 1.66h-7.66v.225c3.09.787 5.72 1.774 7.88 2.959zm-.18 3.76h-4.6a9.713 9.713 0 01-1.62 2.002c3.16.873 5.21 1.498 6.16 1.875l-.84 1.524c-1.7-.704-4.01-1.423-6.94-2.159-2.04 1.224-5.03 1.895-8.96 2.012l-.62-1.65c2.86.026 5.19-.29 7-.948a57.922 57.922 0 00-3.98-.673c.49-.508 1.01-1.169 1.56-1.983h-4.26v-1.64h5.32c.36-.554.71-1.14 1.04-1.758l1.82.38c-.22.43-.48.89-.8 1.378h4.06l.56-1.163 1.6.479c-.04.17-.13.397-.28.684h3.78v1.64zm-6.74 0h-4c-.13.235-.36.56-.7.977l3.16.547c.5-.352 1.01-.86 1.54-1.524zm9.59 1.455a5.626 5.626 0 003.51 1.182c.97 0 1.75-.234 2.33-.703.57-.475.86-1.117.86-1.924 0-1.777-1.29-2.666-3.88-2.666h-1.29v-1.846h1.21c2.31 0 3.47-.83 3.47-2.49 0-1.55-.89-2.324-2.65-2.324-1.04 0-2.04.351-2.99 1.054v-2.05c1-.567 2.18-.85 3.54-.85 1.3 0 2.36.332 3.19.996.83.658 1.25 1.547 1.25 2.666 0 1.986-1.01 3.252-3.03 3.8v.038c1.07.104 1.93.488 2.57 1.153.65.657.97 1.468.97 2.431 0 1.406-.51 2.516-1.54 3.33-1.01.814-2.34 1.22-3.97 1.22-1.48 0-2.66-.263-3.55-.79v-2.227zm21.7-.967h-1.89V87h-2.18v-3.73h-6.92v-1.485l6.59-9.912h2.51v9.648h1.89v1.748zm-4.07-1.748v-5.918c0-.442.02-.95.04-1.523h-.04c-.16.404-.35.794-.57 1.172l-4.16 6.27h4.73zm23.49-7.822h-14.24v6.065c0 3.633-.58 6.406-1.74 8.32l-1.46-1.025c.96-1.68 1.44-4.275 1.44-7.784v-7.1h7.16c-.15-.364-.42-.79-.8-1.278l1.87-.596c.4.625.76 1.25 1.09 1.875h6.68v1.523zm-.16 3.262h-3.01v2.783h-3.07v1.416h5.34v3.78c0 .598-.16 1.106-.47 1.523-.3.41-1.02.615-2.14.615-.22 0-.54-.006-.95-.02l-.5-1.66c.43.04.77.059 1.03.059.52 0 .87-.045 1.05-.137.17-.09.26-.263.26-.517v-2.1h-3.62v5.254h-1.68v-5.254h-3.61v4.375l-1.69.02V81.16h5.3v-1.416h-3.04v-2.783h-2.68v-1.523h2.66v-1.114h1.66v1.114h4.46v-1.114h1.69v1.114h3.01v1.523zm-4.7 1.338V76.96h-4.46v1.338h4.46z"/><rect width="154.5" height="26.5" x="968.75" y="65.75" stroke="#293840" stroke-width="1.5" rx="9.25"/></g><rect width="125.5" height="26.5" x="695.75" y="65.75" stroke="#293840" stroke-width="1.5" rx="9.25"/><path fill="#293840" d="M721.861 72.684h-6.963a13.192 13.192 0 01-.634 1.591h6.142v7.55h-4.726v4.51c0 .379-.111.7-.332.968a1.563 1.563 0 01-.772.527c-.293.091-.853.137-1.68.137-.351 0-.703-.01-1.054-.03l-.537-1.64c1.36 0 2.132-.03 2.314-.088.189-.065.283-.247.283-.547v-3.838h-4.843v-7.549h3.369c.208-.436.42-.966.634-1.591h-5.478v6.455c0 3.782-.648 6.79-1.943 9.023l-1.534-1.064c1.146-2.07 1.719-4.844 1.719-8.32v-7.735h16.016l.019 1.64zm-3.261 4.619v-1.446h-7.715v1.446h7.715zm0 2.959v-1.406h-7.715v1.406h7.715zm3.447 6.015l-1.387 1.143c-.892-1.367-2.07-2.721-3.535-4.063l1.377-1.035a22.237 22.237 0 013.545 3.955zm-9.727-3.115c-.898 1.517-2.158 2.904-3.779 4.16l-1.396-1.142c1.744-1.374 2.978-2.66 3.701-3.858l1.474.84zm29.688.918c-.729 2.656-1.83 3.984-3.301 3.984-1.016 0-2.122-.644-3.32-1.933-1.198-1.29-2.061-3.119-2.588-5.488h-5.332v5.175a58.173 58.173 0 005.332-1.396l.166 1.836a71.739 71.739 0 01-7.324 1.758l-.596-1.797c.371-.143.557-.423.557-.84V71.004h14.58v5.576h-5.957c-.02.84.026 1.615.136 2.324h7.041v1.739h-6.699c.358 1.601.973 2.93 1.846 3.984.879 1.055 1.579 1.582 2.099 1.582a.831.831 0 00.498-.147c.137-.097.336-.436.596-1.015.267-.586.482-1.234.645-1.944l1.621.977zm-3.682-9.258v-2.06h-10.859v2.06h10.859zm-5.801 4.082a29.177 29.177 0 01-.205-2.324h-4.853v2.324h5.058zm29.239 8.575h-17.383V85.7h5.078c-.625-3.567-1.458-6.64-2.5-9.219l1.387-.966h-3.262v-1.797h7.256a15.635 15.635 0 00-1.319-2.783l1.924-.655a24.636 24.636 0 011.514 3.438h6.787v1.797h-3.564l1.464.947c-.384 2.695-1.178 5.775-2.382 9.238h5v1.778zm-4.317-11.963h-8.808c1.139 3.027 2.028 6.422 2.666 10.185h3.535c1.315-3.756 2.184-7.151 2.607-10.185zm24.375 3.505l-1.084 1.338c-1.959-1.067-4.225-1.982-6.797-2.744v1.729h-1.699v-2.52c-1.862 1.433-4.189 2.643-6.982 3.633l-.996-1.455c2.747-.924 4.954-1.98 6.621-3.164h-6.26v-1.66h7.617v-1.114a111.56 111.56 0 01-5.722.157l-.577-1.64c.638.012 1.263.019 1.875.019 4.343 0 8.171-.362 11.485-1.084l1.045 1.445c-1.315.326-3.451.645-6.407.957v1.26h7.686l-.02 1.66h-7.666v.225c3.093.787 5.72 1.774 7.881 2.959zm-.176 3.76h-4.599a10.27 10.27 0 01-1.621 2.002c3.157.873 5.208 1.498 6.152 1.875l-.84 1.524c-1.692-.704-4.004-1.423-6.933-2.159-2.045 1.224-5.033 1.895-8.965 2.012l-.615-1.65c2.858.026 5.192-.29 7.002-.948a57.937 57.937 0 00-3.985-.673c.488-.508 1.009-1.169 1.563-1.983h-4.258v-1.64h5.312c.365-.554.713-1.14 1.045-1.758l1.817.38c-.215.43-.482.89-.801 1.378h4.062l.557-1.163 1.602.479c-.039.17-.131.397-.274.684h3.779v1.64zm-6.748 0h-3.994c-.13.235-.364.56-.703.977l3.164.547c.502-.352 1.013-.86 1.533-1.524zm18.272-8.691a5.123 5.123 0 00-2.481-.625c-1.302 0-2.33.553-3.085 1.66-.749 1.1-1.12 2.523-1.114 4.268h.049c.71-1.296 1.829-1.944 3.359-1.944 1.303 0 2.338.433 3.106 1.299.768.86 1.152 1.986 1.152 3.379 0 1.471-.462 2.695-1.386 3.672-.918.97-2.097 1.455-3.536 1.455-1.634 0-2.887-.615-3.759-1.846-.873-1.237-1.309-2.936-1.309-5.097 0-2.559.566-4.646 1.699-6.26 1.133-1.621 2.709-2.432 4.727-2.432 1.087 0 1.946.143 2.578.43v2.04zm-6.572 7.95c0 .943.247 1.744.742 2.401.495.651 1.139.977 1.933.977.788 0 1.413-.296 1.875-.889.469-.592.704-1.325.704-2.197 0-.983-.222-1.738-.664-2.266-.443-.533-1.088-.8-1.934-.8-.755 0-1.387.267-1.895.8-.507.534-.761 1.192-.761 1.973zm27.099-8.34h-14.238v6.064c0 3.633-.579 6.406-1.738 8.32l-1.465-1.025c.963-1.68 1.445-4.275 1.445-7.784v-7.1h7.158c-.149-.364-.416-.79-.8-1.278l1.875-.596c.397.625.758 1.25 1.084 1.875h6.679v1.523zm-.156 3.26h-3.008v2.784h-3.076v1.416h5.342v3.78c0 .598-.156 1.106-.469 1.523-.306.41-1.019.615-2.139.615-.221 0-.54-.006-.957-.02l-.498-1.66c.43.04.775.059 1.035.059.521 0 .87-.045 1.045-.137.176-.09.264-.263.264-.517v-2.1h-3.623v5.254h-1.68v-5.254h-3.603v4.375l-1.699.02V81.16h5.302v-1.416h-3.037v-2.783h-2.685v-1.523h2.666v-1.114h1.66v1.114h4.453v-1.114h1.699v1.114h3.008v1.523zm-4.707 1.339V76.96h-4.453v1.338h4.453zm-776.4 58.267a18.943 18.943 0 00-7.222-4.527c2.88-1.982 4.772-5.299 4.772-9.055C29.984 116.928 25.056 112 19 112s-10.984 4.928-10.984 10.984a10.99 10.99 0 004.772 9.055 18.943 18.943 0 00-7.222 4.527C1.974 140.151 0 144.923 0 150h38c0-5.077-1.974-9.849-5.566-13.434z"/><path fill="#293840" d="M64.434 136.566a18.943 18.943 0 00-7.222-4.527c2.88-1.982 4.772-5.299 4.772-9.055C61.984 116.928 57.056 112 51 112s-10.984 4.928-10.984 10.984a10.99 10.99 0 004.772 9.055 18.943 18.943 0 00-7.222 4.527C33.974 140.151 32 144.923 32 150h38c0-5.077-1.974-9.849-5.566-13.434z"/><path fill="#293840" d="M94.434 136.566a18.943 18.943 0 00-7.222-4.527c2.88-1.982 4.772-5.299 4.772-9.055C91.984 116.928 87.056 112 81 112s-10.984 4.928-10.984 10.984a10.99 10.99 0 004.772 9.055 18.943 18.943 0 00-7.222 4.527C63.974 140.151 62 144.923 62 150h38c0-5.077-1.974-9.849-5.566-13.434z"/><path fill="#293840" d="M126.434 136.566a18.945 18.945 0 00-7.222-4.527c2.88-1.982 4.772-5.299 4.772-9.055 0-6.056-4.928-10.984-10.984-10.984s-10.984 4.928-10.984 10.984c0 3.748 1.892 7.073 4.772 9.055a18.94 18.94 0 00-7.222 4.527C95.974 140.151 94 144.923 94 150h38c0-5.077-1.974-9.849-5.566-13.434z"/><path fill="#293840" d="M156.434 136.566a18.945 18.945 0 00-7.222-4.527c2.88-1.982 4.772-5.299 4.772-9.055 0-6.056-4.928-10.984-10.984-10.984s-10.984 4.928-10.984 10.984c0 3.748 1.892 7.073 4.772 9.055a18.945 18.945 0 00-7.222 4.527C125.974 140.151 124 144.923 124 150h38c0-5.077-1.974-9.849-5.566-13.434z"/><path fill="#293840" d="M188.434 136.566a18.945 18.945 0 00-7.222-4.527c2.88-1.982 4.772-5.299 4.772-9.055 0-6.056-4.928-10.984-10.984-10.984s-10.984 4.928-10.984 10.984c0 3.748 1.892 7.073 4.772 9.055a18.945 18.945 0 00-7.222 4.527C157.974 140.151 156 144.923 156 150h38c0-5.077-1.974-9.849-5.566-13.434z"/><path fill="#293840" d="M218.434 136.566a18.945 18.945 0 00-7.222-4.527c2.88-1.982 4.772-5.299 4.772-9.055 0-6.056-4.928-10.984-10.984-10.984s-10.984 4.928-10.984 10.984c0 3.748 1.892 7.073 4.772 9.055a18.945 18.945 0 00-7.222 4.527C187.974 140.151 186 144.923 186 150h38c0-5.077-1.974-9.849-5.566-13.434z"/><path fill="#293840" d="M250.434 136.566a18.945 18.945 0 00-7.222-4.527c2.88-1.982 4.772-5.299 4.772-9.055 0-6.056-4.928-10.984-10.984-10.984s-10.984 4.928-10.984 10.984c0 3.748 1.892 7.073 4.772 9.055a18.945 18.945 0 00-7.222 4.527C219.974 140.151 218 144.923 218 150h38c0-5.077-1.974-9.849-5.566-13.434z"/><path fill="#293840" d="M279.434 136.566a18.945 18.945 0 00-7.222-4.527c2.88-1.982 4.772-5.299 4.772-9.055 0-6.056-4.928-10.984-10.984-10.984s-10.984 4.928-10.984 10.984c0 3.748 1.892 7.073 4.772 9.055a18.945 18.945 0 00-7.222 4.527C248.974 140.151 247 144.923 247 150h38c0-5.077-1.974-9.849-5.566-13.434z"/><path fill="#293840" d="M311.434 136.566a18.945 18.945 0 00-7.222-4.527c2.88-1.982 4.772-5.299 4.772-9.055 0-6.056-4.928-10.984-10.984-10.984s-10.984 4.928-10.984 10.984c0 3.748 1.892 7.073 4.772 9.055a18.945 18.945 0 00-7.222 4.527C280.974 140.151 279 144.923 279 150h38c0-5.077-1.974-9.849-5.566-13.434z"/><path fill="#293840" d="M341.434 136.566a18.945 18.945 0 00-7.222-4.527c2.88-1.982 4.772-5.299 4.772-9.055 0-6.056-4.928-10.984-10.984-10.984s-10.984 4.928-10.984 10.984c0 3.748 1.892 7.073 4.772 9.055a18.945 18.945 0 00-7.222 4.527C310.974 140.151 309 144.923 309 150h38c0-5.077-1.974-9.849-5.566-13.434z"/><path fill="#293840" d="M373.434 136.566a18.945 18.945 0 00-7.222-4.527c2.88-1.982 4.772-5.299 4.772-9.055 0-6.056-4.928-10.984-10.984-10.984s-10.984 4.928-10.984 10.984c0 3.748 1.892 7.073 4.772 9.055a18.945 18.945 0 00-7.222 4.527C342.974 140.151 341 144.923 341 150h38c0-5.077-1.974-9.849-5.566-13.434z"/><path fill="#293840" d="M403.434 136.566a18.945 18.945 0 00-7.222-4.527c2.88-1.982 4.772-5.299 4.772-9.055 0-6.056-4.928-10.984-10.984-10.984s-10.984 4.928-10.984 10.984c0 3.748 1.892 7.073 4.772 9.055a18.945 18.945 0 00-7.222 4.527C372.974 140.151 371 144.923 371 150h38c0-5.077-1.974-9.849-5.566-13.434z"/><path fill="#293840" d="M435.434 136.566a18.945 18.945 0 00-7.222-4.527c2.88-1.982 4.772-5.299 4.772-9.055 0-6.056-4.928-10.984-10.984-10.984s-10.984 4.928-10.984 10.984c0 3.748 1.892 7.073 4.772 9.055a18.945 18.945 0 00-7.222 4.527C404.974 140.151 403 144.923 403 150h38c0-5.077-1.974-9.849-5.566-13.434z"/><path fill="#293840" d="M465.434 136.566a18.945 18.945 0 00-7.222-4.527c2.88-1.982 4.772-5.299 4.772-9.055 0-6.056-4.928-10.984-10.984-10.984s-10.984 4.928-10.984 10.984c0 3.748 1.892 7.073 4.772 9.055a18.945 18.945 0 00-7.222 4.527C434.974 140.151 433 144.923 433 150h38c0-5.077-1.974-9.849-5.566-13.434z"/><path fill="#293840" d="M497.434 136.566a18.945 18.945 0 00-7.222-4.527c2.88-1.982 4.772-5.299 4.772-9.055 0-6.056-4.928-10.984-10.984-10.984s-10.984 4.928-10.984 10.984c0 3.748 1.892 7.073 4.772 9.055a18.945 18.945 0 00-7.222 4.527C466.974 140.151 465 144.923 465 150h38c0-5.077-1.974-9.849-5.566-13.434z"/><path fill="#293840" d="M527.434 136.566a18.945 18.945 0 00-7.222-4.527c2.88-1.982 4.772-5.299 4.772-9.055 0-6.056-4.928-10.984-10.984-10.984s-10.984 4.928-10.984 10.984c0 3.748 1.892 7.073 4.772 9.055a18.945 18.945 0 00-7.222 4.527C496.974 140.151 495 144.923 495 150h38c0-5.077-1.974-9.849-5.566-13.434z"/><path fill="#293840" d="M559.434 136.566a18.945 18.945 0 00-7.222-4.527c2.88-1.982 4.772-5.299 4.772-9.055 0-6.056-4.928-10.984-10.984-10.984s-10.984 4.928-10.984 10.984c0 3.748 1.892 7.073 4.772 9.055a18.945 18.945 0 00-7.222 4.527C528.974 140.151 527 144.923 527 150h38c0-5.077-1.974-9.849-5.566-13.434z"/><path fill="#293840" d="M589.434 136.566a18.945 18.945 0 00-7.222-4.527c2.88-1.982 4.772-5.299 4.772-9.055 0-6.056-4.928-10.984-10.984-10.984s-10.984 4.928-10.984 10.984c0 3.748 1.892 7.073 4.772 9.055a18.945 18.945 0 00-7.222 4.527C558.974 140.151 557 144.923 557 150h38c0-5.077-1.974-9.849-5.566-13.434z"/><path fill="#293840" d="M621.434 136.566a18.945 18.945 0 00-7.222-4.527c2.88-1.982 4.772-5.299 4.772-9.055 0-6.056-4.928-10.984-10.984-10.984s-10.984 4.928-10.984 10.984c0 3.748 1.892 7.073 4.772 9.055a18.945 18.945 0 00-7.222 4.527C590.974 140.151 589 144.923 589 150h38c0-5.077-1.974-9.849-5.566-13.434zm-589 49a18.943 18.943 0 00-7.222-4.527c2.88-1.982 4.772-5.299 4.772-9.055C29.984 165.928 25.056 161 19 161s-10.984 4.928-10.984 10.984a10.99 10.99 0 004.772 9.055 18.943 18.943 0 00-7.222 4.527C1.974 189.151 0 193.923 0 199h38c0-5.077-1.974-9.849-5.566-13.434z"/><path fill="#293840" d="M64.434 185.566a18.943 18.943 0 00-7.222-4.527c2.88-1.982 4.772-5.299 4.772-9.055C61.984 165.928 57.056 161 51 161s-10.984 4.928-10.984 10.984a10.99 10.99 0 004.772 9.055 18.943 18.943 0 00-7.222 4.527C33.974 189.151 32 193.923 32 199h38c0-5.077-1.974-9.849-5.566-13.434z"/><path fill="#293840" d="M94.434 185.566a18.943 18.943 0 00-7.222-4.527c2.88-1.982 4.772-5.299 4.772-9.055C91.984 165.928 87.056 161 81 161s-10.984 4.928-10.984 10.984a10.99 10.99 0 004.772 9.055 18.943 18.943 0 00-7.222 4.527C63.974 189.151 62 193.923 62 199h38c0-5.077-1.974-9.849-5.566-13.434z"/><path fill="#293840" d="M126.434 185.566a18.945 18.945 0 00-7.222-4.527c2.88-1.982 4.772-5.299 4.772-9.055 0-6.056-4.928-10.984-10.984-10.984s-10.984 4.928-10.984 10.984c0 3.748 1.892 7.073 4.772 9.055a18.94 18.94 0 00-7.222 4.527C95.974 189.151 94 193.923 94 199h38c0-5.077-1.974-9.849-5.566-13.434z"/><path fill="#293840" d="M156.434 185.566a18.945 18.945 0 00-7.222-4.527c2.88-1.982 4.772-5.299 4.772-9.055 0-6.056-4.928-10.984-10.984-10.984s-10.984 4.928-10.984 10.984c0 3.748 1.892 7.073 4.772 9.055a18.945 18.945 0 00-7.222 4.527C125.974 189.151 124 193.923 124 199h38c0-5.077-1.974-9.849-5.566-13.434z"/><path fill="#293840" d="M188.434 185.566a18.945 18.945 0 00-7.222-4.527c2.88-1.982 4.772-5.299 4.772-9.055 0-6.056-4.928-10.984-10.984-10.984s-10.984 4.928-10.984 10.984c0 3.748 1.892 7.073 4.772 9.055a18.945 18.945 0 00-7.222 4.527C157.974 189.151 156 193.923 156 199h38c0-5.077-1.974-9.849-5.566-13.434z"/><path fill="#293840" d="M218.434 185.566a18.945 18.945 0 00-7.222-4.527c2.88-1.982 4.772-5.299 4.772-9.055 0-6.056-4.928-10.984-10.984-10.984s-10.984 4.928-10.984 10.984c0 3.748 1.892 7.073 4.772 9.055a18.945 18.945 0 00-7.222 4.527C187.974 189.151 186 193.923 186 199h38c0-5.077-1.974-9.849-5.566-13.434z"/><path fill="#293840" d="M250.434 185.566a18.945 18.945 0 00-7.222-4.527c2.88-1.982 4.772-5.299 4.772-9.055 0-6.056-4.928-10.984-10.984-10.984s-10.984 4.928-10.984 10.984c0 3.748 1.892 7.073 4.772 9.055a18.945 18.945 0 00-7.222 4.527C219.974 189.151 218 193.923 218 199h38c0-5.077-1.974-9.849-5.566-13.434z"/><path fill="#293840" d="M279.434 185.566a18.945 18.945 0 00-7.222-4.527c2.88-1.982 4.772-5.299 4.772-9.055 0-6.056-4.928-10.984-10.984-10.984s-10.984 4.928-10.984 10.984c0 3.748 1.892 7.073 4.772 9.055a18.945 18.945 0 00-7.222 4.527C248.974 189.151 247 193.923 247 199h38c0-5.077-1.974-9.849-5.566-13.434z"/><path fill="#293840" d="M311.434 185.566a18.945 18.945 0 00-7.222-4.527c2.88-1.982 4.772-5.299 4.772-9.055 0-6.056-4.928-10.984-10.984-10.984s-10.984 4.928-10.984 10.984c0 3.748 1.892 7.073 4.772 9.055a18.945 18.945 0 00-7.222 4.527C280.974 189.151 279 193.923 279 199h38c0-5.077-1.974-9.849-5.566-13.434z"/><path fill="#293840" d="M341.434 185.566a18.945 18.945 0 00-7.222-4.527c2.88-1.982 4.772-5.299 4.772-9.055 0-6.056-4.928-10.984-10.984-10.984s-10.984 4.928-10.984 10.984c0 3.748 1.892 7.073 4.772 9.055a18.945 18.945 0 00-7.222 4.527C310.974 189.151 309 193.923 309 199h38c0-5.077-1.974-9.849-5.566-13.434z"/><path fill="#293840" d="M373.434 185.566a18.945 18.945 0 00-7.222-4.527c2.88-1.982 4.772-5.299 4.772-9.055 0-6.056-4.928-10.984-10.984-10.984s-10.984 4.928-10.984 10.984c0 3.748 1.892 7.073 4.772 9.055a18.945 18.945 0 00-7.222 4.527C342.974 189.151 341 193.923 341 199h38c0-5.077-1.974-9.849-5.566-13.434z"/><path fill="#293840" d="M403.434 185.566a18.945 18.945 0 00-7.222-4.527c2.88-1.982 4.772-5.299 4.772-9.055 0-6.056-4.928-10.984-10.984-10.984s-10.984 4.928-10.984 10.984c0 3.748 1.892 7.073 4.772 9.055a18.945 18.945 0 00-7.222 4.527C372.974 189.151 371 193.923 371 199h38c0-5.077-1.974-9.849-5.566-13.434z"/><path fill="#293840" d="M435.434 185.566a18.945 18.945 0 00-7.222-4.527c2.88-1.982 4.772-5.299 4.772-9.055 0-6.056-4.928-10.984-10.984-10.984s-10.984 4.928-10.984 10.984c0 3.748 1.892 7.073 4.772 9.055a18.945 18.945 0 00-7.222 4.527C404.974 189.151 403 193.923 403 199h38c0-5.077-1.974-9.849-5.566-13.434z"/><path fill="#293840" d="M465.434 185.566a18.945 18.945 0 00-7.222-4.527c2.88-1.982 4.772-5.299 4.772-9.055 0-6.056-4.928-10.984-10.984-10.984s-10.984 4.928-10.984 10.984c0 3.748 1.892 7.073 4.772 9.055a18.945 18.945 0 00-7.222 4.527C434.974 189.151 433 193.923 433 199h38c0-5.077-1.974-9.849-5.566-13.434z"/><path fill="#293840" d="M497.434 185.566a18.945 18.945 0 00-7.222-4.527c2.88-1.982 4.772-5.299 4.772-9.055 0-6.056-4.928-10.984-10.984-10.984s-10.984 4.928-10.984 10.984c0 3.748 1.892 7.073 4.772 9.055a18.945 18.945 0 00-7.222 4.527C466.974 189.151 465 193.923 465 199h38c0-5.077-1.974-9.849-5.566-13.434z"/><path fill="#293840" d="M527.434 185.566a18.945 18.945 0 00-7.222-4.527c2.88-1.982 4.772-5.299 4.772-9.055 0-6.056-4.928-10.984-10.984-10.984s-10.984 4.928-10.984 10.984c0 3.748 1.892 7.073 4.772 9.055a18.945 18.945 0 00-7.222 4.527C496.974 189.151 495 193.923 495 199h38c0-5.077-1.974-9.849-5.566-13.434z"/><path fill="#293840" d="M559.434 185.566a18.945 18.945 0 00-7.222-4.527c2.88-1.982 4.772-5.299 4.772-9.055 0-6.056-4.928-10.984-10.984-10.984s-10.984 4.928-10.984 10.984c0 3.748 1.892 7.073 4.772 9.055a18.945 18.945 0 00-7.222 4.527C528.974 189.151 527 193.923 527 199h38c0-5.077-1.974-9.849-5.566-13.434z"/><path fill="#293840" d="M589.434 185.566a18.945 18.945 0 00-7.222-4.527c2.88-1.982 4.772-5.299 4.772-9.055 0-6.056-4.928-10.984-10.984-10.984s-10.984 4.928-10.984 10.984c0 3.748 1.892 7.073 4.772 9.055a18.945 18.945 0 00-7.222 4.527C558.974 189.151 557 193.923 557 199h38c0-5.077-1.974-9.849-5.566-13.434z"/><path fill="#293840" d="M621.434 185.566a18.945 18.945 0 00-7.222-4.527c2.88-1.982 4.772-5.299 4.772-9.055 0-6.056-4.928-10.984-10.984-10.984s-10.984 4.928-10.984 10.984c0 3.748 1.892 7.073 4.772 9.055a18.945 18.945 0 00-7.222 4.527C590.974 189.151 589 193.923 589 199h38c0-5.077-1.974-9.849-5.566-13.434zm-589 49a18.943 18.943 0 00-7.222-4.527c2.88-1.982 4.772-5.299 4.772-9.055C29.984 214.928 25.056 210 19 210s-10.984 4.928-10.984 10.984a10.99 10.99 0 004.772 9.055 18.943 18.943 0 00-7.222 4.527C1.974 238.151 0 242.923 0 248h38c0-5.077-1.974-9.849-5.566-13.434z"/><path fill="#293840" d="M64.434 234.566a18.943 18.943 0 00-7.222-4.527c2.88-1.982 4.772-5.299 4.772-9.055C61.984 214.928 57.056 210 51 210s-10.984 4.928-10.984 10.984a10.99 10.99 0 004.772 9.055 18.943 18.943 0 00-7.222 4.527C33.974 238.151 32 242.923 32 248h38c0-5.077-1.974-9.849-5.566-13.434z"/><path fill="#293840" d="M94.434 234.566a18.943 18.943 0 00-7.222-4.527c2.88-1.982 4.772-5.299 4.772-9.055C91.984 214.928 87.056 210 81 210s-10.984 4.928-10.984 10.984a10.99 10.99 0 004.772 9.055 18.943 18.943 0 00-7.222 4.527C63.974 238.151 62 242.923 62 248h38c0-5.077-1.974-9.849-5.566-13.434z"/><path fill="#293840" d="M126.434 234.566a18.945 18.945 0 00-7.222-4.527c2.88-1.982 4.772-5.299 4.772-9.055 0-6.056-4.928-10.984-10.984-10.984s-10.984 4.928-10.984 10.984c0 3.748 1.892 7.073 4.772 9.055a18.94 18.94 0 00-7.222 4.527C95.974 238.151 94 242.923 94 248h38c0-5.077-1.974-9.849-5.566-13.434z"/><path fill="#293840" d="M156.434 234.566a18.945 18.945 0 00-7.222-4.527c2.88-1.982 4.772-5.299 4.772-9.055 0-6.056-4.928-10.984-10.984-10.984s-10.984 4.928-10.984 10.984c0 3.748 1.892 7.073 4.772 9.055a18.945 18.945 0 00-7.222 4.527C125.974 238.151 124 242.923 124 248h38c0-5.077-1.974-9.849-5.566-13.434z"/><path fill="#293840" d="M188.434 234.566a18.945 18.945 0 00-7.222-4.527c2.88-1.982 4.772-5.299 4.772-9.055 0-6.056-4.928-10.984-10.984-10.984s-10.984 4.928-10.984 10.984c0 3.748 1.892 7.073 4.772 9.055a18.945 18.945 0 00-7.222 4.527C157.974 238.151 156 242.923 156 248h38c0-5.077-1.974-9.849-5.566-13.434z"/><path fill="#293840" d="M218.434 234.566a18.945 18.945 0 00-7.222-4.527c2.88-1.982 4.772-5.299 4.772-9.055 0-6.056-4.928-10.984-10.984-10.984s-10.984 4.928-10.984 10.984c0 3.748 1.892 7.073 4.772 9.055a18.945 18.945 0 00-7.222 4.527C187.974 238.151 186 242.923 186 248h38c0-5.077-1.974-9.849-5.566-13.434z"/><path fill="#293840" d="M250.434 234.566a18.945 18.945 0 00-7.222-4.527c2.88-1.982 4.772-5.299 4.772-9.055 0-6.056-4.928-10.984-10.984-10.984s-10.984 4.928-10.984 10.984c0 3.748 1.892 7.073 4.772 9.055a18.945 18.945 0 00-7.222 4.527C219.974 238.151 218 242.923 218 248h38c0-5.077-1.974-9.849-5.566-13.434z"/><path fill="#293840" d="M279.434 234.566a18.945 18.945 0 00-7.222-4.527c2.88-1.982 4.772-5.299 4.772-9.055 0-6.056-4.928-10.984-10.984-10.984s-10.984 4.928-10.984 10.984c0 3.748 1.892 7.073 4.772 9.055a18.945 18.945 0 00-7.222 4.527C248.974 238.151 247 242.923 247 248h38c0-5.077-1.974-9.849-5.566-13.434z"/><path fill="#293840" d="M311.434 234.566a18.945 18.945 0 00-7.222-4.527c2.88-1.982 4.772-5.299 4.772-9.055 0-6.056-4.928-10.984-10.984-10.984s-10.984 4.928-10.984 10.984c0 3.748 1.892 7.073 4.772 9.055a18.945 18.945 0 00-7.222 4.527C280.974 238.151 279 242.923 279 248h38c0-5.077-1.974-9.849-5.566-13.434z"/><path fill="#293840" d="M341.434 234.566a18.945 18.945 0 00-7.222-4.527c2.88-1.982 4.772-5.299 4.772-9.055 0-6.056-4.928-10.984-10.984-10.984s-10.984 4.928-10.984 10.984c0 3.748 1.892 7.073 4.772 9.055a18.945 18.945 0 00-7.222 4.527C310.974 238.151 309 242.923 309 248h38c0-5.077-1.974-9.849-5.566-13.434z"/><path fill="#293840" d="M373.434 234.566a18.945 18.945 0 00-7.222-4.527c2.88-1.982 4.772-5.299 4.772-9.055 0-6.056-4.928-10.984-10.984-10.984s-10.984 4.928-10.984 10.984c0 3.748 1.892 7.073 4.772 9.055a18.945 18.945 0 00-7.222 4.527C342.974 238.151 341 242.923 341 248h38c0-5.077-1.974-9.849-5.566-13.434z"/><path fill="#293840" d="M403.434 234.566a18.945 18.945 0 00-7.222-4.527c2.88-1.982 4.772-5.299 4.772-9.055 0-6.056-4.928-10.984-10.984-10.984s-10.984 4.928-10.984 10.984c0 3.748 1.892 7.073 4.772 9.055a18.945 18.945 0 00-7.222 4.527C372.974 238.151 371 242.923 371 248h38c0-5.077-1.974-9.849-5.566-13.434z"/><path fill="#293840" d="M435.434 234.566a18.945 18.945 0 00-7.222-4.527c2.88-1.982 4.772-5.299 4.772-9.055 0-6.056-4.928-10.984-10.984-10.984s-10.984 4.928-10.984 10.984c0 3.748 1.892 7.073 4.772 9.055a18.945 18.945 0 00-7.222 4.527C404.974 238.151 403 242.923 403 248h38c0-5.077-1.974-9.849-5.566-13.434z"/><path fill="#293840" d="M465.434 234.566a18.945 18.945 0 00-7.222-4.527c2.88-1.982 4.772-5.299 4.772-9.055 0-6.056-4.928-10.984-10.984-10.984s-10.984 4.928-10.984 10.984c0 3.748 1.892 7.073 4.772 9.055a18.945 18.945 0 00-7.222 4.527C434.974 238.151 433 242.923 433 248h38c0-5.077-1.974-9.849-5.566-13.434z"/><path fill="#293840" d="M497.434 234.566a18.945 18.945 0 00-7.222-4.527c2.88-1.982 4.772-5.299 4.772-9.055 0-6.056-4.928-10.984-10.984-10.984s-10.984 4.928-10.984 10.984c0 3.748 1.892 7.073 4.772 9.055a18.945 18.945 0 00-7.222 4.527C466.974 238.151 465 242.923 465 248h38c0-5.077-1.974-9.849-5.566-13.434z"/><path fill="#293840" d="M527.434 234.566a18.945 18.945 0 00-7.222-4.527c2.88-1.982 4.772-5.299 4.772-9.055 0-6.056-4.928-10.984-10.984-10.984s-10.984 4.928-10.984 10.984c0 3.748 1.892 7.073 4.772 9.055a18.945 18.945 0 00-7.222 4.527C496.974 238.151 495 242.923 495 248h38c0-5.077-1.974-9.849-5.566-13.434z"/><path fill="#293840" d="M559.434 234.566a18.945 18.945 0 00-7.222-4.527c2.88-1.982 4.772-5.299 4.772-9.055 0-6.056-4.928-10.984-10.984-10.984s-10.984 4.928-10.984 10.984c0 3.748 1.892 7.073 4.772 9.055a18.945 18.945 0 00-7.222 4.527C528.974 238.151 527 242.923 527 248h38c0-5.077-1.974-9.849-5.566-13.434z"/><path fill="#293840" d="M589.434 234.566a18.945 18.945 0 00-7.222-4.527c2.88-1.982 4.772-5.299 4.772-9.055 0-6.056-4.928-10.984-10.984-10.984s-10.984 4.928-10.984 10.984c0 3.748 1.892 7.073 4.772 9.055a18.945 18.945 0 00-7.222 4.527C558.974 238.151 557 242.923 557 248h38c0-5.077-1.974-9.849-5.566-13.434z"/><path fill="#293840" d="M621.434 234.566a18.945 18.945 0 00-7.222-4.527c2.88-1.982 4.772-5.299 4.772-9.055 0-6.056-4.928-10.984-10.984-10.984s-10.984 4.928-10.984 10.984c0 3.748 1.892 7.073 4.772 9.055a18.945 18.945 0 00-7.222 4.527C590.974 238.151 589 242.923 589 248h38c0-5.077-1.974-9.849-5.566-13.434zm-589 49a18.943 18.943 0 00-7.222-4.527c2.88-1.982 4.772-5.299 4.772-9.055C29.984 263.928 25.056 259 19 259s-10.984 4.928-10.984 10.984a10.99 10.99 0 004.772 9.055 18.943 18.943 0 00-7.222 4.527C1.974 287.151 0 291.923 0 297h38c0-5.077-1.974-9.849-5.566-13.434z"/><path fill="#293840" d="M64.434 283.566a18.943 18.943 0 00-7.222-4.527c2.88-1.982 4.772-5.299 4.772-9.055C61.984 263.928 57.056 259 51 259s-10.984 4.928-10.984 10.984a10.99 10.99 0 004.772 9.055 18.943 18.943 0 00-7.222 4.527C33.974 287.151 32 291.923 32 297h38c0-5.077-1.974-9.849-5.566-13.434z"/><path fill="#293840" d="M94.434 283.566a18.943 18.943 0 00-7.222-4.527c2.88-1.982 4.772-5.299 4.772-9.055C91.984 263.928 87.056 259 81 259s-10.984 4.928-10.984 10.984a10.99 10.99 0 004.772 9.055 18.943 18.943 0 00-7.222 4.527C63.974 287.151 62 291.923 62 297h38c0-5.077-1.974-9.849-5.566-13.434z"/><path fill="#293840" d="M126.434 283.566a18.945 18.945 0 00-7.222-4.527c2.88-1.982 4.772-5.299 4.772-9.055 0-6.056-4.928-10.984-10.984-10.984s-10.984 4.928-10.984 10.984c0 3.748 1.892 7.073 4.772 9.055a18.94 18.94 0 00-7.222 4.527C95.974 287.151 94 291.923 94 297h38c0-5.077-1.974-9.849-5.566-13.434z"/><path fill="#293840" d="M156.434 283.566a18.945 18.945 0 00-7.222-4.527c2.88-1.982 4.772-5.299 4.772-9.055 0-6.056-4.928-10.984-10.984-10.984s-10.984 4.928-10.984 10.984c0 3.748 1.892 7.073 4.772 9.055a18.945 18.945 0 00-7.222 4.527C125.974 287.151 124 291.923 124 297h38c0-5.077-1.974-9.849-5.566-13.434z"/><path fill="#293840" d="M188.434 283.566a18.945 18.945 0 00-7.222-4.527c2.88-1.982 4.772-5.299 4.772-9.055 0-6.056-4.928-10.984-10.984-10.984s-10.984 4.928-10.984 10.984c0 3.748 1.892 7.073 4.772 9.055a18.945 18.945 0 00-7.222 4.527C157.974 287.151 156 291.923 156 297h38c0-5.077-1.974-9.849-5.566-13.434z"/><path fill="#293840" d="M218.434 283.566a18.945 18.945 0 00-7.222-4.527c2.88-1.982 4.772-5.299 4.772-9.055 0-6.056-4.928-10.984-10.984-10.984s-10.984 4.928-10.984 10.984c0 3.748 1.892 7.073 4.772 9.055a18.945 18.945 0 00-7.222 4.527C187.974 287.151 186 291.923 186 297h38c0-5.077-1.974-9.849-5.566-13.434z"/><path fill="#293840" d="M250.434 283.566a18.945 18.945 0 00-7.222-4.527c2.88-1.982 4.772-5.299 4.772-9.055 0-6.056-4.928-10.984-10.984-10.984s-10.984 4.928-10.984 10.984c0 3.748 1.892 7.073 4.772 9.055a18.945 18.945 0 00-7.222 4.527C219.974 287.151 218 291.923 218 297h38c0-5.077-1.974-9.849-5.566-13.434z"/><path fill="#293840" d="M279.434 283.566a18.945 18.945 0 00-7.222-4.527c2.88-1.982 4.772-5.299 4.772-9.055 0-6.056-4.928-10.984-10.984-10.984s-10.984 4.928-10.984 10.984c0 3.748 1.892 7.073 4.772 9.055a18.945 18.945 0 00-7.222 4.527C248.974 287.151 247 291.923 247 297h38c0-5.077-1.974-9.849-5.566-13.434z"/><path fill="#293840" d="M311.434 283.566a18.945 18.945 0 00-7.222-4.527c2.88-1.982 4.772-5.299 4.772-9.055 0-6.056-4.928-10.984-10.984-10.984s-10.984 4.928-10.984 10.984c0 3.748 1.892 7.073 4.772 9.055a18.945 18.945 0 00-7.222 4.527C280.974 287.151 279 291.923 279 297h38c0-5.077-1.974-9.849-5.566-13.434z"/><path fill="#293840" d="M341.434 283.566a18.945 18.945 0 00-7.222-4.527c2.88-1.982 4.772-5.299 4.772-9.055 0-6.056-4.928-10.984-10.984-10.984s-10.984 4.928-10.984 10.984c0 3.748 1.892 7.073 4.772 9.055a18.945 18.945 0 00-7.222 4.527C310.974 287.151 309 291.923 309 297h38c0-5.077-1.974-9.849-5.566-13.434z"/><path fill="#293840" d="M373.434 283.566a18.945 18.945 0 00-7.222-4.527c2.88-1.982 4.772-5.299 4.772-9.055 0-6.056-4.928-10.984-10.984-10.984s-10.984 4.928-10.984 10.984c0 3.748 1.892 7.073 4.772 9.055a18.945 18.945 0 00-7.222 4.527C342.974 287.151 341 291.923 341 297h38c0-5.077-1.974-9.849-5.566-13.434z"/><path fill="#293840" d="M403.434 283.566a18.945 18.945 0 00-7.222-4.527c2.88-1.982 4.772-5.299 4.772-9.055 0-6.056-4.928-10.984-10.984-10.984s-10.984 4.928-10.984 10.984c0 3.748 1.892 7.073 4.772 9.055a18.945 18.945 0 00-7.222 4.527C372.974 287.151 371 291.923 371 297h38c0-5.077-1.974-9.849-5.566-13.434z"/><g fill="#293840" opacity=".2"><path d="M914.434 136.566a18.945 18.945 0 00-7.222-4.527c2.88-1.982 4.772-5.299 4.772-9.055 0-6.056-4.928-10.984-10.984-10.984s-10.984 4.928-10.984 10.984c0 3.748 1.892 7.073 4.772 9.055a18.945 18.945 0 00-7.222 4.527C883.974 140.151 882 144.923 882 150h38c0-5.077-1.974-9.849-5.566-13.434z"/><path d="M946.434 136.566a18.945 18.945 0 00-7.222-4.527c2.88-1.982 4.772-5.299 4.772-9.055 0-6.056-4.928-10.984-10.984-10.984s-10.984 4.928-10.984 10.984c0 3.748 1.892 7.073 4.772 9.055a18.945 18.945 0 00-7.222 4.527C915.974 140.151 914 144.923 914 150h38c0-5.077-1.974-9.849-5.566-13.434z"/><path d="M976.434 136.566a18.945 18.945 0 00-7.222-4.527c2.88-1.982 4.772-5.299 4.772-9.055 0-6.056-4.928-10.984-10.984-10.984s-10.984 4.928-10.984 10.984c0 3.748 1.892 7.073 4.772 9.055a18.945 18.945 0 00-7.222 4.527C945.974 140.151 944 144.923 944 150h38c0-5.077-1.974-9.849-5.566-13.434z"/><path d="M1008.43 136.566a18.908 18.908 0 00-7.22-4.527 10.976 10.976 0 004.77-9.055c0-6.056-4.92-10.984-10.98-10.984-6.056 0-10.984 4.928-10.984 10.984 0 3.748 1.892 7.073 4.772 9.055a18.945 18.945 0 00-7.222 4.527C977.974 140.151 976 144.923 976 150h38c0-5.077-1.97-9.849-5.57-13.434z"/><path d="M1038.43 136.566a18.908 18.908 0 00-7.22-4.527 10.976 10.976 0 004.77-9.055c0-6.056-4.92-10.984-10.98-10.984-6.06 0-10.98 4.928-10.98 10.984 0 3.748 1.89 7.073 4.77 9.055a18.908 18.908 0 00-7.22 4.527c-3.6 3.585-5.57 8.357-5.57 13.434h38c0-5.077-1.97-9.849-5.57-13.434z"/><path d="M1070.43 136.566a18.908 18.908 0 00-7.22-4.527 10.976 10.976 0 004.77-9.055c0-6.056-4.92-10.984-10.98-10.984-6.06 0-10.98 4.928-10.98 10.984 0 3.748 1.89 7.073 4.77 9.055a18.908 18.908 0 00-7.22 4.527c-3.6 3.585-5.57 8.357-5.57 13.434h38c0-5.077-1.97-9.849-5.57-13.434z"/><path d="M1100.43 136.566a18.908 18.908 0 00-7.22-4.527 10.976 10.976 0 004.77-9.055c0-6.056-4.92-10.984-10.98-10.984-6.06 0-10.98 4.928-10.98 10.984 0 3.748 1.89 7.073 4.77 9.055a18.908 18.908 0 00-7.22 4.527c-3.6 3.585-5.57 8.357-5.57 13.434h38c0-5.077-1.97-9.849-5.57-13.434z"/><path d="M1132.43 136.566a18.908 18.908 0 00-7.22-4.527 10.976 10.976 0 004.77-9.055c0-6.056-4.92-10.984-10.98-10.984-6.06 0-10.98 4.928-10.98 10.984 0 3.748 1.89 7.073 4.77 9.055a18.908 18.908 0 00-7.22 4.527c-3.6 3.585-5.57 8.357-5.57 13.434h38c0-5.077-1.97-9.849-5.57-13.434z"/><path d="M1161.43 136.566a18.908 18.908 0 00-7.22-4.527 10.976 10.976 0 004.77-9.055c0-6.056-4.92-10.984-10.98-10.984-6.06 0-10.98 4.928-10.98 10.984 0 3.748 1.89 7.073 4.77 9.055a18.908 18.908 0 00-7.22 4.527c-3.6 3.585-5.57 8.357-5.57 13.434h38c0-5.077-1.97-9.849-5.57-13.434z"/><path d="M1193.43 136.566a18.908 18.908 0 00-7.22-4.527 10.976 10.976 0 004.77-9.055c0-6.056-4.92-10.984-10.98-10.984-6.06 0-10.98 4.928-10.98 10.984 0 3.748 1.89 7.073 4.77 9.055a18.908 18.908 0 00-7.22 4.527c-3.6 3.585-5.57 8.357-5.57 13.434h38c0-5.077-1.97-9.849-5.57-13.434zm-278.996 49a18.945 18.945 0 00-7.222-4.527c2.88-1.982 4.772-5.299 4.772-9.055 0-6.056-4.928-10.984-10.984-10.984s-10.984 4.928-10.984 10.984c0 3.748 1.892 7.073 4.772 9.055a18.945 18.945 0 00-7.222 4.527C883.974 189.151 882 193.923 882 199h38c0-5.077-1.974-9.849-5.566-13.434z"/><path d="M946.434 185.566a18.945 18.945 0 00-7.222-4.527c2.88-1.982 4.772-5.299 4.772-9.055 0-6.056-4.928-10.984-10.984-10.984s-10.984 4.928-10.984 10.984c0 3.748 1.892 7.073 4.772 9.055a18.945 18.945 0 00-7.222 4.527C915.974 189.151 914 193.923 914 199h38c0-5.077-1.974-9.849-5.566-13.434z"/><path d="M976.434 185.566a18.945 18.945 0 00-7.222-4.527c2.88-1.982 4.772-5.299 4.772-9.055 0-6.056-4.928-10.984-10.984-10.984s-10.984 4.928-10.984 10.984c0 3.748 1.892 7.073 4.772 9.055a18.945 18.945 0 00-7.222 4.527C945.974 189.151 944 193.923 944 199h38c0-5.077-1.974-9.849-5.566-13.434z"/><path d="M1008.43 185.566a18.908 18.908 0 00-7.22-4.527 10.976 10.976 0 004.77-9.055c0-6.056-4.92-10.984-10.98-10.984-6.056 0-10.984 4.928-10.984 10.984 0 3.748 1.892 7.073 4.772 9.055a18.945 18.945 0 00-7.222 4.527C977.974 189.151 976 193.923 976 199h38c0-5.077-1.97-9.849-5.57-13.434z"/><path d="M1038.43 185.566a18.908 18.908 0 00-7.22-4.527 10.976 10.976 0 004.77-9.055c0-6.056-4.92-10.984-10.98-10.984-6.06 0-10.98 4.928-10.98 10.984 0 3.748 1.89 7.073 4.77 9.055a18.908 18.908 0 00-7.22 4.527c-3.6 3.585-5.57 8.357-5.57 13.434h38c0-5.077-1.97-9.849-5.57-13.434z"/><path d="M1070.43 185.566a18.908 18.908 0 00-7.22-4.527 10.976 10.976 0 004.77-9.055c0-6.056-4.92-10.984-10.98-10.984-6.06 0-10.98 4.928-10.98 10.984 0 3.748 1.89 7.073 4.77 9.055a18.908 18.908 0 00-7.22 4.527c-3.6 3.585-5.57 8.357-5.57 13.434h38c0-5.077-1.97-9.849-5.57-13.434z"/><path d="M1100.43 185.566a18.908 18.908 0 00-7.22-4.527 10.976 10.976 0 004.77-9.055c0-6.056-4.92-10.984-10.98-10.984-6.06 0-10.98 4.928-10.98 10.984 0 3.748 1.89 7.073 4.77 9.055a18.908 18.908 0 00-7.22 4.527c-3.6 3.585-5.57 8.357-5.57 13.434h38c0-5.077-1.97-9.849-5.57-13.434z"/><path d="M1132.43 185.566a18.908 18.908 0 00-7.22-4.527 10.976 10.976 0 004.77-9.055c0-6.056-4.92-10.984-10.98-10.984-6.06 0-10.98 4.928-10.98 10.984 0 3.748 1.89 7.073 4.77 9.055a18.908 18.908 0 00-7.22 4.527c-3.6 3.585-5.57 8.357-5.57 13.434h38c0-5.077-1.97-9.849-5.57-13.434z"/><path d="M1161.43 185.566a18.908 18.908 0 00-7.22-4.527 10.976 10.976 0 004.77-9.055c0-6.056-4.92-10.984-10.98-10.984-6.06 0-10.98 4.928-10.98 10.984 0 3.748 1.89 7.073 4.77 9.055a18.908 18.908 0 00-7.22 4.527c-3.6 3.585-5.57 8.357-5.57 13.434h38c0-5.077-1.97-9.849-5.57-13.434z"/><path d="M1193.43 185.566a18.908 18.908 0 00-7.22-4.527 10.976 10.976 0 004.77-9.055c0-6.056-4.92-10.984-10.98-10.984-6.06 0-10.98 4.928-10.98 10.984 0 3.748 1.89 7.073 4.77 9.055a18.908 18.908 0 00-7.22 4.527c-3.6 3.585-5.57 8.357-5.57 13.434h38c0-5.077-1.97-9.849-5.57-13.434zm-278.996 49a18.945 18.945 0 00-7.222-4.527c2.88-1.982 4.772-5.299 4.772-9.055 0-6.056-4.928-10.984-10.984-10.984s-10.984 4.928-10.984 10.984c0 3.748 1.892 7.073 4.772 9.055a18.945 18.945 0 00-7.222 4.527C883.974 238.151 882 242.923 882 248h38c0-5.077-1.974-9.849-5.566-13.434z"/><path d="M946.434 234.566a18.945 18.945 0 00-7.222-4.527c2.88-1.982 4.772-5.299 4.772-9.055 0-6.056-4.928-10.984-10.984-10.984s-10.984 4.928-10.984 10.984c0 3.748 1.892 7.073 4.772 9.055a18.945 18.945 0 00-7.222 4.527C915.974 238.151 914 242.923 914 248h38c0-5.077-1.974-9.849-5.566-13.434z"/><path d="M976.434 234.566a18.945 18.945 0 00-7.222-4.527c2.88-1.982 4.772-5.299 4.772-9.055 0-6.056-4.928-10.984-10.984-10.984s-10.984 4.928-10.984 10.984c0 3.748 1.892 7.073 4.772 9.055a18.945 18.945 0 00-7.222 4.527C945.974 238.151 944 242.923 944 248h38c0-5.077-1.974-9.849-5.566-13.434z"/><path d="M1008.43 234.566a18.908 18.908 0 00-7.22-4.527 10.976 10.976 0 004.77-9.055c0-6.056-4.92-10.984-10.98-10.984-6.056 0-10.984 4.928-10.984 10.984 0 3.748 1.892 7.073 4.772 9.055a18.945 18.945 0 00-7.222 4.527C977.974 238.151 976 242.923 976 248h38c0-5.077-1.97-9.849-5.57-13.434z"/><path d="M1038.43 234.566a18.908 18.908 0 00-7.22-4.527 10.976 10.976 0 004.77-9.055c0-6.056-4.92-10.984-10.98-10.984-6.06 0-10.98 4.928-10.98 10.984 0 3.748 1.89 7.073 4.77 9.055a18.908 18.908 0 00-7.22 4.527c-3.6 3.585-5.57 8.357-5.57 13.434h38c0-5.077-1.97-9.849-5.57-13.434z"/><path d="M1070.43 234.566a18.908 18.908 0 00-7.22-4.527 10.976 10.976 0 004.77-9.055c0-6.056-4.92-10.984-10.98-10.984-6.06 0-10.98 4.928-10.98 10.984 0 3.748 1.89 7.073 4.77 9.055a18.908 18.908 0 00-7.22 4.527c-3.6 3.585-5.57 8.357-5.57 13.434h38c0-5.077-1.97-9.849-5.57-13.434z"/><path d="M1100.43 234.566a18.908 18.908 0 00-7.22-4.527 10.976 10.976 0 004.77-9.055c0-6.056-4.92-10.984-10.98-10.984-6.06 0-10.98 4.928-10.98 10.984 0 3.748 1.89 7.073 4.77 9.055a18.908 18.908 0 00-7.22 4.527c-3.6 3.585-5.57 8.357-5.57 13.434h38c0-5.077-1.97-9.849-5.57-13.434z"/><path d="M1132.43 234.566a18.908 18.908 0 00-7.22-4.527 10.976 10.976 0 004.77-9.055c0-6.056-4.92-10.984-10.98-10.984-6.06 0-10.98 4.928-10.98 10.984 0 3.748 1.89 7.073 4.77 9.055a18.908 18.908 0 00-7.22 4.527c-3.6 3.585-5.57 8.357-5.57 13.434h38c0-5.077-1.97-9.849-5.57-13.434z"/><path d="M1161.43 234.566a18.908 18.908 0 00-7.22-4.527 10.976 10.976 0 004.77-9.055c0-6.056-4.92-10.984-10.98-10.984-6.06 0-10.98 4.928-10.98 10.984 0 3.748 1.89 7.073 4.77 9.055a18.908 18.908 0 00-7.22 4.527c-3.6 3.585-5.57 8.357-5.57 13.434h38c0-5.077-1.97-9.849-5.57-13.434z"/><path d="M1193.43 234.566a18.908 18.908 0 00-7.22-4.527 10.976 10.976 0 004.77-9.055c0-6.056-4.92-10.984-10.98-10.984-6.06 0-10.98 4.928-10.98 10.984 0 3.748 1.89 7.073 4.77 9.055a18.908 18.908 0 00-7.22 4.527c-3.6 3.585-5.57 8.357-5.57 13.434h38c0-5.077-1.97-9.849-5.57-13.434zm-278.996 49a18.945 18.945 0 00-7.222-4.527c2.88-1.982 4.772-5.299 4.772-9.055 0-6.056-4.928-10.984-10.984-10.984s-10.984 4.928-10.984 10.984c0 3.748 1.892 7.073 4.772 9.055a18.945 18.945 0 00-7.222 4.527C883.974 287.151 882 291.923 882 297h38c0-5.077-1.974-9.849-5.566-13.434z"/><path d="M946.434 283.566a18.945 18.945 0 00-7.222-4.527c2.88-1.982 4.772-5.299 4.772-9.055 0-6.056-4.928-10.984-10.984-10.984s-10.984 4.928-10.984 10.984c0 3.748 1.892 7.073 4.772 9.055a18.945 18.945 0 00-7.222 4.527C915.974 287.151 914 291.923 914 297h38c0-5.077-1.974-9.849-5.566-13.434z"/><path d="M976.434 283.566a18.945 18.945 0 00-7.222-4.527c2.88-1.982 4.772-5.299 4.772-9.055 0-6.056-4.928-10.984-10.984-10.984s-10.984 4.928-10.984 10.984c0 3.748 1.892 7.073 4.772 9.055a18.945 18.945 0 00-7.222 4.527C945.974 287.151 944 291.923 944 297h38c0-5.077-1.974-9.849-5.566-13.434z"/><path d="M1008.43 283.566a18.908 18.908 0 00-7.22-4.527 10.976 10.976 0 004.77-9.055c0-6.056-4.92-10.984-10.98-10.984-6.056 0-10.984 4.928-10.984 10.984 0 3.748 1.892 7.073 4.772 9.055a18.945 18.945 0 00-7.222 4.527C977.974 287.151 976 291.923 976 297h38c0-5.077-1.97-9.849-5.57-13.434z"/></g></svg>