<svg width="575" height="57" fill="none" xmlns="http://www.w3.org/2000/svg"><path d="M233.146 47.382h-.897v-2.848h-12.401v2.848h-.923v-3.71h6.662v-2.478h.896v2.479h6.663v3.709zm-9.844-4.535l-.844.518c-.369-.498-.923-1.037-1.661-1.617l.826-.5c.551.415 1.11.948 1.679 1.599zm8.209-.976c-.481.469-1.184.95-2.11 1.441l-.773-.703a8.397 8.397 0 002.127-1.327l.756.59zm-.941 7.33h-9.052v-3.296h9.052v3.296zm-.931-.879V46.75h-7.181v1.573h7.181zm2.751 8.578h-.932v-.808h-10.802v.808h-.94v-6.512h12.674V56.9zm-.932-4.122V51.25h-4.922v1.53h4.922zm-5.871 0V51.25h-4.931v1.53h4.931zm5.871 2.435v-1.547h-4.922v1.547h4.922zm-5.871 0v-1.547h-4.931v1.547h4.931zm27.262-2.163h-6.645v3.85h-.967v-3.85h-7.919v-.966h2.602v-4.922h5.317v-3.2h-4.306c-.891 1.348-1.887 2.435-2.989 3.262l-.738-.668c1.553-1.078 2.983-2.921 4.289-5.529l.985.29c-.405.791-.721 1.36-.95 1.706h10.565v.94h-5.889v3.2h5.599v.94h-5.599v3.981h6.645v.967zm-7.612-.966v-3.982h-4.341v3.982h4.341zm14.421-9.114l-.738.58c-.592-.797-1.16-1.421-1.705-1.872l.721-.563a11.301 11.301 0 011.722 1.855zm12.226 1.151h-4.72v1.837h3.911v9.87c0 .223-.096.437-.29.642-.193.21-.389.334-.589.369-.199.04-.717.061-1.555.061l-.282-.931 1.433.035c.088 0 .179-.044.272-.132.1-.088.15-.176.15-.264v-2.786h-3.05v4.096h-.861v-4.096h-3.024V56.9h-.879V45.958h3.903v-1.837h-4.606v-.844h4.606V41.15h.861v2.127h4.72v.844zm-1.67 4.825v-2.083h-3.05v2.083h3.05zm-3.911 0v-2.083h-2.989v2.083h2.989zm3.911 3.006v-2.118h-3.05v2.118h3.05zm-3.911 0v-2.118h-2.989v2.118h2.989zm4.57-9.5l-.738.483a11.77 11.77 0 00-1.275-1.275l.791-.466c.387.305.794.724 1.222 1.257zm-8.947 9l-.659.65c-.393-.592-1.09-1.325-2.092-2.198v7.014h-.914v-6.926a13.76 13.76 0 01-1.53 1.582l-.668-.668c1.629-1.33 2.93-3.301 3.903-5.915h-3.709v-.905h4.737v.905c-.592 1.47-1.198 2.701-1.819 3.692v.14c.293.211.533.402.721.572.363-.493.764-1.158 1.204-1.996l.808.36a12.413 12.413 0 01-1.327 2.198c.545.55.993 1.049 1.345 1.494zm28.325-6.804c0 2.678-.053 5.127-.158 7.348-.1 2.22-.217 3.504-.352 3.85-.129.345-.331.603-.606.773-.276.17-.78.255-1.512.255-.375 0-.765-.015-1.169-.044l-.325-.914 2.057.018c.181 0 .357-.08.527-.238a.981.981 0 00.29-.641l.176-3.27c.093-1.916.14-3.99.14-6.222h-2.592c-.053 2.437-.387 4.523-1.002 6.257-.61 1.729-1.571 3.428-2.883 5.098l-.774-.589c1.354-1.805 2.309-3.516 2.866-5.133.556-1.623.835-3.5.835-5.633h-2.716v-.915h2.733c.07-1.365.091-2.525.062-3.48h.949c.017 1.02.006 2.18-.035 3.48h3.489zm-7.286 9.501c-2.485.78-5.066 1.483-7.743 2.11l-.326-.906c.475-.081.915-.19 1.319-.325v-13.35h5.871v11.75c.281-.064.574-.146.879-.245v.966zm-1.837-8.534V42.61h-3.964v3.006h3.964zm0 4.157v-3.27h-3.964v3.27h3.964zm0 3.947v-3.024h-3.964v4.122a100.81 100.81 0 003.964-1.098zm28.633-9.976c-.194 1.945-.686 3.759-1.477 5.44l-.826-.413c.563-1.154.981-2.528 1.257-4.122h-3.964a16.357 16.357 0 01-1.67 3.217l-.668-.703c1.096-1.611 1.948-3.662 2.558-6.152l.879.202c-.211.896-.463 1.74-.756 2.531h4.667zm-7.005-.105h-3.604v1.635h2.989v.887h-7.032v-.887h3.129v-1.635h-3.674v-.862h3.674v-1.643h.914v1.643h3.604v.862zm7.233 12.586l-.606.738c-1.612-1.6-2.704-3.466-3.279-5.599-.503 2.145-1.848 3.996-4.034 5.555l-.606-.66c1.383-.93 2.44-2.091 3.173-3.48.732-1.388 1.066-3.685 1.002-6.89h.896c-.047.68-.07 1.297-.07 1.854 0 1.817.307 3.416.923 4.799a11.578 11.578 0 002.601 3.683zm-7.866-7.779h-7.014v-.879h7.014v.88zm.835 2.39h-3.841v4.773c0 .276-.07.519-.211.73-.14.21-.293.349-.457.413-.164.07-.492.105-.984.105-.223 0-.445-.008-.668-.026l-.308-.914c.264.035.545.053.844.053.363 0 .601-.047.712-.14a.478.478 0 00.176-.396v-4.597h-3.903v-.879h8.64v.879zm-5.818 1.1c-.586 1.775-1.257 3.228-2.013 4.359l-.835-.413c.797-1.09 1.465-2.496 2.004-4.219l.844.273zm5.51 2.232l-.755.527c-.299-.656-.83-1.509-1.591-2.557l.764-.449c.545.64 1.073 1.465 1.582 2.479zm16.821-2.857l-.756.282a6.238 6.238 0 00-.255-.791c-1.67.515-3.296.9-4.878 1.151l-.325-.879c1.248-1.054 2.414-2.47 3.498-4.245a35.357 35.357 0 01-3.085.483l-.281-.86c1.125-1.284 2.115-3.068 2.97-5.353l.827.255c-.756 2.05-1.65 3.7-2.681 4.948a30.405 30.405 0 002.821-.501c.44-.72.847-1.5 1.222-2.338l.835.36c-1.5 3.041-3.12 5.397-4.861 7.067 1.032-.159 2.248-.463 3.648-.914-.059-.293-.208-.695-.448-1.205l.756-.36c.439.967.77 1.934.993 2.9zm8.244-.72h-7.708v-8.07h2.074c.264-.492.492-.955.686-1.388l.808.255a6.512 6.512 0 01-.501 1.134h4.641v8.068zm-.897-.87V43.4h-5.888v6.32h5.888zm-.527-1.46l-.536.669a19.89 19.89 0 00-1.169-1.257 20.176 20.176 0 01-1.406 1.582l-.633-.519a17.44 17.44 0 001.389-1.626 4.208 4.208 0 00-.809-.676c-.258.351-.63.77-1.116 1.257l-.615-.58c.287-.258.635-.654 1.045-1.187a5.94 5.94 0 00-.843-.607l.448-.685c.287.17.586.36.896.571.276-.428.534-.882.774-1.362l.738.343c-.176.404-.457.914-.844 1.529.27.205.534.425.791.66a15.52 15.52 0 001.134-2.102l.721.326a14.83 14.83 0 01-1.204 2.338c.258.257.671.7 1.239 1.327zm-.536 5.186l-.756.36c-.48-1.007-.943-1.81-1.389-2.408l.827-.36c.585.838 1.025 1.64 1.318 2.408zm1.345.721a5.164 5.164 0 01-.282 1.441c-.146.416-.363.698-.65.844-.287.153-.841.229-1.661.229-1.108 0-1.802-.088-2.083-.264-.276-.17-.413-.524-.413-1.064v-3.937h.914v4.034c0 .2.108.32.325.36.217.042.577.062 1.081.062.703 0 1.146-.056 1.327-.167.182-.117.317-.346.404-.685.094-.34.153-.762.176-1.266l.862.413zm2.004 1.24l-.774.562c-.363-1.149-.888-2.367-1.573-3.657l.738-.536c.697 1.342 1.234 2.552 1.609 3.63zm-7.849-3.288c-.381 1.74-.867 3.138-1.459 4.193l-.791-.414a13.046 13.046 0 001.38-4.016l.87.237zm-2.022 2.303l-.843.29a13.99 13.99 0 00-.572-2.215l.809-.29c.258.686.46 1.424.606 2.215zm-4.157-1.802c-.211 1.541-.559 2.962-1.046 4.263l-.861-.299a18.33 18.33 0 001.028-4.166l.879.202zm2.197 3.604l-.878.175c-.012-1.084-.194-2.326-.545-3.726l.852-.194c.322 1.131.513 2.38.571 3.745zm22.244-11.382h-.923v-1.53h-5.168v1.565h-.897v-2.461h3.296c-.258-.527-.463-.876-.615-1.046l.826-.325c.305.486.539.943.703 1.371h2.778v2.426zm8.349-2.356h-3.331a21.262 21.262 0 01-.571 2.198h3.023v8.762h-3.981l.536.545c-1.213 1.354-2.279 2.318-3.199 2.892l-.668-.66c1.037-.626 2.074-1.552 3.111-2.777h-1.96v-8.762h2.197c.317-.868.516-1.6.598-2.198h-3.366v-.861h7.611v.861zM346.1 47.19v-1.662h-4.333v1.661h4.333zm0 2.566v-1.758h-4.333v1.758h4.333zm0 2.865v-2.013h-4.333v2.013h4.333zm-5.942-2.11l-.466.721c-.931-.656-2.106-1.406-3.524-2.25a16.05 16.05 0 01-3.604 2.453l-.448-.721c1.248-.68 2.335-1.412 3.261-2.197a44.067 44.067 0 00-1.529-.844c-.364.434-.654.75-.87.95l-.572-.59c1.014-1.043 1.861-2.346 2.54-3.91l.826.29c-.152.339-.301.64-.448.904h3.454v.827a23.674 23.674 0 01-1.924 2.214c1.341.803 2.443 1.52 3.304 2.154zm-2.513-4.367h-2.778c-.123.228-.29.504-.501.826.557.275 1.119.58 1.688.914a14.566 14.566 0 001.591-1.74zm.966 10.705h-.914v-.897h-3.296v.897h-.931v-5.344h5.141v5.344zm-.914-1.776V52.4h-3.296v2.672h3.296zm10.275 1.187l-.642.72c-.709-.82-1.6-1.631-2.672-2.434l.563-.686c1.295.932 2.212 1.732 2.751 2.4zm9.376-10.785l-2.602.544 1.811 2.33-1.002.694-1.503-2.531-1.503 2.531-1.002-.694 1.802-2.33-2.628-.544.422-1.134 2.487.931-.202-2.9h1.248l-.211 2.9 2.505-.931.378 1.134z" fill="#000"/><path fill="#2A60A5" d="M1 .986h256v32H1z"/><path fill="#F29B09" d="M503 .986h27v32h-27z"/><path fill="#FBBE01" d="M552 .986h13v32h-13z"/><path fill="#CF9D51" d="M530 .986h22v32h-22z"/><path fill="#FFE365" d="M565 .986h9v32h-9z"/><path fill="#00A89C" d="M257 .986h246v32H257z"/><path d="M574 32.986v15.5h-8M1 32.986v15.5h8" stroke="#293840"/></svg>