<svg xmlns="http://www.w3.org/2000/svg" width="282" height="219" fill="none"><g opacity=".2"><path fill="#A3BAC1" d="M1 10C1 4.477 5.477 0 11 0h260c5.523 0 10 4.477 10 10v9H1v-9z"/><path fill="#293840" d="M115.744 3.687c-.282.779-.585 1.53-.909 2.255l-.492.992v8.763h-1.217V8.896a8.998 8.998 0 01-.684.827l-.615-1.272c1.048-1.258 1.939-2.962 2.673-5.113l1.244.349zm8.402 3.5h-7.308V6.052h4.607c.096-.465.155-.862.178-1.19h-4.252V3.755h5.626a20.853 20.853 0 01-.28 2.297h1.429v1.135zm-7.739 6.76h-1.223V5.553h1.223v8.394zm7.656-1.832h-3.349c-.593 1.686-1.8 2.915-3.623 3.685l-.786-.97c1.613-.657 2.654-1.562 3.124-2.715h-2.577v-1.12h2.925c.087-.397.148-.869.185-1.416h-1.531a5.934 5.934 0 01-.882 1.176l-.991-.684c.629-.656 1.171-1.542 1.627-2.659l1.114.349c-.041.2-.123.43-.246.69h4.614V9.58h-2.475c-.018.342-.075.814-.171 1.415h3.042v1.121zm.151 2.994l-.937.745c-.701-.829-1.615-1.636-2.741-2.42l.841-.854c1.208.843 2.153 1.686 2.837 2.53zm4.717-9.98l-.834.854a12.324 12.324 0 00-1.88-1.75l.854-.84c.889.72 1.509 1.298 1.86 1.736zm8.893 3.008h-2.755c-.364 0-.635-.087-.813-.26-.178-.173-.267-.492-.267-.957V3.618h3.446v2.577h-2.311v.725c0 .16.08.24.239.24h2.461v.977zM136.3 5.245v-.677h-1.176v.677h1.176zm-2.953 2.598l-3.589.704-.253-1.04c.178-.058.266-.197.266-.416V3.618h3.432V6.21h-2.31v1.12c.355-.05 1.164-.21 2.426-.478l.028.99zm-1.279-2.598v-.677h-1.175v.677h1.175zm6.146 9.167l-.349 1.176c-.902.023-1.886.034-2.953.034-1.157 0-2.103-.009-2.837-.027a7.91 7.91 0 01-2.201-.376 4.741 4.741 0 01-1.866-1.087c-.552.843-.966 1.417-1.244 1.723l-.951-.814c1.112-1.299 1.776-2.604 1.99-3.917h-1.723v-1.19c.647-.833 1.16-1.622 1.538-2.365h-1.681V6.387h3.028v1.182a24.179 24.179 0 01-1.47 2.42h1.511c.023.183.034.372.034.568 0 .83-.18 1.665-.54 2.508a4.53 4.53 0 001.524.985c.579.223 1.358.35 2.338.383.985.027 1.867.04 2.646.04 1.139 0 2.208-.02 3.206-.06zm-.219-2.283h-8.668V11.11h2.085v-.827h-1.777V9.244h1.777v-.683h1.19v.683h2.071v-.683h1.189v.683h1.764v1.04h-1.764v.826h2.133v1.019zm-3.322-1.019v-.827h-2.071v.827h2.071zm-1.648 1.914c-.615.388-1.478.734-2.59 1.04l-.869-.937a12.949 12.949 0 002.571-.882l.888.78zm4.868.24l-.766.909a17.032 17.032 0 00-2.693-.991l.758-.91c.78.224 1.68.554 2.701.992zm14.335 1.51l-.807 1.026c-2.725-2.065-4.519-4.232-5.38-6.501-.674 2.543-2.461 4.685-5.359 6.426l-.841-1.019c3.678-2.292 5.516-5.284 5.516-8.976V3.495h1.327v2.878c0 1.522.508 3.015 1.524 4.478 1.021 1.458 2.361 2.766 4.02 3.923zm13.904-9.994h-3.876v.773h3.179V8.52h-10.767V5.553h3.192V4.78h-3.923V3.7h12.195v1.08zm-5.093.773V4.78h-1.962v.773h1.962zm3.172 1.955v-.95h-1.955v.95h1.955zm-3.172 0v-.95h-1.962v.95h1.962zm-3.179 0v-.95h-1.962v.95h1.962zm7.363 2.775h-10.302V9.23h10.302v1.053zm.936 1.819h-5.448v3.643h-1.272v-3.643h-5.489v-1.08h12.209v1.08zm-7.67 1.011c-.902.948-2.201 1.791-3.896 2.53l-.684-1.005c1.645-.725 2.835-1.472 3.569-2.242l1.011.717zm7.786 1.648l-.813.936a31.794 31.794 0 00-3.835-2.42l.82-.868a22.609 22.609 0 013.828 2.352z"/></g><path fill="#293840" d="M128.53 120.711h-1.285v-.629h-9.591v-9.352h1.285v8.122h3.541v-10.357h1.231v10.357h3.534v-8.122h1.285v9.981zm14.711-2.687c-.036.926-.157 1.554-.362 1.887-.201.328-.558.524-1.073.588-.515.064-1.429.096-2.742.096-1.029 0-1.731-.021-2.105-.062-.374-.036-.665-.173-.875-.41-.21-.237-.314-.595-.314-1.073v-4.457l-.971.383-.151-1.265 1.122-.458v-3.138h1.216v2.618l1.641-.642v-3.596h1.217v3.09l2.912-1.189c-.046 2.383-.246 4.422-.602 6.118l-1.189-.363c.273-1.28.444-2.588.513-3.923l-1.634.663v5.25h-1.217v-4.738l-1.641.663v4.868c0 .268.101.417.301.444.201.027.841.041 1.921.041 1.103 0 1.825-.009 2.167-.027.342-.019.535-.18.581-.486.05-.31.082-.756.096-1.34l1.189.458zm-8.087.055c-1.49.757-2.793 1.331-3.91 1.723l-.321-1.176c.497-.16 1.005-.355 1.524-.588v-5.147h-1.34v-1.176h1.34v-3.206h1.251v3.206h1.258v1.176h-1.258v4.573c.465-.196.916-.415 1.354-.656l.102 1.271zm22.019-8.1h-4.874a9.407 9.407 0 01-.444 1.114h4.299v5.284h-3.308v3.158c0 .264-.078.49-.233.677-.155.187-.335.31-.54.369-.205.064-.597.096-1.176.096-.246 0-.492-.007-.738-.021l-.376-1.148c.953 0 1.493-.021 1.62-.062.132-.045.199-.173.199-.383v-2.686h-3.391v-5.284h2.358c.146-.306.294-.677.445-1.114h-3.835v4.518c0 2.648-.454 4.753-1.361 6.316l-1.073-.745c.802-1.449 1.203-3.39 1.203-5.824v-5.414h11.211l.014 1.149zm-2.283 3.233V112.2h-5.401v1.012h5.401zm0 2.071v-.984h-5.401v.984h5.401zm2.413 4.211l-.971.8c-.624-.957-1.449-1.905-2.475-2.844l.964-.724a15.54 15.54 0 012.482 2.768zm-6.809-2.181c-.629 1.062-1.511 2.033-2.645 2.913l-.978-.8c1.221-.962 2.085-1.862 2.591-2.7l1.032.587zm12.339-8.64c-.15.442-.381 1.018-.69 1.729l-.458 1.033v9.235h-1.279v-7c-.332.529-.64.941-.923 1.237l-.67-1.346c1.012-1.185 1.953-2.922 2.824-5.209l1.196.321zm8.272 11.847h-8.86v-1.204h3.794v-3.11h-3.254v-1.203h3.254v-2.789h-3.561v-1.203h3.561a10.964 10.964 0 00-.786-2.256l1.271-.349c.392.925.677 1.794.855 2.605h3.596v1.203h-3.637v2.789h3.288v1.203h-3.288v3.11h3.767v1.204zm14.17-2.564c-.51 1.859-1.28 2.789-2.31 2.789-.711 0-1.486-.451-2.324-1.353-.839-.903-1.443-2.183-1.812-3.842h-3.732v3.623a40.54 40.54 0 003.732-.978l.116 1.285c-1.75.515-3.459.926-5.127 1.231l-.417-1.258c.26-.1.39-.296.39-.588v-10.062h10.206v3.903h-4.17c-.014.588.018 1.13.096 1.627h4.929v1.217h-4.69c.251 1.121.681 2.051 1.292 2.789.615.738 1.105 1.107 1.47 1.107a.582.582 0 00.348-.102c.096-.069.235-.306.417-.711a7.1 7.1 0 00.452-1.361l1.134.684zm-2.577-6.48v-1.443h-7.601v1.443h7.601zm-4.06 2.857a20.165 20.165 0 01-.144-1.627h-3.397v1.627h3.541z" opacity=".2"/><g fill="#293840" opacity=".2"><path d="M205.96 134.007a5.216 5.216 0 00-1.994-1.25 3.035 3.035 0 001.318-2.501 3.037 3.037 0 00-3.034-3.034 3.037 3.037 0 00-3.033 3.034c0 1.035.522 1.953 1.318 2.501a5.227 5.227 0 00-1.995 1.25 5.206 5.206 0 00-1.537 3.71h10.495c0-1.402-.545-2.72-1.538-3.71z"/><path d="M213.625 134.007a4.902 4.902 0 00-1.884-1.25 3.087 3.087 0 001.245-2.501c0-1.673-1.285-3.034-2.865-3.034-1.58 0-2.865 1.361-2.865 3.034 0 1.035.493 1.953 1.245 2.501a4.902 4.902 0 00-1.884 1.25c-.937.99-1.452 2.308-1.452 3.71h9.912c0-1.402-.515-2.72-1.452-3.71z"/><path d="M222.287 134.007a5.227 5.227 0 00-1.995-1.25 3.035 3.035 0 00-1.715-5.535 3.037 3.037 0 00-3.034 3.034c0 1.035.523 1.953 1.318 2.501a5.227 5.227 0 00-1.995 1.25 5.206 5.206 0 00-1.537 3.71h10.495c0-1.402-.545-2.72-1.537-3.71z"/></g><path fill="#293840" d="M210.605 116.377h-5.449v4.368h-1.271v-4.368h-5.462v-1.237h5.462v-5.025h-5.1v-1.23h11.526v1.23h-5.155v5.025h5.449v1.237zm-8.176-2.311l-1.19.547c-.405-1.021-1.007-2.119-1.804-3.295l1.175-.588a19.055 19.055 0 011.819 3.336zm7.307-2.734c-.606 1.326-1.269 2.434-1.989 3.322l-1.148-.574c.656-.793 1.319-1.9 1.989-3.322l1.148.574zm15.005 6.692c-.036.926-.157 1.554-.362 1.887-.201.328-.558.524-1.073.588-.515.064-1.429.096-2.742.096-1.029 0-1.731-.021-2.105-.062-.374-.036-.665-.173-.875-.41-.21-.237-.314-.595-.314-1.073v-4.457l-.971.383-.151-1.265 1.122-.458v-3.138h1.216v2.618l1.641-.642v-3.596h1.217v3.09l2.912-1.189c-.046 2.383-.246 4.422-.602 6.118l-1.189-.363c.273-1.28.444-2.588.513-3.923l-1.634.663v5.25h-1.217v-4.738l-1.641.663v4.868c0 .268.101.417.301.444.201.027.841.041 1.921.041 1.103 0 1.825-.009 2.167-.027.342-.019.535-.18.581-.486.05-.31.082-.756.096-1.34l1.189.458zm-8.087.055c-1.49.757-2.793 1.331-3.91 1.723l-.321-1.176c.497-.16 1.005-.355 1.524-.588v-5.147h-1.34v-1.176h1.34v-3.206h1.251v3.206h1.258v1.176h-1.258v4.573c.465-.196.916-.415 1.354-.656l.102 1.271zm22.019-8.1h-4.874a9.407 9.407 0 01-.444 1.114h4.299v5.284h-3.308v3.158c0 .264-.078.49-.233.677-.155.187-.335.31-.54.369-.205.064-.597.096-1.176.096-.246 0-.492-.007-.738-.021l-.376-1.148c.953 0 1.493-.021 1.62-.062.132-.045.199-.173.199-.383v-2.686h-3.391v-5.284h2.358c.146-.306.294-.677.445-1.114h-3.835v4.518c0 2.648-.454 4.753-1.361 6.316l-1.073-.745c.802-1.449 1.203-3.39 1.203-5.824v-5.414h11.211l.014 1.149zm-2.283 3.233V112.2h-5.401v1.012h5.401zm0 2.071v-.984h-5.401v.984h5.401zm2.413 4.211l-.971.8c-.624-.957-1.449-1.905-2.475-2.844l.964-.724a15.54 15.54 0 012.482 2.768zm-6.809-2.181c-.629 1.062-1.511 2.033-2.645 2.913l-.978-.8c1.221-.962 2.085-1.862 2.591-2.7l1.032.587zm12.339-8.64c-.15.442-.381 1.018-.69 1.729l-.458 1.033v9.235h-1.279v-7c-.332.529-.64.941-.923 1.237l-.67-1.346c1.012-1.185 1.953-2.922 2.824-5.209l1.196.321zm8.272 11.847h-8.86v-1.204h3.794v-3.11h-3.254v-1.203h3.254v-2.789h-3.561v-1.203h3.561a10.964 10.964 0 00-.786-2.256l1.271-.349c.392.925.677 1.794.855 2.605h3.596v1.203h-3.637v2.789h3.288v1.203h-3.288v3.11h3.767v1.204zm14.17-2.564c-.51 1.859-1.28 2.789-2.31 2.789-.711 0-1.486-.451-2.324-1.353-.839-.903-1.443-2.183-1.812-3.842h-3.732v3.623a40.54 40.54 0 003.732-.978l.116 1.285c-1.75.515-3.459.926-5.127 1.231l-.417-1.258c.26-.1.39-.296.39-.588v-10.062h10.206v3.903h-4.17c-.014.588.018 1.13.096 1.627h4.929v1.217h-4.69c.251 1.121.681 2.051 1.292 2.789.615.738 1.105 1.107 1.47 1.107a.582.582 0 00.348-.102c.096-.069.235-.306.417-.711a7.1 7.1 0 00.452-1.361l1.134.684zm-2.577-6.48v-1.443h-7.601v1.443h7.601zm-4.06 2.857a20.165 20.165 0 01-.144-1.627h-3.397v1.627h3.541z" opacity=".2"/><g opacity=".2"><path fill="#293840" d="M21.16 50.362H10.884c-.406 0-.72-.127-.944-.383-.218-.26-.328-.594-.328-1.004V39.89h-.65v-1.074H21.01v1.074H10.83v9.003c0 .09.041.18.123.266.087.087.176.13.267.13h9.94v1.073zm-2.14-6.521h-6.221v-3.179h6.22v3.179zm-1.245-1.04v-1.086h-3.711v1.087h3.711zm2.502 5.66h-3.944v-3.896h3.944v3.897zm-1.162-1.08v-1.763h-1.62v1.764h1.62zm-3.595 1.08h-3.883v-3.896h3.883v3.897zm-1.163-1.066v-1.777H12.82v1.777h1.538zm20.358-7.936l-.773.786a7.038 7.038 0 00-1.216-1.012l.697-.8c.41.238.84.58 1.292 1.026zm.56 8.593c-.09.797-.26 1.449-.505 1.955-.242.51-.563.766-.964.766-.383 0-.711-.199-.985-.595a6.708 6.708 0 01-.738-1.45 21.936 21.936 0 01-1.976 2.072l-.881-.814c1.048-.902 1.873-1.77 2.474-2.604a32.597 32.597 0 01-.56-5.838h-4.492v-1.135h4.423a66.655 66.655 0 01-.013-1.135c0-.291.004-.558.013-.8l1.176.049c-.009.4-.014.767-.014 1.1 0 .324.005.586.014.786h2.871v1.135h-2.83c-.009 1.14.098 2.582.321 4.327.52-1.08.928-2.201 1.224-3.363l1.114.41c-.588 1.978-1.264 3.527-2.03 4.648.114.47.258.882.43 1.238.174.35.313.526.418.526.054 0 .13-.146.225-.437.1-.297.173-.73.219-1.3l1.066.459zm-8.558-.417c-.925.615-2.083 1.24-3.473 1.873l-.43-1.135c.464-.16.954-.378 1.47-.656V43.17h-1.177v-1.162h1.176v-3.514h1.203v3.514h1.067v1.162h-1.067v3.903c.365-.205.734-.437 1.108-.697l.123 1.258zm3.794-1.23h-3.528v-4.007h3.528v4.006zm-1.19-1.094v-1.819h-1.135v1.819h1.135zm1.682 2.522c-.957.501-2.39 1.028-4.3 1.58l-.24-1.19c1.7-.401 3.186-.91 4.458-1.525l.082 1.135zm18.102 2.502H36.937v-1.244h3.554c-.437-2.498-1.02-4.649-1.75-6.453l.97-.677H37.43v-1.258h5.079a10.951 10.951 0 00-.923-1.948l1.347-.458c.41.766.763 1.568 1.06 2.406h4.75v1.258h-2.495l1.026.663c-.27 1.887-.825 4.042-1.669 6.467h3.5v1.244zm-3.022-8.374h-6.166c.797 2.12 1.42 4.496 1.866 7.13h2.475c.92-2.63 1.529-5.006 1.825-7.13zm17.063 2.454l-.76.937c-1.371-.748-2.957-1.388-4.757-1.921v1.21h-1.19v-1.764c-1.303 1.003-2.932 1.85-4.887 2.543l-.697-1.019c1.923-.647 3.468-1.385 4.634-2.215h-4.382v-1.162h5.333v-.779c-1.427.073-2.762.11-4.006.11l-.404-1.149c.447.01.884.014 1.313.014 3.04 0 5.72-.253 8.039-.76l.731 1.013c-.92.227-2.415.45-4.484.67v.881h5.38l-.014 1.163H57.63v.157c2.165.551 4.004 1.242 5.517 2.071zm-.123 2.632h-3.22a7.185 7.185 0 01-1.135 1.401c2.21.61 3.646 1.048 4.307 1.313l-.588 1.066c-1.185-.492-2.803-.996-4.854-1.51-1.43.856-3.523 1.326-6.275 1.408l-.43-1.156c2 .019 3.634-.203 4.9-.663-.988-.2-1.918-.358-2.788-.471.341-.356.706-.819 1.093-1.388h-2.98v-1.149h3.719c.255-.387.498-.797.73-1.23l1.272.267c-.15.3-.337.622-.56.963h2.844l.39-.813 1.12.335a2.337 2.337 0 01-.191.478h2.645v1.149zm-4.724 0h-2.796a5.258 5.258 0 01-.492.684l2.215.382c.35-.246.708-.601 1.073-1.066zm13.378-7.007L67.637 50h-1.675l3.896-9.208h-5.195v-1.38h7.014v.628zm1.675 8.025a3.958 3.958 0 002.46.828c.68 0 1.222-.165 1.627-.493.406-.332.609-.781.609-1.346 0-1.244-.907-1.867-2.72-1.867h-.903v-1.291h.847c1.618 0 2.427-.581 2.427-1.744 0-1.084-.617-1.627-1.852-1.627-.73 0-1.427.247-2.092.739v-1.436c.697-.396 1.522-.595 2.475-.595.911 0 1.656.233 2.235.698.583.46.875 1.082.875 1.866 0 1.39-.707 2.276-2.12 2.66v.026c.748.073 1.347.342 1.799.807.45.46.676 1.028.676 1.702 0 .985-.357 1.762-1.073 2.331-.71.57-1.638.855-2.782.855-1.035 0-1.864-.185-2.488-.554v-1.559zm20.446-7.375H83.83v4.245c0 2.542-.406 4.484-1.217 5.824l-1.025-.718c.674-1.176 1.012-2.992 1.012-5.448v-4.97h5.01c-.105-.255-.291-.554-.56-.895l1.312-.418c.278.438.531.875.76 1.313h4.675v1.067zm-.11 2.283h-2.105v1.948H89.43v.991h3.739v2.646c0 .419-.11.774-.328 1.066-.214.287-.713.43-1.497.43-.155 0-.378-.004-.67-.013l-.349-1.162c.301.027.543.04.725.04.364 0 .608-.031.731-.095s.185-.184.185-.362v-1.47H89.43v3.678h-1.176v-3.678H85.73v3.063l-1.189.013v-4.156h3.712v-.991h-2.126v-1.948h-1.88v-1.067h1.866v-.779h1.162v.78h3.118v-.78h1.189v.78h2.106v1.066zm-3.294.936v-.936h-3.118v.936h3.118z"/><rect width="98.5" height="20.5" x="2.75" y="34.75" stroke="#293840" stroke-width="1.5" rx="9.25"/></g><g opacity=".2"><rect width="89.5" height="20.5" x="2.75" y="109.75" stroke="#293840" stroke-width="1.5" rx="9.25"/><path fill="#293840" d="M20.003 114.979h-4.874a9.343 9.343 0 01-.444 1.114h4.3v5.284h-3.31v3.158c0 .264-.077.49-.232.677-.155.187-.335.31-.54.369-.205.064-.597.096-1.176.096-.246 0-.492-.007-.738-.021l-.376-1.148c.953 0 1.493-.021 1.62-.062.133-.045.199-.173.199-.383v-2.686H11.04v-5.284h2.358c.146-.306.294-.677.445-1.114h-3.835v4.518c0 2.648-.454 4.753-1.36 6.316l-1.074-.745c.802-1.449 1.203-3.39 1.203-5.824v-5.414H19.99l.014 1.149zm-2.283 3.233V117.2h-5.4v1.012h5.4zm0 2.071v-.984h-5.4v.984h5.4zm2.413 4.211l-.97.8c-.625-.957-1.45-1.905-2.476-2.844l.964-.724a15.526 15.526 0 012.482 2.768zm-6.809-2.181c-.629 1.062-1.51 2.033-2.645 2.913l-.978-.8c1.221-.962 2.085-1.862 2.591-2.7l1.032.587zm20.782.643c-.51 1.859-1.281 2.789-2.311 2.789-.711 0-1.486-.451-2.324-1.353-.839-.903-1.443-2.183-1.812-3.842h-3.732v3.623a40.522 40.522 0 003.732-.978l.116 1.285c-1.75.515-3.459.926-5.127 1.231l-.417-1.258c.26-.1.39-.296.39-.588v-10.062h10.206v3.903h-4.17a9.21 9.21 0 00.096 1.627h4.929v1.217h-4.69c.25 1.121.681 2.051 1.292 2.789.615.738 1.105 1.107 1.47 1.107a.586.586 0 00.348-.102c.096-.069.235-.306.418-.711a7.1 7.1 0 00.45-1.361l1.136.684zm-2.578-6.48v-1.443h-7.601v1.443h7.601zm-4.06 2.857a20.224 20.224 0 01-.144-1.627h-3.397v1.627h3.54zm20.467 6.002H35.767v-1.244h3.554c-.437-2.498-1.02-4.649-1.75-6.453l.971-.677h-2.283v-1.258h5.079a10.93 10.93 0 00-.923-1.948l1.347-.458c.41.766.763 1.568 1.06 2.406h4.75v1.258h-2.495l1.026.663c-.27 1.887-.825 4.042-1.668 6.467h3.5v1.244zm-3.022-8.374h-6.166c.798 2.119 1.42 4.496 1.866 7.13h2.475c.92-2.63 1.529-5.006 1.825-7.13zm17.063 2.454l-.76.937c-1.37-.748-2.957-1.388-4.757-1.921v1.21h-1.19v-1.764c-1.303 1.003-2.932 1.85-4.887 2.543l-.697-1.019c1.923-.647 3.468-1.385 4.634-2.214h-4.382v-1.163h5.333v-.779c-1.427.073-2.762.11-4.006.11l-.404-1.149c.447.009.885.014 1.313.014 3.04 0 5.72-.253 8.039-.759l.731 1.012c-.92.228-2.415.451-4.484.67v.881h5.38l-.014 1.163H56.46v.157c2.165.551 4.004 1.242 5.517 2.071zm-.123 2.632h-3.22a7.195 7.195 0 01-1.135 1.401c2.21.611 3.646 1.048 4.307 1.313l-.588 1.066c-1.185-.492-2.803-.996-4.854-1.511-1.43.857-3.523 1.327-6.275 1.409l-.43-1.156c2 .019 3.634-.202 4.9-.663a40.94 40.94 0 00-2.788-.471c.341-.356.706-.818 1.093-1.388h-2.98v-1.149h3.719c.255-.387.499-.797.731-1.23l1.272.267c-.15.3-.338.622-.561.963h2.844l.39-.813 1.12.335a2.324 2.324 0 01-.191.478h2.645v1.149zm-4.724 0h-2.796a5.213 5.213 0 01-.492.683l2.215.383c.35-.246.708-.601 1.073-1.066zm12.79-6.084a3.583 3.583 0 00-1.736-.438c-.912 0-1.632.388-2.16 1.163-.525.77-.784 1.765-.78 2.987h.034c.497-.907 1.28-1.361 2.352-1.361.911 0 1.636.304 2.174.91.538.601.806 1.39.806 2.365 0 1.03-.323 1.887-.97 2.57-.643.679-1.468 1.019-2.475 1.019-1.144 0-2.021-.431-2.632-1.292-.61-.866-.916-2.056-.916-3.569 0-1.791.397-3.251 1.19-4.381.793-1.135 1.895-1.703 3.308-1.703.761 0 1.363.101 1.805.301v1.429zm-4.6 5.564c0 .661.172 1.222.519 1.682.346.456.797.684 1.353.684.552 0 .99-.208 1.313-.622.328-.415.492-.928.492-1.539 0-.688-.155-1.216-.465-1.586-.31-.373-.76-.56-1.353-.56-.529 0-.971.187-1.326.56-.356.374-.534.834-.534 1.381zm18.97-5.838H74.32v4.246c0 2.543-.405 4.484-1.216 5.824l-1.026-.718c.675-1.176 1.012-2.992 1.012-5.448v-4.97h5.01c-.104-.255-.291-.554-.56-.895l1.313-.417c.278.437.53.875.758 1.312h4.676v1.066zm-.11 2.284h-2.106v1.948H79.92v.991h3.74v2.646c0 .419-.11.774-.329 1.066-.214.287-.713.431-1.497.431-.155 0-.378-.005-.67-.014l-.349-1.162c.301.027.543.041.725.041.365 0 .608-.032.731-.096s.185-.184.185-.362v-1.47H79.92v3.678h-1.176v-3.678h-2.522v3.063l-1.19.013v-4.156h3.712v-.991h-2.126v-1.948h-1.88v-1.067h1.867v-.779h1.162v.779h3.117v-.779h1.19v.779h2.105v1.067zm-3.295.936v-.936h-3.117v.936h3.117z"/></g><path fill="#A3BAC1" d="M1 168c0-5.523 4.477-10 10-10h260c5.523 0 10 4.477 10 10v9H1v-9z"/><path fill="#293840" d="M127.05 198.803a5.223 5.223 0 00-1.994-1.25 3.033 3.033 0 10-3.431 0 5.227 5.227 0 00-1.995 1.25 5.206 5.206 0 00-1.537 3.71h10.495c0-1.402-.546-2.72-1.538-3.71z"/><path fill="#293840" d="M134.716 198.803a4.902 4.902 0 00-1.884-1.25 3.086 3.086 0 001.245-2.501c0-1.672-1.286-3.034-2.865-3.034-1.58 0-2.865 1.362-2.865 3.034 0 1.035.493 1.954 1.244 2.501-.7.256-1.343.678-1.883 1.25-.937.99-1.452 2.308-1.452 3.71h9.912c0-1.402-.515-2.72-1.452-3.71z"/><path fill="#293840" d="M143.377 198.803a5.216 5.216 0 00-1.994-1.25 3.033 3.033 0 10-3.431 0 5.227 5.227 0 00-1.995 1.25 5.206 5.206 0 00-1.537 3.71h10.495c0-1.402-.546-2.72-1.538-3.71z"/><path fill="#293840" d="M151.453 198.803a5.563 5.563 0 00-2.105-1.25c.839-.547 1.391-1.464 1.391-2.501 0-1.672-1.436-3.034-3.202-3.034s-3.202 1.362-3.202 3.034c0 1.035.552 1.954 1.391 2.501a5.563 5.563 0 00-2.105 1.25c-1.047.99-1.623 2.308-1.623 3.71h11.078c0-1.402-.576-2.72-1.623-3.71z"/><path fill="#293840" d="M159.118 198.803a5.227 5.227 0 00-1.995-1.25 3.03 3.03 0 001.318-2.501 3.038 3.038 0 00-3.033-3.034 3.038 3.038 0 00-3.034 3.034c0 1.035.523 1.954 1.318 2.501a5.227 5.227 0 00-1.995 1.25 5.206 5.206 0 00-1.537 3.71h10.495c0-1.402-.545-2.72-1.537-3.71z"/><path fill="#293840" d="M166.783 198.803a4.902 4.902 0 00-1.884-1.25 3.083 3.083 0 001.245-2.501c0-1.672-1.285-3.034-2.865-3.034-1.58 0-2.865 1.362-2.865 3.034 0 1.035.494 1.954 1.245 2.501a4.902 4.902 0 00-1.884 1.25c-.937.99-1.452 2.308-1.452 3.71h9.912c0-1.402-.515-2.72-1.452-3.71z"/><path fill="#293840" d="M175.443 198.803a5.227 5.227 0 00-1.995-1.25 3.03 3.03 0 001.318-2.501 3.038 3.038 0 00-3.033-3.034 3.038 3.038 0 00-3.034 3.034c0 1.035.523 1.954 1.318 2.501a5.223 5.223 0 00-1.994 1.25 5.207 5.207 0 00-1.538 3.71h10.495c0-1.402-.545-2.72-1.537-3.71z"/><path fill="#293840" d="M183.606 198.803a5.223 5.223 0 00-1.994-1.25 3.033 3.033 0 10-3.432 0 5.223 5.223 0 00-1.994 1.25 5.207 5.207 0 00-1.538 3.71h10.495c0-1.402-.545-2.72-1.537-3.71z"/><path fill="#293840" d="M191.27 198.803a4.898 4.898 0 00-1.883-1.25 3.086 3.086 0 001.245-2.501c0-1.672-1.286-3.034-2.866-3.034-1.579 0-2.865 1.362-2.865 3.034 0 1.035.494 1.954 1.245 2.501a4.91 4.91 0 00-1.884 1.25c-.936.99-1.451 2.308-1.451 3.71h9.911c0-1.402-.515-2.72-1.452-3.71z"/><path fill="#293840" d="M199.347 198.803a5.223 5.223 0 00-1.994-1.25 3.033 3.033 0 10-3.432 0 5.223 5.223 0 00-1.994 1.25 5.206 5.206 0 00-1.537 3.71h10.494c0-1.402-.545-2.72-1.537-3.71z"/><path fill="#293840" d="M207.845 198.803a5.223 5.223 0 00-1.994-1.25 3.033 3.033 0 10-3.432 0 5.223 5.223 0 00-1.994 1.25 5.206 5.206 0 00-1.537 3.71h10.495c0-1.402-.546-2.72-1.538-3.71z"/><path fill="#293840" d="M215.511 198.803a4.902 4.902 0 00-1.884-1.25 3.086 3.086 0 001.245-2.501c0-1.672-1.286-3.034-2.865-3.034-1.58 0-2.865 1.362-2.865 3.034 0 1.035.493 1.954 1.244 2.501-.7.256-1.343.678-1.883 1.25-.937.99-1.452 2.308-1.452 3.71h9.912c0-1.402-.515-2.72-1.452-3.71z"/><path fill="#293840" d="M224.172 198.803a5.223 5.223 0 00-1.994-1.25 3.033 3.033 0 10-3.431 0 5.227 5.227 0 00-1.995 1.25 5.206 5.206 0 00-1.537 3.71h10.495c0-1.402-.546-2.72-1.538-3.71z"/><path fill="#293840" d="M232.248 198.803a5.57 5.57 0 00-2.105-1.25c.839-.547 1.391-1.464 1.391-2.501 0-1.672-1.437-3.034-3.202-3.034-1.766 0-3.202 1.362-3.202 3.034 0 1.035.551 1.954 1.391 2.501a5.563 5.563 0 00-2.105 1.25c-1.047.99-1.623 2.308-1.623 3.71h11.078c0-1.402-.576-2.72-1.623-3.71z"/><path fill="#293840" d="M239.913 198.803a5.227 5.227 0 00-1.995-1.25 3.033 3.033 0 10-3.431 0 5.227 5.227 0 00-1.995 1.25 5.206 5.206 0 00-1.537 3.71h10.495c0-1.402-.545-2.72-1.537-3.71z"/><path fill="#293840" d="M247.578 198.803a4.902 4.902 0 00-1.884-1.25 3.083 3.083 0 001.245-2.501c0-1.672-1.285-3.034-2.865-3.034-1.58 0-2.865 1.362-2.865 3.034 0 1.035.494 1.954 1.245 2.501a4.902 4.902 0 00-1.884 1.25c-.937.99-1.452 2.308-1.452 3.71h9.912c0-1.402-.515-2.72-1.452-3.71z"/><path fill="#293840" d="M256.239 198.803a5.227 5.227 0 00-1.995-1.25 3.03 3.03 0 001.318-2.501 3.038 3.038 0 00-3.033-3.034 3.038 3.038 0 00-3.034 3.034c0 1.035.523 1.954 1.318 2.501a5.216 5.216 0 00-1.994 1.25 5.207 5.207 0 00-1.538 3.71h10.495c0-1.402-.545-2.72-1.537-3.71z"/><path fill="#293840" d="M264.401 198.803a5.227 5.227 0 00-1.995-1.25 3.03 3.03 0 001.318-2.501 3.038 3.038 0 00-3.033-3.034 3.038 3.038 0 00-3.034 3.034c0 1.035.523 1.954 1.318 2.501a5.223 5.223 0 00-1.994 1.25 5.207 5.207 0 00-1.538 3.71h10.495c0-1.402-.545-2.72-1.537-3.71z"/><path fill="#293840" d="M272.065 198.803a4.906 4.906 0 00-1.883-1.25 3.085 3.085 0 001.244-2.501c0-1.672-1.285-3.034-2.865-3.034-1.579 0-2.865 1.362-2.865 3.034 0 1.035.494 1.954 1.245 2.501a4.91 4.91 0 00-1.884 1.25c-.937.99-1.452 2.308-1.452 3.71h9.912c0-1.402-.515-2.72-1.452-3.71z"/><path fill="#293840" d="M280.143 198.803a5.223 5.223 0 00-1.994-1.25 3.033 3.033 0 10-3.432 0 5.223 5.223 0 00-1.994 1.25 5.206 5.206 0 00-1.537 3.71h10.494c0-1.402-.545-2.72-1.537-3.71zM127.05 215.29a5.223 5.223 0 00-1.994-1.25 3.035 3.035 0 001.318-2.501 3.037 3.037 0 00-3.034-3.034 3.037 3.037 0 00-3.033 3.034c0 1.035.522 1.953 1.318 2.501a5.227 5.227 0 00-1.995 1.25 5.206 5.206 0 00-1.537 3.71h10.495c0-1.402-.546-2.72-1.538-3.71z"/><path fill="#293840" d="M134.716 215.29a4.902 4.902 0 00-1.884-1.25 3.087 3.087 0 001.245-2.501c0-1.673-1.286-3.034-2.865-3.034-1.58 0-2.865 1.361-2.865 3.034a3.09 3.09 0 001.244 2.501c-.7.256-1.343.678-1.883 1.25-.937.99-1.452 2.308-1.452 3.71h9.912c0-1.402-.515-2.72-1.452-3.71z"/><path fill="#293840" d="M143.377 215.29a5.216 5.216 0 00-1.994-1.25 3.035 3.035 0 001.318-2.501 3.037 3.037 0 00-3.034-3.034 3.037 3.037 0 00-3.033 3.034c0 1.035.522 1.953 1.318 2.501a5.227 5.227 0 00-1.995 1.25 5.206 5.206 0 00-1.537 3.71h10.495c0-1.402-.546-2.72-1.538-3.71z"/><path fill="#293840" d="M151.453 215.29a5.563 5.563 0 00-2.105-1.25c.839-.548 1.391-1.464 1.391-2.501 0-1.673-1.436-3.034-3.202-3.034s-3.202 1.361-3.202 3.034c0 1.035.552 1.953 1.391 2.501a5.563 5.563 0 00-2.105 1.25c-1.047.99-1.623 2.308-1.623 3.71h11.078c0-1.402-.576-2.72-1.623-3.71z"/><path fill="#293840" d="M159.118 215.29a5.227 5.227 0 00-1.995-1.25 3.032 3.032 0 00-1.715-5.535 3.037 3.037 0 00-3.034 3.034c0 1.035.523 1.953 1.318 2.501a5.227 5.227 0 00-1.995 1.25 5.206 5.206 0 00-1.537 3.71h10.495c0-1.402-.545-2.72-1.537-3.71z"/><path fill="#293840" d="M166.783 215.29a4.902 4.902 0 00-1.884-1.25 3.085 3.085 0 001.245-2.501c0-1.673-1.285-3.034-2.865-3.034-1.58 0-2.865 1.361-2.865 3.034a3.09 3.09 0 001.245 2.501 4.902 4.902 0 00-1.884 1.25c-.937.99-1.452 2.308-1.452 3.71h9.912c0-1.402-.515-2.72-1.452-3.71z"/><path fill="#293840" d="M175.443 215.29a5.227 5.227 0 00-1.995-1.25 3.032 3.032 0 00-1.715-5.535 3.037 3.037 0 00-3.034 3.034c0 1.035.523 1.953 1.318 2.501a5.223 5.223 0 00-1.994 1.25 5.207 5.207 0 00-1.538 3.71h10.495c0-1.402-.545-2.72-1.537-3.71z"/><path fill="#293840" d="M183.606 215.29a5.223 5.223 0 00-1.994-1.25 3.035 3.035 0 001.318-2.501 3.038 3.038 0 00-3.034-3.034 3.037 3.037 0 00-3.034 3.034c0 1.035.523 1.953 1.318 2.501a5.223 5.223 0 00-1.994 1.25 5.207 5.207 0 00-1.538 3.71h10.495c0-1.402-.545-2.72-1.537-3.71z"/><path fill="#293840" d="M191.27 215.29a4.898 4.898 0 00-1.883-1.25 3.087 3.087 0 001.245-2.501c0-1.673-1.286-3.034-2.866-3.034-1.579 0-2.865 1.361-2.865 3.034a3.09 3.09 0 001.245 2.501 4.91 4.91 0 00-1.884 1.25c-.936.99-1.451 2.308-1.451 3.71h9.911c0-1.402-.515-2.72-1.452-3.71z"/><path fill="#293840" d="M199.347 215.29a5.223 5.223 0 00-1.994-1.25 3.035 3.035 0 001.318-2.501 3.037 3.037 0 00-3.034-3.034 3.037 3.037 0 00-3.034 3.034c0 1.035.523 1.953 1.318 2.501a5.223 5.223 0 00-1.994 1.25 5.206 5.206 0 00-1.537 3.71h10.494c0-1.402-.545-2.72-1.537-3.71z"/><path fill="#293840" d="M205.906 215.29a5.227 5.227 0 00-1.995-1.25 3.032 3.032 0 00-1.715-5.535 3.037 3.037 0 00-3.034 3.034c0 1.035.523 1.953 1.318 2.501a5.216 5.216 0 00-1.994 1.25 5.203 5.203 0 00-1.538 3.71h10.495c0-1.402-.545-2.72-1.537-3.71z"/><path fill="#293840" d="M213.571 215.29a4.906 4.906 0 00-1.883-1.25 3.087 3.087 0 001.244-2.501c0-1.673-1.285-3.034-2.865-3.034-1.579 0-2.865 1.361-2.865 3.034a3.09 3.09 0 001.245 2.501 4.902 4.902 0 00-1.884 1.25c-.937.99-1.452 2.308-1.452 3.71h9.912c0-1.402-.515-2.72-1.452-3.71z"/><path fill="#293840" d="M222.233 215.29a5.227 5.227 0 00-1.995-1.25 3.032 3.032 0 00-1.715-5.535 3.037 3.037 0 00-3.034 3.034c0 1.035.523 1.953 1.318 2.501a5.223 5.223 0 00-1.994 1.25 5.207 5.207 0 00-1.538 3.71h10.495c0-1.402-.545-2.72-1.537-3.71z"/><path fill="#293840" d="M230.309 215.29a5.566 5.566 0 00-2.106-1.25c.84-.548 1.392-1.464 1.392-2.501 0-1.673-1.437-3.034-3.203-3.034-1.765 0-3.202 1.361-3.202 3.034 0 1.035.552 1.953 1.391 2.501a5.57 5.57 0 00-2.105 1.25c-1.047.99-1.622 2.308-1.622 3.71h11.077c0-1.402-.575-2.72-1.622-3.71zm-97.965-42.427l-.759 1.019c-.994-.679-1.828-1.449-2.502-2.311-.866.939-1.93 1.714-3.192 2.325l-.759-1.053c1.376-.597 2.459-1.37 3.247-2.318a9.805 9.805 0 01-1.046-2.638l1.087-.513c.164.679.39 1.317.677 1.914.537-1.367.845-2.882.923-4.546h-1.709c-.456 1.326-.928 2.473-1.415 3.439l-.951-.834c.962-1.978 1.595-3.958 1.901-5.941l1.203.226a16.49 16.49 0 01-.39 1.921h3.432v1.189h-.841c-.205 2.488-.677 4.434-1.415 5.838a8.588 8.588 0 002.509 2.283zm-6.05-1.934c-1.723.843-3.721 1.645-5.995 2.406l-.458-1.135.697-.225v-6.734h1.251v6.276c.155-.032.504-.158 1.046-.376v-7.944h-2.646v-1.176h5.996v1.176h-2.106v2.912h1.709v1.19h-1.709v3.308a22.683 22.683 0 002.003-.909l.212 1.231zm15.818-9.229a57.448 57.448 0 001.668-.485l.711.806c-.647.228-1.214.402-1.702.52l-.677-.841zm-6.398.226l.868-.684c.469.151.998.365 1.586.643l-.786.711c-.378-.205-.934-.429-1.668-.67zm10.138.786v2.686h-1.217v-1.75h-9.126v1.75h-1.21v-2.686h5.168v-1.333h1.217v1.333h5.168zm-2.031 3.274h-7.492v-1.934h7.492v1.934zm-1.203-.745v-.444h-5.038v.444h5.038zm3.671 7.916l-1.107.711a8.903 8.903 0 00-1.764-1.552l1.032-.704h-10.397v-.854h5.414v-.458h-4.84v-.814h4.84v-.465h-4.409v-2.631h10.021v2.631h-4.368v.465h4.833v.814h-4.833v.458h5.366v.854h-1.552a19.728 19.728 0 011.764 1.545zm-2.427-4.887v-1.081h-1.524l.882.39a6.473 6.473 0 01-.657.691h1.299zm-1.736 0l-.882-.411a6.26 6.26 0 00.732-.67h-1.265v1.081h1.415zm-2.659 0v-1.081h-1.258c.264.237.492.495.684.773l-.855.308h1.429zm-1.593-1.081h-1.6v1.081h1.32c-.228-.26-.467-.509-.718-.746l.998-.335zm-1.189 5.1c-.365.438-.973.964-1.826 1.579l-1.046-.827c.739-.433 1.322-.875 1.75-1.326l1.122.574zm2.713 1.217l-1.23.219a7.477 7.477 0 00-.492-1.662l1.189-.252c.16.373.337.938.533 1.695zm3.036-.075l-1.217.253a8.102 8.102 0 00-.725-1.621l1.244-.239c.228.42.461.955.698 1.607zm17.698-10.651h-3.876v.773h3.179v2.967h-10.767v-2.967h3.192v-.773h-3.923v-1.08h12.195v1.08zm-5.093.773v-.773h-1.962v.773h1.962zm3.172 1.955v-.95h-1.955v.95h1.955zm-3.172 0v-.95h-1.962v.95h1.962zm-3.179 0v-.95h-1.962v.95h1.962zm7.363 2.775h-10.302v-1.053h10.302v1.053zm.936 1.819h-5.448v3.643h-1.272v-3.643h-5.489v-1.081h12.209v1.081zm-7.67 1.011c-.902.948-2.201 1.791-3.896 2.53l-.684-1.005c1.645-.725 2.835-1.472 3.569-2.242l1.011.717zm7.786 1.648l-.813.936a31.906 31.906 0 00-3.835-2.42l.82-.868a22.644 22.644 0 013.828 2.352zM18.241 204.473l-.724 1.018a33.958 33.958 0 00-4.874-3.37v6.563H11.33v-7.014c-1.476 1.531-3.078 2.796-4.806 3.794l-.724-1.06c3.163-1.823 5.341-3.951 6.535-6.384H6.039v-1.231h11.908v1.231h-4.17a16.77 16.77 0 01-1.134 1.989v.683c2.656 1.532 4.523 2.792 5.598 3.781zm6.72-7.575c-.328.98-.898 2.008-1.709 3.083-.811 1.071-1.659 1.928-2.543 2.571l-.868-.896c1.75-1.203 3.108-2.944 4.074-5.222l1.046.464zm7.267 4.717l-.793.998c-1.741-1.472-2.903-3.074-3.487-4.805H26.67v-1.19h2.085c.565 1.996 1.723 3.662 3.473 4.997zm-2.181-.095a42.074 42.074 0 01-.15 3.876c-.105 1.28-.221 2.069-.35 2.365-.127.296-.33.531-.608.704-.277.173-.608.26-.99.26-.871 0-1.46-.009-1.764-.028l-.424-1.244c.656.046 1.337.068 2.044.068a.89.89 0 00.471-.129c.146-.092.258-.673.335-1.744.078-1.071.126-2.037.144-2.898H25.72c-.378 2.762-1.871 4.783-4.478 6.063l-.882-.97c.971-.392 1.853-1.019 2.646-1.88.793-.861 1.27-1.932 1.429-3.213h-2.229v-1.23h7.84zm16.112 6.842H35.885c-.406 0-.72-.127-.944-.382-.218-.26-.328-.595-.328-1.005v-9.085h-.65v-1.074H46.01v1.074H35.83v9.003c0 .091.041.18.123.266.087.087.176.13.267.13h9.94v1.073zm-2.14-6.521H37.8v-3.179h6.22v3.179zm-1.244-1.039v-1.087h-3.712v1.087h3.712zm2.502 5.66h-3.944v-3.897h3.944v3.897zm-1.162-1.08v-1.764h-1.62v1.764h1.62zm-3.596 1.08h-3.882v-3.897h3.883v3.897zm-1.162-1.066v-1.778H37.82v1.778h1.538zm20.748 2.939H47.937v-1.244h3.554c-.437-2.498-1.02-4.649-1.75-6.453l.97-.677H48.43v-1.258h5.079a10.936 10.936 0 00-.923-1.948l1.347-.458c.41.766.763 1.568 1.06 2.406h4.75v1.258h-2.495l1.026.663c-.27 1.887-.825 4.042-1.669 6.467h3.5v1.244zm-3.022-8.374h-6.166c.797 2.119 1.42 4.496 1.866 7.13h2.475c.92-2.63 1.529-5.006 1.825-7.13zm17.063 2.454l-.76.937c-1.371-.748-2.957-1.388-4.757-1.921v1.21h-1.19v-1.764c-1.303 1.003-2.932 1.85-4.887 2.543l-.697-1.019c1.923-.647 3.468-1.385 4.634-2.214h-4.382v-1.163h5.332v-.779a78.68 78.68 0 01-4.005.11l-.404-1.149c.447.009.884.014 1.313.014 3.04 0 5.72-.253 8.039-.759l.731 1.012c-.92.228-2.415.451-4.484.67v.881h5.38l-.014 1.163H68.63v.157c2.165.551 4.003 1.242 5.516 2.071zm-.124 2.632h-3.22a7.195 7.195 0 01-1.134 1.401c2.21.611 3.646 1.048 4.307 1.313l-.588 1.066c-1.185-.492-2.803-.996-4.854-1.511-1.43.857-3.523 1.327-6.275 1.409l-.43-1.156c2 .019 3.634-.202 4.9-.663-.988-.2-1.918-.357-2.788-.471.341-.356.706-.818 1.093-1.388h-2.98v-1.149h3.719c.255-.387.498-.797.73-1.23l1.272.267c-.15.3-.337.622-.56.963h2.844l.39-.813 1.12.335a2.335 2.335 0 01-.191.478h2.645v1.149zm-4.723 0h-2.796a5.213 5.213 0 01-.492.683l2.215.383c.35-.246.708-.601 1.073-1.066zm6.713 1.018a3.956 3.956 0 002.46.828c.68 0 1.222-.164 1.628-.493.405-.332.608-.781.608-1.346 0-1.244-.907-1.866-2.72-1.866h-.903v-1.292h.848c1.617 0 2.426-.582 2.426-1.744 0-1.084-.617-1.627-1.852-1.627-.73 0-1.427.246-2.092.739v-1.436c.697-.396 1.522-.595 2.475-.595.911 0 1.656.233 2.235.698.583.46.875 1.082.875 1.866 0 1.39-.706 2.276-2.12 2.659v.027c.748.073 1.348.342 1.799.807.45.46.677 1.028.677 1.702 0 .985-.358 1.762-1.074 2.331-.71.57-1.638.855-2.782.855-1.034 0-1.864-.185-2.488-.554v-1.559zm15.196-.676h-1.326V208h-1.525v-2.611h-4.846v-1.039l4.614-6.939h1.757v6.754h1.326v1.224zm-2.85-1.224v-4.143c0-.309.008-.665.027-1.066h-.028a6.158 6.158 0 01-.403.82l-2.912 4.389h3.315zm16.44-5.476h-9.967v4.246c0 2.543-.406 4.484-1.217 5.824l-1.025-.718c.674-1.176 1.012-2.992 1.012-5.448v-4.97h5.01c-.105-.255-.291-.554-.56-.895l1.312-.417c.278.437.531.875.759 1.312h4.676v1.066zm-.11 2.284h-2.105v1.948h-2.153v.991h3.739v2.646c0 .419-.109.774-.328 1.066-.214.287-.713.431-1.497.431-.155 0-.378-.005-.67-.014l-.349-1.162c.301.027.543.041.725.041.364 0 .608-.032.731-.096s.185-.184.185-.362v-1.47h-2.536v3.678h-1.176v-3.678H96.73v3.063l-1.189.013v-4.156h3.712v-.991h-2.126v-1.948h-1.88v-1.067h1.866v-.779h1.162v.779h3.118v-.779h1.189v.779h2.105v1.067zm-3.294.936v-.936h-3.118v.936h3.118z"/><rect width="109.5" height="20.5" x=".75" y="192.75" stroke="#293840" stroke-width="1.5" rx="9.25"/><g fill="#293840" opacity=".2"><path d="M126.221 133.007a5.223 5.223 0 00-1.994-1.25 3.035 3.035 0 001.318-2.501 3.037 3.037 0 00-3.034-3.034 3.037 3.037 0 00-3.034 3.034c0 1.035.523 1.953 1.318 2.501a5.223 5.223 0 00-1.994 1.25 5.206 5.206 0 00-1.537 3.71h10.494c0-1.402-.545-2.72-1.537-3.71z"/><path d="M133.887 133.007a4.91 4.91 0 00-1.884-1.25 3.087 3.087 0 001.245-2.501c0-1.673-1.286-3.034-2.865-3.034-1.58 0-2.865 1.361-2.865 3.034a3.09 3.09 0 001.244 2.501c-.7.256-1.343.678-1.883 1.25-.937.99-1.452 2.308-1.452 3.71h9.912c0-1.402-.515-2.72-1.452-3.71z"/><path d="M142.546 133.007a5.223 5.223 0 00-1.994-1.25 3.035 3.035 0 001.318-2.501 3.037 3.037 0 00-3.034-3.034 3.037 3.037 0 00-3.033 3.034c0 1.035.522 1.953 1.318 2.501a5.227 5.227 0 00-1.995 1.25 5.206 5.206 0 00-1.537 3.71h10.495c0-1.402-.546-2.72-1.538-3.71z"/></g><g fill="#293840" opacity=".2"><path d="M127.157 40.785a5.231 5.231 0 00-1.995-1.25 3.03 3.03 0 001.318-2.501A3.037 3.037 0 00123.447 34a3.037 3.037 0 00-3.034 3.034c0 1.035.523 1.953 1.318 2.5a5.22 5.22 0 00-1.994 1.25 5.203 5.203 0 00-1.538 3.71h10.495c0-1.401-.545-2.72-1.537-3.71z"/><path d="M134.821 40.785a4.91 4.91 0 00-1.883-1.25 3.085 3.085 0 001.244-2.501c0-1.673-1.285-3.034-2.865-3.034-1.579 0-2.865 1.361-2.865 3.034 0 1.035.494 1.953 1.245 2.5a4.906 4.906 0 00-1.884 1.25c-.937.99-1.452 2.309-1.452 3.71h9.912c0-1.401-.515-2.72-1.452-3.71z"/><path d="M143.483 40.785a5.231 5.231 0 00-1.995-1.25 3.03 3.03 0 001.318-2.501A3.037 3.037 0 00139.773 34a3.037 3.037 0 00-3.034 3.034c0 1.035.523 1.953 1.318 2.5a5.228 5.228 0 00-1.994 1.25 5.207 5.207 0 00-1.538 3.71h10.495c0-1.401-.545-2.72-1.537-3.71z"/><path d="M151.56 40.785a5.571 5.571 0 00-2.106-1.25c.84-.548 1.392-1.464 1.392-2.501 0-1.673-1.437-3.034-3.203-3.034-1.765 0-3.202 1.361-3.202 3.034 0 1.035.552 1.953 1.391 2.5a5.575 5.575 0 00-2.105 1.25c-1.047.99-1.622 2.309-1.622 3.71h11.077c0-1.401-.575-2.72-1.622-3.71z"/><path d="M159.224 40.785a5.228 5.228 0 00-1.994-1.25 3.033 3.033 0 10-4.75-2.501c0 1.035.523 1.953 1.318 2.5a5.228 5.228 0 00-1.994 1.25 5.206 5.206 0 00-1.537 3.71h10.494c0-1.401-.545-2.72-1.537-3.71z"/><path d="M166.89 40.785a4.913 4.913 0 00-1.884-1.25 3.086 3.086 0 001.245-2.501c0-1.673-1.286-3.034-2.865-3.034-1.58 0-2.866 1.361-2.866 3.034 0 1.035.494 1.953 1.245 2.5a4.902 4.902 0 00-1.883 1.25c-.937.99-1.452 2.309-1.452 3.71h9.911c0-1.401-.514-2.72-1.451-3.71z"/><path d="M175.548 40.785a5.228 5.228 0 00-1.994-1.25 3.033 3.033 0 10-3.431 0 5.231 5.231 0 00-1.995 1.25 5.206 5.206 0 00-1.537 3.71h10.495c0-1.402-.546-2.72-1.538-3.71z"/><path d="M183.711 40.785a5.22 5.22 0 00-1.994-1.25 3.033 3.033 0 10-3.431 0 5.231 5.231 0 00-1.995 1.25 5.206 5.206 0 00-1.537 3.71h10.495c0-1.402-.546-2.72-1.538-3.71z"/><path d="M191.377 40.785a4.906 4.906 0 00-1.884-1.25 3.086 3.086 0 001.245-2.501c0-1.673-1.285-3.034-2.865-3.034-1.58 0-2.865 1.361-2.865 3.034 0 1.035.493 1.953 1.245 2.5a4.906 4.906 0 00-1.884 1.25c-.937.99-1.452 2.309-1.452 3.71h9.912c0-1.401-.515-2.72-1.452-3.71z"/><path d="M199.454 40.785a5.231 5.231 0 00-1.995-1.25 3.033 3.033 0 10-3.431 0 5.231 5.231 0 00-1.995 1.25 5.206 5.206 0 00-1.537 3.71h10.495c0-1.402-.545-2.72-1.537-3.71z"/><path d="M207.616 40.785a5.231 5.231 0 00-1.995-1.25 3.03 3.03 0 001.318-2.501A3.037 3.037 0 00203.906 34a3.037 3.037 0 00-3.034 3.034c0 1.035.523 1.953 1.318 2.5a5.22 5.22 0 00-1.994 1.25 5.203 5.203 0 00-1.538 3.71h10.495c0-1.401-.545-2.72-1.537-3.71z"/><path d="M215.281 40.785a4.91 4.91 0 00-1.883-1.25 3.085 3.085 0 001.244-2.501c0-1.673-1.285-3.034-2.865-3.034-1.58 0-2.865 1.361-2.865 3.034 0 1.035.494 1.953 1.245 2.5a4.906 4.906 0 00-1.884 1.25c-.937.99-1.452 2.309-1.452 3.71h9.912c0-1.401-.515-2.72-1.452-3.71z"/><path d="M223.856 40.785a5.56 5.56 0 00-2.105-1.25c.84-.548 1.391-1.464 1.391-2.501 0-1.673-1.436-3.034-3.202-3.034-1.765 0-3.202 1.361-3.202 3.034 0 1.035.552 1.953 1.391 2.5a5.575 5.575 0 00-2.105 1.25c-1.047.99-1.623 2.309-1.623 3.71h11.078c0-1.401-.575-2.72-1.623-3.71z"/><path d="M231.522 40.785a5.228 5.228 0 00-1.994-1.25 3.033 3.033 0 10-4.75-2.501c0 1.035.523 1.953 1.318 2.5a5.228 5.228 0 00-1.994 1.25 5.207 5.207 0 00-1.538 3.71h10.495c0-1.401-.545-2.72-1.537-3.71z"/><path d="M239.77 40.785a4.902 4.902 0 00-1.883-1.25 3.086 3.086 0 001.245-2.501c0-1.673-1.286-3.034-2.866-3.034-1.579 0-2.865 1.361-2.865 3.034 0 1.035.494 1.953 1.245 2.5a4.913 4.913 0 00-1.884 1.25c-.936.99-1.451 2.309-1.451 3.71h9.911c0-1.401-.515-2.72-1.452-3.71z"/><path d="M247.933 40.785a4.902 4.902 0 00-1.883-1.25 3.086 3.086 0 001.245-2.501c0-1.673-1.286-3.034-2.865-3.034-1.58 0-2.866 1.361-2.866 3.034 0 1.035.494 1.953 1.245 2.5a4.902 4.902 0 00-1.883 1.25c-.937.99-1.452 2.309-1.452 3.71h9.911c0-1.401-.515-2.72-1.452-3.71z"/><path d="M256.009 40.785a5.228 5.228 0 00-1.994-1.25 3.033 3.033 0 10-3.431 0 5.231 5.231 0 00-1.995 1.25 5.206 5.206 0 00-1.537 3.71h10.495c0-1.402-.546-2.72-1.538-3.71z"/><path d="M264.173 40.785a5.228 5.228 0 00-1.994-1.25 3.033 3.033 0 10-3.431 0 5.231 5.231 0 00-1.995 1.25 5.206 5.206 0 00-1.537 3.71h10.495c0-1.402-.546-2.72-1.538-3.71z"/><path d="M271.837 40.785a4.906 4.906 0 00-1.884-1.25 3.086 3.086 0 001.245-2.501c0-1.673-1.285-3.034-2.865-3.034-1.58 0-2.865 1.361-2.865 3.034 0 1.035.493 1.953 1.245 2.5a4.906 4.906 0 00-1.884 1.25c-.937.99-1.452 2.309-1.452 3.71h9.912c0-1.401-.515-2.72-1.452-3.71z"/><path d="M279.914 40.785a5.231 5.231 0 00-1.995-1.25 3.033 3.033 0 10-3.431 0 5.231 5.231 0 00-1.995 1.25 5.206 5.206 0 00-1.537 3.71h10.495c0-1.402-.545-2.72-1.537-3.71zM127.157 56.527a5.232 5.232 0 00-1.995-1.25 3.03 3.03 0 001.318-2.501 3.037 3.037 0 00-3.033-3.034 3.037 3.037 0 00-3.034 3.034c0 1.035.523 1.953 1.318 2.5a5.221 5.221 0 00-1.994 1.25 5.203 5.203 0 00-1.538 3.711h10.495c0-1.402-.545-2.72-1.537-3.71z"/><path d="M134.821 56.527a4.91 4.91 0 00-1.883-1.25 3.085 3.085 0 001.244-2.501c0-1.673-1.285-3.034-2.865-3.034-1.579 0-2.865 1.361-2.865 3.034 0 1.035.494 1.953 1.245 2.5a4.907 4.907 0 00-1.884 1.25c-.937.991-1.452 2.309-1.452 3.711h9.912c0-1.402-.515-2.72-1.452-3.71z"/><path d="M143.483 56.527a5.232 5.232 0 00-1.995-1.25 3.03 3.03 0 001.318-2.501 3.037 3.037 0 00-3.033-3.034 3.037 3.037 0 00-3.034 3.034c0 1.035.523 1.953 1.318 2.5a5.229 5.229 0 00-1.994 1.25 5.207 5.207 0 00-1.538 3.711h10.495c0-1.402-.545-2.72-1.537-3.71z"/><path d="M151.56 56.527a5.572 5.572 0 00-2.106-1.25c.84-.548 1.392-1.464 1.392-2.501 0-1.673-1.437-3.034-3.203-3.034-1.765 0-3.202 1.361-3.202 3.034 0 1.035.552 1.953 1.391 2.5a5.576 5.576 0 00-2.105 1.25c-1.047.991-1.622 2.309-1.622 3.711h11.077c0-1.402-.575-2.72-1.622-3.71z"/><path d="M159.224 56.527a5.229 5.229 0 00-1.994-1.25 3.033 3.033 0 00-1.716-5.535 3.037 3.037 0 00-3.034 3.034c0 1.035.523 1.953 1.318 2.5a5.229 5.229 0 00-1.994 1.25 5.206 5.206 0 00-1.537 3.711h10.494c0-1.402-.545-2.72-1.537-3.71z"/><path d="M166.89 56.527a4.914 4.914 0 00-1.884-1.25 3.086 3.086 0 001.245-2.501c0-1.673-1.286-3.034-2.865-3.034-1.58 0-2.866 1.361-2.866 3.034 0 1.035.494 1.953 1.245 2.5a4.903 4.903 0 00-1.883 1.25c-.937.991-1.452 2.309-1.452 3.711h9.911c0-1.402-.514-2.72-1.451-3.71z"/><path d="M175.548 56.527a5.229 5.229 0 00-1.994-1.25 3.033 3.033 0 10-3.431 0 5.232 5.232 0 00-1.995 1.25 5.206 5.206 0 00-1.537 3.71h10.495c0-1.402-.546-2.72-1.538-3.71z"/><path d="M183.711 56.527a5.221 5.221 0 00-1.994-1.25 3.033 3.033 0 10-3.431 0 5.232 5.232 0 00-1.995 1.25 5.206 5.206 0 00-1.537 3.71h10.495c0-1.402-.546-2.72-1.538-3.71z"/><path d="M191.377 56.527a4.907 4.907 0 00-1.884-1.25 3.086 3.086 0 001.245-2.501c0-1.673-1.285-3.034-2.865-3.034-1.58 0-2.865 1.361-2.865 3.034 0 1.035.493 1.953 1.245 2.5a4.907 4.907 0 00-1.884 1.25c-.937.991-1.452 2.309-1.452 3.711h9.912c0-1.402-.515-2.72-1.452-3.71z"/><path d="M199.454 56.527a5.232 5.232 0 00-1.995-1.25 3.033 3.033 0 10-3.431 0 5.232 5.232 0 00-1.995 1.25 5.206 5.206 0 00-1.537 3.71h10.495c0-1.402-.545-2.72-1.537-3.71z"/><path d="M207.616 56.527a5.232 5.232 0 00-1.995-1.25 3.03 3.03 0 001.318-2.501 3.037 3.037 0 00-3.033-3.034 3.037 3.037 0 00-3.034 3.034c0 1.035.523 1.953 1.318 2.5a5.221 5.221 0 00-1.994 1.25 5.203 5.203 0 00-1.538 3.711h10.495c0-1.402-.545-2.72-1.537-3.71z"/><path d="M215.281 56.527a4.91 4.91 0 00-1.883-1.25 3.085 3.085 0 001.244-2.501c0-1.673-1.285-3.034-2.865-3.034-1.58 0-2.865 1.361-2.865 3.034 0 1.035.494 1.953 1.245 2.5a4.907 4.907 0 00-1.884 1.25c-.937.991-1.452 2.309-1.452 3.711h9.912c0-1.402-.515-2.72-1.452-3.71z"/><path d="M223.856 56.527a5.56 5.56 0 00-2.105-1.25c.84-.548 1.391-1.464 1.391-2.501 0-1.673-1.436-3.034-3.202-3.034-1.765 0-3.202 1.361-3.202 3.034 0 1.035.552 1.953 1.391 2.5a5.576 5.576 0 00-2.105 1.25c-1.047.991-1.623 2.309-1.623 3.711h11.078c0-1.402-.575-2.72-1.623-3.71z"/><path d="M231.522 56.527a5.229 5.229 0 00-1.994-1.25 3.033 3.033 0 00-1.716-5.535 3.037 3.037 0 00-3.034 3.034c0 1.035.523 1.953 1.318 2.5a5.229 5.229 0 00-1.994 1.25 5.207 5.207 0 00-1.538 3.711h10.495c0-1.402-.545-2.72-1.537-3.71z"/><path d="M239.77 56.527a4.903 4.903 0 00-1.883-1.25 3.086 3.086 0 001.245-2.501c0-1.673-1.286-3.034-2.866-3.034-1.579 0-2.865 1.361-2.865 3.034 0 1.035.494 1.953 1.245 2.5a4.914 4.914 0 00-1.884 1.25c-.936.991-1.451 2.309-1.451 3.711h9.911c0-1.402-.515-2.72-1.452-3.71z"/><path d="M247.933 56.527a4.903 4.903 0 00-1.883-1.25 3.086 3.086 0 001.245-2.501c0-1.673-1.286-3.034-2.865-3.034-1.58 0-2.866 1.361-2.866 3.034 0 1.035.494 1.953 1.245 2.5a4.903 4.903 0 00-1.883 1.25c-.937.991-1.452 2.309-1.452 3.711h9.911c0-1.402-.515-2.72-1.452-3.71z"/><path d="M256.009 56.527a5.229 5.229 0 00-1.994-1.25 3.033 3.033 0 10-3.431 0 5.232 5.232 0 00-1.995 1.25 5.206 5.206 0 00-1.537 3.71h10.495c0-1.402-.546-2.72-1.538-3.71z"/><path d="M264.173 56.527a5.229 5.229 0 00-1.994-1.25 3.033 3.033 0 10-3.431 0 5.232 5.232 0 00-1.995 1.25 5.206 5.206 0 00-1.537 3.71h10.495c0-1.402-.546-2.72-1.538-3.71z"/><path d="M271.837 56.527a4.907 4.907 0 00-1.884-1.25 3.086 3.086 0 001.245-2.501c0-1.673-1.285-3.034-2.865-3.034-1.58 0-2.865 1.361-2.865 3.034 0 1.035.493 1.953 1.245 2.5a4.907 4.907 0 00-1.884 1.25c-.937.991-1.452 2.309-1.452 3.711h9.912c0-1.402-.515-2.72-1.452-3.71z"/><path d="M279.914 56.527a5.232 5.232 0 00-1.995-1.25 3.033 3.033 0 10-3.431 0 5.232 5.232 0 00-1.995 1.25 5.206 5.206 0 00-1.537 3.71h10.495c0-1.402-.545-2.72-1.537-3.71zM127.157 72.27a5.231 5.231 0 00-1.995-1.251 3.03 3.03 0 001.318-2.5 3.037 3.037 0 00-3.033-3.035 3.037 3.037 0 00-3.034 3.034c0 1.035.523 1.954 1.318 2.5a5.22 5.22 0 00-1.994 1.251 5.203 5.203 0 00-1.538 3.71h10.495c0-1.402-.545-2.72-1.537-3.71z"/><path d="M134.821 72.27a4.91 4.91 0 00-1.883-1.251 3.085 3.085 0 001.244-2.5c0-1.674-1.285-3.035-2.865-3.035-1.579 0-2.865 1.362-2.865 3.034 0 1.035.494 1.954 1.245 2.5a4.906 4.906 0 00-1.884 1.251c-.937.99-1.452 2.308-1.452 3.71h9.912c0-1.402-.515-2.72-1.452-3.71z"/><path d="M143.483 72.27a5.231 5.231 0 00-1.995-1.251 3.03 3.03 0 001.318-2.5 3.037 3.037 0 00-3.033-3.035 3.037 3.037 0 00-3.034 3.034c0 1.035.523 1.954 1.318 2.5a5.228 5.228 0 00-1.994 1.251 5.207 5.207 0 00-1.538 3.71h10.495c0-1.402-.545-2.72-1.537-3.71z"/><path d="M151.56 72.27a5.571 5.571 0 00-2.106-1.251c.84-.547 1.392-1.464 1.392-2.5 0-1.674-1.437-3.035-3.203-3.035-1.765 0-3.202 1.362-3.202 3.034 0 1.035.552 1.954 1.391 2.5a5.575 5.575 0 00-2.105 1.251c-1.047.99-1.622 2.308-1.622 3.71h11.077c0-1.402-.575-2.72-1.622-3.71z"/><path d="M159.224 72.27a5.228 5.228 0 00-1.994-1.251 3.033 3.033 0 00-1.716-5.535 3.037 3.037 0 00-3.034 3.034c0 1.035.523 1.954 1.318 2.5a5.228 5.228 0 00-1.994 1.251 5.206 5.206 0 00-1.537 3.71h10.494c0-1.402-.545-2.72-1.537-3.71z"/><path d="M166.89 72.27a4.914 4.914 0 00-1.884-1.251 3.086 3.086 0 001.245-2.5c0-1.674-1.286-3.035-2.865-3.035-1.58 0-2.866 1.362-2.866 3.034 0 1.035.494 1.954 1.245 2.5a4.903 4.903 0 00-1.883 1.251c-.937.99-1.452 2.308-1.452 3.71h9.911c0-1.402-.514-2.72-1.451-3.71z"/><path d="M175.548 72.27a5.228 5.228 0 00-1.994-1.251 3.033 3.033 0 10-3.431 0 5.231 5.231 0 00-1.995 1.25 5.206 5.206 0 00-1.537 3.71h10.495c0-1.402-.546-2.72-1.538-3.71z"/><path d="M183.711 72.27a5.22 5.22 0 00-1.994-1.251 3.033 3.033 0 10-3.431 0 5.231 5.231 0 00-1.995 1.25 5.206 5.206 0 00-1.537 3.71h10.495c0-1.402-.546-2.72-1.538-3.71z"/><path d="M191.377 72.27a4.906 4.906 0 00-1.884-1.251 3.086 3.086 0 001.245-2.5c0-1.674-1.285-3.035-2.865-3.035-1.58 0-2.865 1.362-2.865 3.034 0 1.035.493 1.954 1.245 2.5a4.906 4.906 0 00-1.884 1.251c-.937.99-1.452 2.308-1.452 3.71h9.912c0-1.402-.515-2.72-1.452-3.71z"/><path d="M199.454 72.27a5.231 5.231 0 00-1.995-1.251 3.033 3.033 0 10-3.431 0 5.231 5.231 0 00-1.995 1.25 5.206 5.206 0 00-1.537 3.71h10.495c0-1.402-.545-2.72-1.537-3.71z"/><path d="M207.616 72.27a5.231 5.231 0 00-1.995-1.251 3.03 3.03 0 001.318-2.5 3.037 3.037 0 00-3.033-3.035 3.037 3.037 0 00-3.034 3.034c0 1.035.523 1.954 1.318 2.5a5.22 5.22 0 00-1.994 1.251 5.203 5.203 0 00-1.538 3.71h10.495c0-1.402-.545-2.72-1.537-3.71zm-80.459 15.741a5.231 5.231 0 00-1.995-1.25 3.03 3.03 0 001.318-2.5 3.037 3.037 0 00-3.033-3.034 3.037 3.037 0 00-3.034 3.033c0 1.035.523 1.954 1.318 2.501a5.22 5.22 0 00-1.994 1.25 5.203 5.203 0 00-1.538 3.71h10.495c0-1.402-.545-2.72-1.537-3.71z"/><path d="M134.821 88.011a4.91 4.91 0 00-1.883-1.25 3.085 3.085 0 001.244-2.5c0-1.673-1.285-3.034-2.865-3.034-1.579 0-2.865 1.36-2.865 3.033 0 1.035.494 1.954 1.245 2.501a4.906 4.906 0 00-1.884 1.25c-.937.99-1.452 2.308-1.452 3.71h9.912c0-1.402-.515-2.72-1.452-3.71z"/><path d="M143.483 88.011a5.231 5.231 0 00-1.995-1.25 3.03 3.03 0 001.318-2.5 3.037 3.037 0 00-3.033-3.034 3.037 3.037 0 00-3.034 3.033c0 1.035.523 1.954 1.318 2.501a5.228 5.228 0 00-1.994 1.25 5.207 5.207 0 00-1.538 3.71h10.495c0-1.402-.545-2.72-1.537-3.71z"/><path d="M151.56 88.011a5.571 5.571 0 00-2.106-1.25c.84-.547 1.392-1.464 1.392-2.5 0-1.673-1.437-3.034-3.203-3.034-1.765 0-3.202 1.36-3.202 3.033 0 1.035.552 1.954 1.391 2.501a5.575 5.575 0 00-2.105 1.25c-1.047.99-1.622 2.308-1.622 3.71h11.077c0-1.402-.575-2.72-1.622-3.71z"/><path d="M159.224 88.011a5.228 5.228 0 00-1.994-1.25 3.033 3.033 0 10-4.75-2.5c0 1.034.523 1.953 1.318 2.5a5.228 5.228 0 00-1.994 1.25 5.206 5.206 0 00-1.537 3.71h10.494c0-1.402-.545-2.72-1.537-3.71z"/><path d="M166.89 88.011a4.913 4.913 0 00-1.884-1.25 3.086 3.086 0 001.245-2.5c0-1.673-1.286-3.034-2.865-3.034-1.58 0-2.866 1.36-2.866 3.033 0 1.035.494 1.954 1.245 2.501a4.902 4.902 0 00-1.883 1.25c-.937.99-1.452 2.308-1.452 3.71h9.911c0-1.402-.514-2.72-1.451-3.71z"/><path d="M175.548 88.011a5.228 5.228 0 00-1.994-1.25 3.033 3.033 0 10-3.431 0 5.231 5.231 0 00-1.995 1.25 5.206 5.206 0 00-1.537 3.71h10.495c0-1.402-.546-2.72-1.538-3.71z"/><path d="M183.711 88.011a5.22 5.22 0 00-1.994-1.25 3.033 3.033 0 10-3.431 0 5.231 5.231 0 00-1.995 1.25 5.206 5.206 0 00-1.537 3.71h10.495c0-1.402-.546-2.72-1.538-3.71z"/><path d="M191.377 88.011a4.906 4.906 0 00-1.884-1.25 3.086 3.086 0 001.245-2.5c0-1.673-1.285-3.034-2.865-3.034-1.58 0-2.865 1.36-2.865 3.033 0 1.035.493 1.954 1.245 2.501a4.906 4.906 0 00-1.884 1.25c-.937.99-1.452 2.308-1.452 3.71h9.912c0-1.402-.515-2.72-1.452-3.71z"/><path d="M199.454 88.011a5.231 5.231 0 00-1.995-1.25 3.033 3.033 0 10-3.431 0 5.231 5.231 0 00-1.995 1.25 5.206 5.206 0 00-1.537 3.71h10.495c0-1.402-.545-2.72-1.537-3.71z"/><path d="M207.616 88.011a5.231 5.231 0 00-1.995-1.25 3.03 3.03 0 001.318-2.5 3.037 3.037 0 00-3.033-3.034 3.037 3.037 0 00-3.034 3.033c0 1.035.523 1.954 1.318 2.501a5.22 5.22 0 00-1.994 1.25 5.203 5.203 0 00-1.538 3.71h10.495c0-1.402-.545-2.72-1.537-3.71zm7.665-15.741a4.91 4.91 0 00-1.883-1.251 3.085 3.085 0 001.244-2.5c0-1.674-1.285-3.035-2.865-3.035-1.58 0-2.865 1.362-2.865 3.034 0 1.035.494 1.954 1.245 2.5a4.906 4.906 0 00-1.884 1.251c-.937.99-1.452 2.308-1.452 3.71h9.912c0-1.402-.515-2.72-1.452-3.71z"/><path d="M223.856 72.27a5.56 5.56 0 00-2.105-1.251c.84-.547 1.391-1.464 1.391-2.5 0-1.674-1.436-3.035-3.202-3.035-1.765 0-3.202 1.362-3.202 3.034 0 1.035.552 1.954 1.391 2.5a5.575 5.575 0 00-2.105 1.251c-1.047.99-1.623 2.308-1.623 3.71h11.078c0-1.402-.575-2.72-1.623-3.71z"/><path d="M231.522 72.27a5.228 5.228 0 00-1.994-1.251 3.033 3.033 0 00-1.716-5.535 3.037 3.037 0 00-3.034 3.034c0 1.035.523 1.954 1.318 2.5a5.228 5.228 0 00-1.994 1.251 5.207 5.207 0 00-1.538 3.71h10.495c0-1.402-.545-2.72-1.537-3.71z"/><path d="M239.77 72.27a4.903 4.903 0 00-1.883-1.251 3.086 3.086 0 001.245-2.5c0-1.674-1.286-3.035-2.866-3.035-1.579 0-2.865 1.362-2.865 3.034 0 1.035.494 1.954 1.245 2.5a4.914 4.914 0 00-1.884 1.251c-.936.99-1.451 2.308-1.451 3.71h9.911c0-1.402-.515-2.72-1.452-3.71z"/><path d="M247.933 72.27a4.903 4.903 0 00-1.883-1.251 3.086 3.086 0 001.245-2.5c0-1.674-1.286-3.035-2.865-3.035-1.58 0-2.866 1.362-2.866 3.034 0 1.035.494 1.954 1.245 2.5a4.903 4.903 0 00-1.883 1.251c-.937.99-1.452 2.308-1.452 3.71h9.911c0-1.402-.515-2.72-1.452-3.71z"/><path d="M256.009 72.27a5.228 5.228 0 00-1.994-1.251 3.033 3.033 0 10-3.431 0 5.231 5.231 0 00-1.995 1.25 5.206 5.206 0 00-1.537 3.71h10.495c0-1.402-.546-2.72-1.538-3.71z"/><path d="M264.173 72.27a5.228 5.228 0 00-1.994-1.251 3.033 3.033 0 10-3.431 0 5.231 5.231 0 00-1.995 1.25 5.206 5.206 0 00-1.537 3.71h10.495c0-1.402-.546-2.72-1.538-3.71z"/><path d="M271.837 72.27a4.906 4.906 0 00-1.884-1.251 3.086 3.086 0 001.245-2.5c0-1.674-1.285-3.035-2.865-3.035-1.58 0-2.865 1.362-2.865 3.034 0 1.035.493 1.954 1.245 2.5a4.906 4.906 0 00-1.884 1.251c-.937.99-1.452 2.308-1.452 3.71h9.912c0-1.402-.515-2.72-1.452-3.71z"/><path d="M279.914 72.27a5.231 5.231 0 00-1.995-1.251 3.033 3.033 0 10-3.431 0 5.231 5.231 0 00-1.995 1.25 5.206 5.206 0 00-1.537 3.71h10.495c0-1.402-.545-2.72-1.537-3.71zm-64.957 15.741a5.222 5.222 0 00-1.994-1.25 3.033 3.033 0 10-3.431 0 5.233 5.233 0 00-1.995 1.25 5.206 5.206 0 00-1.537 3.71h10.495c0-1.402-.545-2.72-1.538-3.71z"/><path d="M223.12 88.011a5.233 5.233 0 00-1.995-1.25 3.033 3.033 0 10-3.431 0 5.233 5.233 0 00-1.995 1.25 5.206 5.206 0 00-1.537 3.71h10.495c0-1.402-.545-2.72-1.537-3.71z"/></g></svg>