<svg width="571" height="56" fill="none" xmlns="http://www.w3.org/2000/svg"><path d="M231.146 46.395h-.897v-2.847h-12.401v2.847h-.923v-3.709h6.662v-2.478h.896v2.479h6.663v3.709zm-9.844-4.535l-.844.519c-.369-.498-.923-1.037-1.661-1.617l.826-.501c.551.416 1.11.949 1.679 1.6zm8.209-.975c-.481.468-1.184.949-2.11 1.441l-.773-.703a8.397 8.397 0 002.127-1.327l.756.589zm-.941 7.33h-9.052v-3.296h9.052v3.296zm-.931-.88v-1.572h-7.181v1.573h7.181zm2.751 8.58h-.932v-.81h-10.802v.81h-.94V49.4h12.674v6.513zm-.932-4.123v-1.53h-4.922v1.53h4.922zm-5.871 0v-1.53h-4.931v1.53h4.931zm5.871 2.435V52.68h-4.922v1.547h4.922zm-5.871 0V52.68h-4.931v1.547h4.931zm27.262-2.162h-6.645v3.85h-.967v-3.85h-7.919v-.967h2.602v-4.922h5.317v-3.2h-4.306c-.891 1.348-1.887 2.435-2.989 3.261l-.738-.668c1.553-1.078 2.983-2.92 4.289-5.528l.985.29c-.405.791-.721 1.36-.95 1.705h10.565v.94h-5.889v3.2h5.599v.94h-5.599v3.982h6.645v.967zm-7.612-.967v-3.982h-4.341v3.982h4.341zm14.421-9.115l-.738.58c-.592-.796-1.16-1.42-1.705-1.872l.721-.562a11.301 11.301 0 011.722 1.854zm12.226 1.152h-4.72v1.837h3.911v9.87c0 .223-.096.436-.29.641-.193.211-.389.334-.589.37-.199.04-.717.061-1.555.061l-.282-.932 1.433.036c.088 0 .179-.044.272-.132.1-.088.15-.176.15-.264v-2.786h-3.05v4.096h-.861v-4.096h-3.024v4.078h-.879V44.972h3.903v-1.837h-4.606v-.844h4.606v-2.127h.861v2.127h4.72v.844zm-1.67 4.825v-2.083h-3.05v2.083h3.05zm-3.911 0v-2.083h-2.989v2.083h2.989zm3.911 3.006v-2.118h-3.05v2.118h3.05zm-3.911 0v-2.118h-2.989v2.118h2.989zm4.57-9.501l-.738.483c-.44-.504-.864-.928-1.275-1.274l.791-.466c.387.305.794.724 1.222 1.257zm-8.947 9l-.659.65c-.393-.592-1.09-1.324-2.092-2.197v7.014h-.914v-6.926a13.76 13.76 0 01-1.53 1.582l-.668-.668c1.629-1.33 2.93-3.302 3.903-5.915h-3.709V43.1h4.737v.905c-.592 1.47-1.198 2.701-1.819 3.691v.14c.293.212.533.402.721.572.363-.492.764-1.157 1.204-1.995l.808.36a12.41 12.41 0 01-1.327 2.198c.545.55.993 1.049 1.345 1.494zm28.325-6.803c0 2.678-.053 5.127-.158 7.348-.1 2.22-.217 3.504-.352 3.85-.129.345-.331.603-.606.773-.276.17-.78.255-1.512.255-.375 0-.765-.015-1.169-.044l-.325-.914 2.057.017c.181 0 .357-.079.527-.237a.981.981 0 00.29-.642l.176-3.27c.093-1.915.14-3.99.14-6.222h-2.592c-.053 2.438-.387 4.524-1.002 6.258-.61 1.728-1.571 3.428-2.883 5.098l-.774-.59c1.354-1.804 2.309-3.515 2.866-5.132.556-1.623.835-3.501.835-5.634h-2.716v-.914h2.733c.07-1.365.091-2.525.062-3.48h.949a72.94 72.94 0 01-.035 3.48h3.489zm-7.286 9.501c-2.485.78-5.066 1.483-7.743 2.11l-.326-.906c.475-.082.915-.19 1.319-.325v-13.35h5.871v11.75c.281-.064.574-.146.879-.246v.967zm-1.837-8.534v-3.006h-3.964v3.006h3.964zm0 4.157v-3.27h-3.964v3.27h3.964zm0 3.946V49.71h-3.964v4.122c1.647-.428 2.968-.794 3.964-1.099zm28.633-9.975c-.194 1.945-.686 3.759-1.477 5.44l-.826-.413c.563-1.154.981-2.528 1.257-4.122h-3.964a16.36 16.36 0 01-1.67 3.217l-.668-.703c1.096-1.611 1.948-3.662 2.558-6.153l.879.203c-.211.896-.463 1.74-.756 2.53h4.667zm-7.005-.106h-3.604v1.635h2.989v.888h-7.032v-.888h3.129v-1.635h-3.674v-.861h3.674v-1.643h.914v1.643h3.604v.861zm7.233 12.586l-.606.739c-1.612-1.6-2.704-3.466-3.279-5.599-.503 2.145-1.848 3.996-4.034 5.555l-.606-.66c1.383-.931 2.44-2.091 3.173-3.48.732-1.389 1.066-3.686 1.002-6.89h.896c-.047.68-.07 1.297-.07 1.854 0 1.816.307 3.416.923 4.799a11.579 11.579 0 002.601 3.682zm-7.866-7.778h-7.014v-.879h7.014v.879zm.835 2.39h-3.841v4.773c0 .276-.07.519-.211.73-.14.21-.293.348-.457.413-.164.07-.492.105-.984.105-.223 0-.445-.009-.668-.026l-.308-.914c.264.035.545.052.844.052.363 0 .601-.047.712-.14a.478.478 0 00.176-.396V49.85h-3.903v-.88h8.64v.88zm-5.818 1.1c-.586 1.775-1.257 3.228-2.013 4.359l-.835-.413c.797-1.09 1.465-2.497 2.004-4.22l.844.273zm5.51 2.232l-.755.527c-.299-.656-.83-1.509-1.591-2.558l.764-.448c.545.639 1.073 1.465 1.582 2.479zm16.821-2.857l-.756.282a6.238 6.238 0 00-.255-.791 35.39 35.39 0 01-4.878 1.15l-.325-.878c1.248-1.055 2.414-2.47 3.498-4.245a35.357 35.357 0 01-3.085.483l-.281-.861c1.125-1.283 2.115-3.067 2.97-5.353l.827.255c-.756 2.051-1.65 3.7-2.681 4.949a30.115 30.115 0 002.821-.502c.44-.72.847-1.5 1.222-2.337l.835.36c-1.5 3.041-3.12 5.396-4.861 7.066 1.032-.158 2.248-.462 3.648-.914-.059-.293-.208-.694-.448-1.204l.756-.36c.439.967.77 1.933.993 2.9zm8.244-.72h-7.708v-8.069h2.074c.264-.492.492-.955.686-1.388l.808.254a6.515 6.515 0 01-.501 1.134h4.641v8.069zm-.897-.87v-6.32h-5.888v6.32h5.888zm-.527-1.46l-.536.668a19.895 19.895 0 00-1.169-1.257 20.177 20.177 0 01-1.406 1.583l-.633-.519c.533-.557.996-1.099 1.389-1.626a4.21 4.21 0 00-.809-.677c-.258.352-.63.77-1.116 1.257l-.615-.58c.287-.258.635-.653 1.045-1.186a5.938 5.938 0 00-.843-.607l.448-.685c.287.17.586.36.896.57.276-.427.534-.881.774-1.362l.738.343c-.176.405-.457.914-.844 1.53.27.205.534.424.791.659.405-.621.783-1.322 1.134-2.1l.721.324a14.83 14.83 0 01-1.204 2.338c.258.258.671.7 1.239 1.327zm-.536 5.186l-.756.36c-.48-1.008-.943-1.81-1.389-2.408l.827-.36c.585.838 1.025 1.64 1.318 2.408zm1.345.72a5.164 5.164 0 01-.282 1.442c-.146.416-.363.697-.65.844-.287.152-.841.228-1.661.228-1.108 0-1.802-.088-2.083-.263-.276-.17-.413-.525-.413-1.064V50.43h.914v4.034c0 .2.108.32.325.36.217.041.577.062 1.081.062.703 0 1.146-.056 1.327-.167.182-.117.317-.346.404-.686.094-.34.153-.761.176-1.265l.862.413zm2.004 1.24l-.774.562c-.363-1.148-.888-2.367-1.573-3.656l.738-.536c.697 1.342 1.234 2.552 1.609 3.63zm-7.849-3.287c-.381 1.74-.867 3.137-1.459 4.192l-.791-.413a13.047 13.047 0 001.38-4.017l.87.238zm-2.022 2.302l-.843.29a13.989 13.989 0 00-.572-2.214l.809-.29c.258.685.46 1.424.606 2.215zm-4.157-1.801c-.211 1.54-.559 2.962-1.046 4.263l-.861-.3a18.33 18.33 0 001.028-4.165l.879.202zm2.197 3.603l-.878.176c-.012-1.084-.194-2.326-.545-3.726l.852-.194c.322 1.131.513 2.38.571 3.744zm22.244-11.382h-.923v-1.529h-5.168v1.565h-.897V41.43h3.296c-.258-.528-.463-.876-.615-1.046l.826-.325c.305.486.539.943.703 1.37h2.778v2.426zm8.349-2.355h-3.331a21.269 21.269 0 01-.571 2.197h3.023v8.763h-3.981l.536.545c-1.213 1.353-2.279 2.317-3.199 2.892l-.668-.66c1.037-.627 2.074-1.552 3.111-2.777h-1.96v-8.763h2.197c.317-.867.516-1.6.598-2.197h-3.366v-.861h7.611v.861zm-1.766 4.702v-1.661h-4.333v1.661h4.333zm0 2.567V47.01h-4.333v1.758h4.333zm0 2.865V49.62h-4.333v2.013h4.333zm-5.942-2.11l-.466.721c-.931-.656-2.106-1.406-3.524-2.25a16.053 16.053 0 01-3.604 2.452l-.448-.72c1.248-.68 2.335-1.412 3.261-2.198a44.259 44.259 0 00-1.529-.844c-.364.434-.654.75-.87.95l-.572-.59c1.014-1.042 1.861-2.346 2.54-3.91l.826.29a11.6 11.6 0 01-.448.905h3.454v.826a23.676 23.676 0 01-1.924 2.215c1.341.803 2.443 1.52 3.304 2.153zm-2.513-4.368h-2.778c-.123.229-.29.504-.501.826.557.276 1.119.58 1.688.915a14.56 14.56 0 001.591-1.74zm.966 10.705h-.914v-.896h-3.296v.896h-.931v-5.343h5.141v5.343zm-.914-1.775v-2.672h-3.296v2.672h3.296zm10.275 1.187l-.642.72c-.709-.82-1.6-1.632-2.672-2.434l.563-.686c1.295.932 2.212 1.732 2.751 2.4zm9.376-10.785l-2.602.545 1.811 2.33-1.002.694-1.503-2.532-1.503 2.532-1.002-.695 1.802-2.329-2.628-.545.422-1.133 2.487.931-.202-2.9h1.248l-.211 2.9 2.505-.931.378 1.133z" fill="#000"/><path d="M1 32v15.5h8" stroke="#293840"/><path fill="#2A60A5" d="M1 0h270.951v32H1z"/><path fill="#00A89C" d="M271.951 0h211.743v32H271.951z"/><path fill="#CF9D51" d="M483.694 0h53.187v32h-53.187z"/><path fill="#F9A456" d="M536.88 0H571v32h-34.12z"/><path d="M570 32v15.5h-8" stroke="#293840"/></svg>