<svg width="572" height="57" fill="none" xmlns="http://www.w3.org/2000/svg"><path d="M231.146 47.389h-.897V44.54h-12.401v2.848h-.923v-3.71h6.662V41.2h.896v2.479h6.663v3.709zm-9.844-4.536l-.844.52c-.369-.499-.923-1.038-1.661-1.618l.826-.501c.551.416 1.11.95 1.679 1.6zm8.209-.975c-.481.469-1.184.95-2.11 1.441l-.773-.703a8.4 8.4 0 002.127-1.327l.756.589zm-.941 7.33h-9.052v-3.296h9.052v3.296zm-.931-.879v-1.573h-7.181v1.573h7.181zm2.751 8.578h-.932V56.1h-10.802v.808h-.94v-6.512h12.674v6.512zm-.932-4.122v-1.53h-4.922v1.53h4.922zm-5.871 0v-1.53h-4.931v1.53h4.931zm5.871 2.435v-1.547h-4.922v1.547h4.922zm-5.871 0v-1.547h-4.931v1.547h4.931zm27.262-2.162h-6.645v3.85h-.967v-3.85h-7.919v-.967h2.602v-4.922h5.317v-3.2h-4.306c-.891 1.348-1.887 2.435-2.989 3.261l-.738-.667c1.553-1.079 2.983-2.921 4.289-5.529l.985.29c-.405.791-.721 1.36-.95 1.705h10.565v.94h-5.889v3.2h5.599v.94h-5.599v3.982h6.645v.967zm-7.612-.967v-3.982h-4.341v3.982h4.341zm14.421-9.114l-.738.58c-.592-.797-1.16-1.421-1.705-1.872l.721-.563a11.297 11.297 0 011.722 1.855zm12.226 1.15h-4.72v1.838h3.911v9.87c0 .223-.096.437-.29.642-.193.21-.389.334-.589.369-.199.04-.717.061-1.555.061l-.282-.931 1.433.035c.088 0 .179-.044.272-.132.1-.088.15-.176.15-.264V52.83h-3.05v4.096h-.861V52.83h-3.024v4.078h-.879V45.965h3.903v-1.837h-4.606v-.844h4.606v-2.127h.861v2.127h4.72v.844zm-1.67 4.826V46.87h-3.05v2.083h3.05zm-3.911 0V46.87h-2.989v2.083h2.989zm3.911 3.006v-2.118h-3.05v2.118h3.05zm-3.911 0v-2.118h-2.989v2.118h2.989zm4.57-9.501l-.738.483c-.44-.504-.864-.928-1.275-1.274l.791-.466c.387.305.794.724 1.222 1.257zm-8.947 9l-.659.65c-.393-.591-1.09-1.324-2.092-2.197v7.014h-.914v-6.926a13.76 13.76 0 01-1.53 1.582l-.668-.668c1.629-1.33 2.93-3.302 3.903-5.915h-3.709v-.905h4.737v.905c-.592 1.47-1.198 2.701-1.819 3.692v.14c.293.211.533.401.721.571.363-.492.764-1.157 1.204-1.995l.808.36a12.414 12.414 0 01-1.327 2.198c.545.55.993 1.049 1.345 1.494zm28.325-6.803c0 2.678-.053 5.127-.158 7.348-.1 2.22-.217 3.504-.352 3.85-.129.345-.331.603-.606.773-.276.17-.78.255-1.512.255-.375 0-.765-.015-1.169-.044l-.325-.914 2.057.017c.181 0 .357-.079.527-.237a.98.98 0 00.29-.642l.176-3.269c.093-1.916.14-3.99.14-6.223h-2.592c-.053 2.438-.387 4.524-1.002 6.258-.61 1.729-1.571 3.428-2.883 5.098l-.774-.59c1.354-1.804 2.309-3.515 2.866-5.132.556-1.623.835-3.5.835-5.634h-2.716v-.914h2.733a43.73 43.73 0 00.062-3.48h.949c.017 1.02.006 2.18-.035 3.48h3.489zm-7.286 9.501a108.71 108.71 0 01-7.743 2.11l-.326-.906c.475-.082.915-.19 1.319-.325v-13.35h5.871v11.75c.281-.064.574-.146.879-.245v.966zm-1.837-8.534v-3.006h-3.964v3.006h3.964zm0 4.157v-3.27h-3.964v3.27h3.964zm0 3.947v-3.024h-3.964v4.122a100.46 100.46 0 003.964-1.098zm28.633-9.976c-.194 1.945-.686 3.759-1.477 5.44l-.826-.413c.563-1.154.981-2.528 1.257-4.122h-3.964a16.363 16.363 0 01-1.67 3.217l-.668-.703c1.096-1.611 1.948-3.662 2.558-6.152l.879.202c-.211.896-.463 1.74-.756 2.531h4.667zm-7.005-.105h-3.604v1.634h2.989v.888h-7.032v-.888h3.129v-1.635h-3.674v-.86h3.674V41.14h.914v1.643h3.604v.861zm7.233 12.585l-.606.739c-1.612-1.6-2.704-3.466-3.279-5.599-.503 2.145-1.848 3.996-4.034 5.555l-.606-.66c1.383-.931 2.44-2.091 3.173-3.48.732-1.388 1.066-3.685 1.002-6.89h.896c-.047.68-.07 1.297-.07 1.854 0 1.816.307 3.416.923 4.799a11.579 11.579 0 002.601 3.682zm-7.866-7.778h-7.014v-.879h7.014v.88zm.835 2.39h-3.841v4.773c0 .276-.07.519-.211.73-.14.21-.293.348-.457.413-.164.07-.492.105-.984.105-.223 0-.445-.008-.668-.026l-.308-.914c.264.035.545.053.844.053.363 0 .601-.047.712-.141a.478.478 0 00.176-.395v-4.597h-3.903v-.88h8.64v.88zm-5.818 1.1c-.586 1.775-1.257 3.228-2.013 4.359l-.835-.413c.797-1.09 1.465-2.496 2.004-4.22l.844.273zm5.51 2.232l-.755.527c-.299-.656-.83-1.509-1.591-2.557l.764-.449c.545.639 1.073 1.465 1.582 2.479zm16.821-2.857l-.756.282a6.248 6.248 0 00-.255-.791c-1.67.515-3.296.899-4.878 1.151l-.325-.879c1.248-1.055 2.414-2.47 3.498-4.245a35.395 35.395 0 01-3.085.483l-.281-.861c1.125-1.283 2.115-3.067 2.97-5.352l.827.254c-.756 2.051-1.65 3.7-2.681 4.949a30.405 30.405 0 002.821-.501c.44-.721.847-1.5 1.222-2.338l.835.36c-1.5 3.041-3.12 5.397-4.861 7.066 1.032-.158 2.248-.462 3.648-.914-.059-.293-.208-.694-.448-1.204l.756-.36c.439.967.77 1.934.993 2.9zm8.244-.72h-7.708v-8.069h2.074c.264-.492.492-.955.686-1.388l.808.255a6.508 6.508 0 01-.501 1.133h4.641v8.069zm-.897-.87v-6.32h-5.888v6.32h5.888zm-.527-1.46l-.536.668a19.917 19.917 0 00-1.169-1.256 20.158 20.158 0 01-1.406 1.582l-.633-.519c.533-.556.996-1.098 1.389-1.626a4.207 4.207 0 00-.809-.676c-.258.351-.63.77-1.116 1.256l-.615-.58c.287-.258.635-.653 1.045-1.186a5.94 5.94 0 00-.843-.607l.448-.685c.287.17.586.36.896.571.276-.428.534-.882.774-1.362l.738.343c-.176.404-.457.913-.844 1.529.27.205.534.425.791.659.405-.621.783-1.321 1.134-2.1l.721.325a14.83 14.83 0 01-1.204 2.337c.258.258.671.7 1.239 1.328zm-.536 5.186l-.756.36c-.48-1.007-.943-1.81-1.389-2.408l.827-.36c.585.838 1.025 1.64 1.318 2.408zm1.345.72a5.163 5.163 0 01-.282 1.442c-.146.416-.363.697-.65.844-.287.152-.841.228-1.661.228-1.108 0-1.802-.087-2.083-.263-.276-.17-.413-.525-.413-1.064v-3.937h.914v4.034c0 .2.108.32.325.36.217.041.577.062 1.081.062.703 0 1.146-.056 1.327-.167.182-.117.317-.346.404-.686a5.83 5.83 0 00.176-1.265l.862.413zm2.004 1.24l-.774.563c-.363-1.149-.888-2.368-1.573-3.657l.738-.536c.697 1.342 1.234 2.552 1.609 3.63zm-7.849-3.287c-.381 1.74-.867 3.138-1.459 4.192l-.791-.413a13.047 13.047 0 001.38-4.016l.87.237zm-2.022 2.303l-.843.29a13.989 13.989 0 00-.572-2.215l.809-.29c.258.685.46 1.424.606 2.215zm-4.157-1.802c-.211 1.541-.559 2.962-1.046 4.263l-.861-.3a18.33 18.33 0 001.028-4.165l.879.202zm2.197 3.603l-.878.176c-.012-1.084-.194-2.326-.545-3.726l.852-.194c.322 1.131.513 2.38.571 3.745zm22.244-11.381h-.923v-1.53h-5.168v1.565h-.897v-2.461h3.296c-.258-.528-.463-.876-.615-1.046l.826-.325c.305.486.539.943.703 1.37h2.778v2.427zm8.349-2.356h-3.331a21.26 21.26 0 01-.571 2.197h3.023v8.763h-3.981l.536.545c-1.213 1.354-2.279 2.317-3.199 2.892l-.668-.66c1.037-.627 2.074-1.552 3.111-2.777h-1.96V44.69h2.197c.317-.867.516-1.6.598-2.197h-3.366v-.861h7.611v.861zm-1.766 4.702v-1.66h-4.333v1.66h4.333zm0 2.567v-1.758h-4.333v1.758h4.333zm0 2.865v-2.013h-4.333v2.013h4.333zm-5.942-2.11l-.466.721c-.931-.656-2.106-1.406-3.524-2.25a16.049 16.049 0 01-3.604 2.452l-.448-.72c1.248-.68 2.335-1.412 3.261-2.197a44.09 44.09 0 00-1.529-.844c-.364.433-.654.75-.87.949l-.572-.589c1.014-1.043 1.861-2.347 2.54-3.911l.826.29c-.152.34-.301.642-.448.905h3.454v.826a23.688 23.688 0 01-1.924 2.215c1.341.803 2.443 1.52 3.304 2.154zm-2.513-4.368h-2.778c-.123.229-.29.504-.501.827.557.275 1.119.58 1.688.914a14.558 14.558 0 001.591-1.74zm.966 10.706h-.914v-.897h-3.296v.897h-.931V51.51h5.141v5.343zm-.914-1.776v-2.672h-3.296v2.672h3.296zm10.275 1.187l-.642.72c-.709-.82-1.6-1.631-2.672-2.434l.563-.686c1.295.932 2.212 1.732 2.751 2.4zm9.376-10.785l-2.602.545 1.811 2.33-1.002.694-1.503-2.531-1.503 2.53-1.002-.694 1.802-2.329-2.628-.545.422-1.133 2.487.931-.202-2.9h1.248l-.211 2.9 2.505-.931.378 1.133z" fill="#000"/><path d="M1 32.993v15.5h8m562-15.5v15.5h-8" stroke="#293840"/><path fill="#2A60A5" d="M287.003.993h175.616v32H287.003z"/><path fill="#F29B09" d="M462.62.993h41.144v32H462.62z"/><path fill="#FBBE01" d="M503.764.993h41.144v32h-41.144z"/><path fill="#FFE365" d="M544.908.993h26.091v32h-26.091z"/><path fill="#00A89C" d="M1 .993h286.004v32H1z"/></svg>