<svg width="260" height="42" fill="none" xmlns="http://www.w3.org/2000/svg"><path d="M47.682 21.23c-1.075-.48-1.612-1.199-1.612-2.156 0-.691.268-1.248.803-1.67.535-.422 1.197-.633 1.986-.633.739 0 1.358.198 1.858.592.504.395.756.92.756 1.576 0 1-.567 1.762-1.7 2.286v.023c1.313.469 1.97 1.27 1.97 2.402 0 .797-.288 1.415-.862 1.852-.574.434-1.342.65-2.303.65-.812 0-1.484-.218-2.016-.656-.53-.437-.796-1.02-.796-1.746 0-1.137.638-1.969 1.916-2.496v-.024zm2.437-2.15c0-.379-.121-.678-.363-.896-.238-.223-.559-.334-.961-.334a1.42 1.42 0 00-.973.351 1.124 1.124 0 00-.392.873c0 .711.445 1.248 1.336 1.611.902-.374 1.353-.91 1.353-1.605zm-1.43 2.766c-1.05.418-1.576 1.029-1.576 1.834 0 .422.157.761.469 1.02.313.253.711.38 1.195.38.473 0 .86-.125 1.16-.375.305-.25.458-.586.458-1.008 0-.832-.569-1.449-1.706-1.851zM58.604 26h-5.642v-1.148l2.63-2.59c.587-.575 1.018-1.07 1.296-1.489.281-.418.422-.873.422-1.365 0-1.004-.532-1.506-1.594-1.506-.797 0-1.563.334-2.297 1.002V17.58c.738-.539 1.586-.808 2.543-.808.832 0 1.494.222 1.986.668.496.44.744 1.046.744 1.816 0 .555-.156 1.107-.468 1.658-.313.547-.858 1.195-1.635 1.945l-2.016 1.922v.03h4.031V26zm1.524-.68c0-.238.086-.435.258-.591a.883.883 0 01.615-.235c.234 0 .438.078.61.235.171.152.257.35.257.591a.8.8 0 01-.246.586.868.868 0 01-.633.24.862.862 0 01-.61-.234.785.785 0 01-.251-.592zm8.479-7.066a3.074 3.074 0 00-1.489-.375c-.781 0-1.398.332-1.851.996-.45.66-.672 1.514-.668 2.56h.029c.426-.777 1.098-1.165 2.016-1.165.78 0 1.402.26 1.863.779.46.515.691 1.191.691 2.027 0 .883-.277 1.617-.832 2.203-.55.582-1.258.873-2.12.873-.981 0-1.733-.369-2.257-1.107-.523-.742-.785-1.762-.785-3.059 0-1.535.34-2.787 1.02-3.756.68-.972 1.625-1.459 2.836-1.459.652 0 1.168.086 1.547.258v1.225zm-3.944 4.77c0 .566.148 1.046.445 1.44.297.392.684.587 1.16.587.473 0 .848-.178 1.126-.533.28-.356.421-.795.421-1.319 0-.59-.132-1.043-.398-1.36-.266-.32-.652-.48-1.16-.48-.453 0-.832.16-1.137.48a1.654 1.654 0 00-.457 1.184zm6.076 1.581a3.187 3.187 0 001.647.446c.793 0 1.402-.301 1.828-.903.426-.601.639-1.445.639-2.53a.065.065 0 01-.03-.007c-.394.711-1.047 1.067-1.957 1.067-.77 0-1.4-.268-1.892-.803-.489-.535-.733-1.205-.733-2.01 0-.906.278-1.648.832-2.226.559-.578 1.285-.867 2.18-.867.941 0 1.67.363 2.186 1.09.519.726.779 1.757.779 3.093 0 1.625-.326 2.899-.979 3.82-.652.918-1.586 1.377-2.8 1.377-.653 0-1.22-.105-1.7-.316v-1.23zm.873-4.892c0 .562.143 1.012.428 1.348.29.332.688.498 1.195.498.442 0 .809-.153 1.102-.457.297-.305.445-.678.445-1.12 0-.582-.146-1.078-.44-1.488-.288-.41-.679-.615-1.171-.615-.457 0-.832.178-1.125.533-.29.356-.434.79-.434 1.3zm20.07 3.517c-1.075-.48-1.612-1.199-1.612-2.156 0-.691.268-1.248.803-1.67.535-.422 1.197-.633 1.986-.633.739 0 1.358.198 1.858.592.504.395.756.92.756 1.576 0 1-.567 1.762-1.7 2.286v.023c1.313.469 1.97 1.27 1.97 2.402 0 .797-.288 1.415-.862 1.852-.574.434-1.342.65-2.303.65-.812 0-1.484-.218-2.016-.656-.53-.437-.796-1.02-.796-1.746 0-1.137.638-1.969 1.916-2.496v-.024zm2.437-2.15c0-.379-.121-.678-.363-.896-.238-.223-.559-.334-.961-.334a1.42 1.42 0 00-.973.351 1.124 1.124 0 00-.392.873c0 .711.445 1.248 1.336 1.611.902-.374 1.353-.91 1.353-1.605zm-1.43 2.766c-1.05.418-1.576 1.029-1.576 1.834 0 .422.156.761.469 1.02.313.253.711.38 1.195.38.473 0 .86-.125 1.16-.375.305-.25.457-.586.457-1.008 0-.832-.568-1.449-1.705-1.851zm4.143-.211c0-1.594.272-2.803.815-3.627.546-.824 1.337-1.236 2.373-1.236 1.972 0 2.959 1.548 2.959 4.646 0 1.516-.27 2.684-.809 3.504-.539.82-1.32 1.23-2.344 1.23-.988 0-1.734-.386-2.238-1.16-.504-.773-.756-1.892-.756-3.357zm1.4-.053c0 2.313.561 3.469 1.682 3.469 1.106 0 1.658-1.18 1.658-3.54 0-2.421-.541-3.632-1.623-3.632-1.144 0-1.717 1.234-1.717 3.703zm5.895 3.738c0-.238.086-.435.258-.591a.884.884 0 01.615-.235c.234 0 .438.078.609.235.172.152.258.35.258.591a.8.8 0 01-.246.586.868.868 0 01-.633.24.862.862 0 01-.609-.234.785.785 0 01-.252-.592zm8.684.68h-5.643v-1.148l2.631-2.59c.586-.575 1.017-1.07 1.295-1.489.281-.418.422-.873.422-1.365 0-1.004-.532-1.506-1.594-1.506-.797 0-1.563.334-2.297 1.002V19.58c.738-.539 1.586-.808 2.543-.808.832 0 1.494.222 1.986.668.496.44.744 1.046.744 1.816 0 .555-.156 1.107-.468 1.658-.313.547-.858 1.195-1.635 1.945l-2.016 1.922v.03h4.032V28zm3.375-4.77c-1.075-.48-1.612-1.199-1.612-2.156 0-.691.268-1.248.803-1.67.535-.422 1.197-.633 1.986-.633.739 0 1.358.198 1.858.592.504.395.756.92.756 1.576 0 1-.567 1.762-1.7 2.286v.023c1.313.469 1.969 1.27 1.969 2.402 0 .797-.287 1.415-.861 1.852-.574.434-1.342.65-2.303.65-.812 0-1.484-.218-2.016-.656-.531-.437-.796-1.02-.796-1.746 0-1.137.638-1.969 1.916-2.496v-.024zm2.437-2.15c0-.379-.121-.678-.363-.896-.239-.223-.559-.334-.961-.334a1.42 1.42 0 00-.973.351 1.123 1.123 0 00-.392.873c0 .711.445 1.248 1.336 1.611.902-.374 1.353-.91 1.353-1.605zm-1.43 2.766c-1.05.418-1.576 1.029-1.576 1.834 0 .422.156.761.469 1.02.312.253.711.38 1.195.38.473 0 .86-.125 1.16-.375.305-.25.457-.586.457-1.008 0-.832-.568-1.449-1.705-1.851zm25.061-.383L138.791 32h-1.436l3.34-7.893h-4.453v-1.183h6.012v.539zm6.644.79a3.07 3.07 0 00-1.488-.374c-.781 0-1.398.332-1.851.996-.45.66-.672 1.514-.668 2.56h.029c.426-.777 1.098-1.165 2.016-1.165.781 0 1.402.26 1.863.779.461.515.691 1.191.691 2.027 0 .883-.277 1.617-.832 2.203-.551.582-1.258.873-2.121.873-.98 0-1.732-.369-2.256-1.107-.523-.742-.785-1.762-.785-3.059 0-1.535.34-2.787 1.02-3.756.679-.972 1.625-1.459 2.836-1.459.652 0 1.168.086 1.546.258v1.225zm-3.943 4.77c0 .567.149 1.047.445 1.442.297.39.684.586 1.161.586.472 0 .847-.178 1.125-.533.281-.356.421-.795.421-1.319 0-.59-.132-1.043-.398-1.36-.266-.32-.652-.48-1.16-.48-.453 0-.832.16-1.137.48a1.654 1.654 0 00-.457 1.184zm5.672 2.297c0-.238.086-.435.258-.591a.884.884 0 01.615-.235c.234 0 .438.078.609.235.172.152.258.35.258.591a.8.8 0 01-.246.586.868.868 0 01-.633.24.862.862 0 01-.609-.234.785.785 0 01-.252-.592zm3.269-.978a3.397 3.397 0 002.11.709c.582 0 1.047-.14 1.394-.422.348-.285.522-.67.522-1.154 0-1.067-.777-1.6-2.332-1.6h-.774v-1.107h.727c1.387 0 2.08-.498 2.08-1.495 0-.93-.529-1.394-1.588-1.394-.625 0-1.223.21-1.793.633v-1.23c.598-.34 1.305-.51 2.121-.51.782 0 1.42.199 1.916.597.5.395.75.928.75 1.6 0 1.191-.605 1.95-1.816 2.279v.023c.641.063 1.154.293 1.541.692.387.394.58.88.58 1.459 0 .844-.307 1.51-.92 1.998-.609.488-1.404.732-2.385.732-.886 0-1.597-.158-2.133-.474v-1.336zm7.149 0a3.392 3.392 0 002.109.709c.582 0 1.047-.14 1.395-.422.347-.285.521-.67.521-1.154 0-1.067-.777-1.6-2.332-1.6h-.773v-1.107h.726c1.387 0 2.08-.498 2.08-1.495 0-.93-.529-1.394-1.587-1.394-.625 0-1.223.21-1.793.633v-1.23c.597-.34 1.304-.51 2.121-.51.781 0 1.42.199 1.916.597.5.395.75.928.75 1.6 0 1.191-.606 1.95-1.817 2.279v.023c.641.063 1.155.293 1.541.692.387.394.58.88.58 1.459 0 .844-.306 1.51-.92 1.998-.609.488-1.404.732-2.384.732-.887 0-1.598-.158-2.133-.474v-1.336zm28.209-5.879L185.791 33h-1.436l3.34-7.893h-4.453v-1.183h6.012v.539zm7.312 6.299h-1.136V33h-1.307v-2.238h-4.154v-.89l3.955-5.948h1.506v5.789h1.136v1.049zm-2.443-1.05v-3.55c0-.265.008-.57.023-.914h-.023a5.354 5.354 0 01-.346.703l-2.496 3.762h2.842zm3.504 2.608c0-.238.086-.435.258-.591a.884.884 0 01.615-.235c.234 0 .438.078.609.235.172.152.258.35.258.591a.8.8 0 01-.246.586.868.868 0 01-.633.24.862.862 0 01-.609-.234.785.785 0 01-.252-.592zm3.269-.978a3.397 3.397 0 002.11.709c.582 0 1.047-.14 1.394-.422.348-.285.522-.67.522-1.154 0-1.067-.777-1.6-2.332-1.6h-.774v-1.107h.727c1.387 0 2.08-.498 2.08-1.495 0-.93-.529-1.394-1.588-1.394-.625 0-1.223.21-1.793.633v-1.23c.598-.34 1.305-.51 2.121-.51.782 0 1.42.199 1.916.597.5.395.75.928.75 1.6 0 1.191-.605 1.95-1.816 2.279v.023c.641.063 1.154.293 1.541.692.387.394.58.88.58 1.459 0 .844-.307 1.51-.92 1.998-.609.488-1.404.732-2.385.732-.886 0-1.597-.158-2.133-.474v-1.336zm8.79-3.111c-1.075-.481-1.612-1.2-1.612-2.157 0-.691.268-1.248.803-1.67.535-.422 1.197-.633 1.986-.633.739 0 1.358.198 1.858.592.504.395.756.92.756 1.576 0 1-.567 1.762-1.7 2.286v.023c1.313.469 1.969 1.27 1.969 2.402 0 .797-.287 1.415-.861 1.852-.574.433-1.342.65-2.303.65-.812 0-1.484-.218-2.016-.656-.531-.437-.796-1.02-.796-1.746 0-1.137.638-1.969 1.916-2.496v-.024zm2.437-2.15c0-.38-.121-.679-.363-.897-.239-.223-.559-.334-.961-.334a1.42 1.42 0 00-.973.351 1.123 1.123 0 00-.392.873c0 .711.445 1.248 1.336 1.611.902-.374 1.353-.91 1.353-1.605zm-1.43 2.765c-1.05.418-1.576 1.029-1.576 1.834 0 .422.156.761.469 1.02.312.253.711.38 1.195.38.473 0 .86-.125 1.16-.375.305-.25.457-.586.457-1.008 0-.832-.568-1.449-1.705-1.851zm23.557 4.408a3.073 3.073 0 00-1.488-.375c-.782 0-1.399.332-1.852.996-.449.66-.672 1.514-.668 2.56h.029c.426-.777 1.098-1.166 2.016-1.166.781 0 1.402.26 1.863.78.461.516.692 1.191.692 2.027 0 .883-.278 1.617-.832 2.203-.551.582-1.258.873-2.121.873-.981 0-1.733-.369-2.256-1.107-.524-.742-.785-1.762-.785-3.059 0-1.535.34-2.787 1.019-3.755.68-.973 1.625-1.46 2.836-1.46.652 0 1.168.086 1.547.258v1.225zm-3.943 4.77c0 .566.148 1.046.445 1.44.297.392.684.587 1.16.587.473 0 .848-.178 1.125-.533.281-.356.422-.795.422-1.319 0-.59-.133-1.043-.398-1.36-.266-.32-.653-.48-1.161-.48-.453 0-.832.16-1.136.48a1.654 1.654 0 00-.457 1.184zm11.091-4.77a3.07 3.07 0 00-1.488-.375c-.781 0-1.398.332-1.851.996-.45.66-.672 1.514-.668 2.56h.029c.426-.777 1.098-1.166 2.016-1.166.781 0 1.402.26 1.863.78.461.516.691 1.191.691 2.027 0 .883-.277 1.617-.832 2.203-.551.582-1.258.873-2.121.873-.98 0-1.732-.369-2.256-1.107-.523-.742-.785-1.762-.785-3.059 0-1.535.34-2.787 1.02-3.755.679-.973 1.625-1.46 2.836-1.46.652 0 1.168.086 1.546.258v1.225zm-3.943 4.77c0 .566.149 1.046.445 1.44.297.392.684.587 1.161.587.472 0 .847-.178 1.125-.533.281-.356.421-.795.421-1.319 0-.59-.132-1.043-.398-1.36-.266-.32-.652-.48-1.16-.48-.453 0-.832.16-1.137.48a1.654 1.654 0 00-.457 1.184zm5.672 2.296c0-.238.086-.435.258-.592a.884.884 0 01.615-.234c.234 0 .438.078.609.234.172.153.258.35.258.592a.8.8 0 01-.246.586.868.868 0 01-.633.24.862.862 0 01-.609-.234.785.785 0 01-.252-.592zm8.684.68h-5.643v-1.148l2.631-2.59c.586-.575 1.017-1.07 1.295-1.489.281-.418.422-.873.422-1.365 0-1.004-.532-1.506-1.594-1.506-.797 0-1.563.334-2.297 1.002V32.58c.738-.539 1.586-.808 2.543-.808.832 0 1.494.222 1.986.668.496.44.744 1.046.744 1.816 0 .554-.156 1.107-.468 1.658-.313.547-.858 1.195-1.635 1.945l-2.016 1.922v.03h4.032V41zm7.447-8.537L255.795 41h-1.436l3.34-7.893h-4.453v-1.183h6.012v.539z" fill="#293840"/><path d="M14 12.01L60.084 5l47.213 2.278 46.761 3.856 45.181 2.103L246 22" stroke="#293840" stroke-width="3" stroke-linecap="round"/><circle cx="16.57" cy="12.162" r="4.5" fill="#fff" stroke="#293840" stroke-width="3"/><circle cx="60.705" cy="6" r="4.5" fill="#fff" stroke="#293840" stroke-width="3"/><circle cx="105.841" cy="8.122" r="4.5" fill="#fff" stroke="#293840" stroke-width="3"/><circle cx="152.181" cy="11.101" r="4.5" fill="#fff" stroke="#293840" stroke-width="3"/><circle cx="197.785" cy="13.489" r="4.5" fill="#fff" stroke="#293840" stroke-width="3"/><circle cx="243.185" cy="21.508" r="4.5" fill="#fff" stroke="#293840" stroke-width="3"/><path d="M8.254 24.463L4.79 33H3.355l3.34-7.893H2.242v-1.183h6.012v.539zm6.644.79a3.073 3.073 0 00-1.488-.374c-.781 0-1.398.332-1.851.996-.45.66-.672 1.514-.668 2.56h.029c.426-.777 1.098-1.165 2.015-1.165.782 0 1.403.26 1.864.779.46.515.691 1.191.691 2.027 0 .883-.277 1.617-.832 2.203-.55.582-1.258.873-2.12.873-.981 0-1.733-.369-2.257-1.107-.523-.742-.785-1.762-.785-3.059 0-1.535.34-2.787 1.02-3.756.68-.972 1.625-1.459 2.836-1.459.652 0 1.168.086 1.546.258v1.225zm-3.943 4.77c0 .567.149 1.047.445 1.442.297.39.684.586 1.16.586.473 0 .848-.178 1.125-.533.282-.356.422-.795.422-1.319 0-.59-.132-1.043-.398-1.36-.266-.32-.652-.48-1.16-.48-.453 0-.832.16-1.137.48a1.654 1.654 0 00-.457 1.184zm5.672 2.297c0-.238.086-.435.258-.591a.883.883 0 01.615-.235c.234 0 .438.078.61.235.171.152.257.35.257.591a.8.8 0 01-.246.586.868.868 0 01-.633.24.862.862 0 01-.61-.234.785.785 0 01-.251-.592zm2.912-3.685c0-1.594.271-2.803.814-3.627.547-.824 1.338-1.236 2.374-1.236 1.972 0 2.959 1.548 2.959 4.646 0 1.516-.27 2.684-.809 3.504-.54.82-1.32 1.23-2.344 1.23-.988 0-1.734-.386-2.238-1.16-.504-.773-.756-1.892-.756-3.357zm1.4-.053c0 2.313.561 3.469 1.682 3.469 1.106 0 1.658-1.18 1.658-3.54 0-2.421-.54-3.632-1.623-3.632-1.144 0-1.716 1.234-1.716 3.703zm11.983 2.18h-1.137V33H30.48v-2.238h-4.155v-.89l3.955-5.948h1.506v5.789h1.137v1.049zm-2.443-1.05v-3.55c0-.265.007-.57.023-.914h-.023a5.327 5.327 0 01-.346.703l-2.496 3.762h2.841z" fill="#293840"/></svg>