<svg width="999" height="106" fill="none" xmlns="http://www.w3.org/2000/svg"><path d="M196.303 29.05c-1.791-.8-2.686-1.998-2.686-3.593 0-1.152.446-2.08 1.338-2.783.892-.703 1.996-1.055 3.311-1.055 1.23 0 2.262.329 3.095.986.84.658 1.26 1.534 1.26 2.627 0 1.667-.944 2.937-2.832 3.809v.04c2.188.78 3.281 2.115 3.281 4.003 0 1.328-.478 2.357-1.435 3.086-.957.723-2.237 1.084-3.838 1.084-1.354 0-2.474-.365-3.359-1.094-.886-.729-1.329-1.7-1.329-2.91 0-1.895 1.065-3.281 3.194-4.16v-.04zm4.062-3.583c0-.632-.202-1.13-.605-1.494-.397-.371-.931-.557-1.602-.557-.638 0-1.178.195-1.621.586-.436.39-.654.876-.654 1.455 0 1.185.742 2.08 2.226 2.686 1.504-.625 2.256-1.517 2.256-2.676zm-2.383 4.61c-1.751.696-2.627 1.715-2.627 3.056 0 .703.261 1.27.782 1.699.521.423 1.185.635 1.992.635.788 0 1.432-.209 1.933-.625.508-.417.762-.977.762-1.68 0-1.387-.947-2.415-2.842-3.086zM214.506 37h-9.404v-1.914l4.384-4.316c.977-.957 1.696-1.784 2.159-2.48a4 4 0 00.703-2.276c0-1.674-.886-2.51-2.657-2.51-1.328 0-2.604.556-3.828 1.67v-2.207c1.231-.899 2.644-1.348 4.239-1.348 1.386 0 2.49.371 3.31 1.113.827.736 1.24 1.745 1.24 3.028 0 .924-.26 1.845-.781 2.763-.521.912-1.429 1.993-2.725 3.243l-3.359 3.203v.049h6.719V37zm2.539-1.133c0-.397.143-.726.43-.986a1.47 1.47 0 011.025-.39c.391 0 .729.13 1.016.39.286.254.429.583.429.986 0 .378-.136.703-.41.977-.273.267-.625.4-1.055.4-.397 0-.735-.13-1.015-.39a1.309 1.309 0 01-.42-.987zm14.131-11.777a5.123 5.123 0 00-2.481-.625c-1.302 0-2.33.553-3.086 1.66-.748 1.1-1.119 2.523-1.113 4.268h.049c.71-1.296 1.829-1.944 3.359-1.944 1.302 0 2.338.433 3.106 1.299.768.86 1.152 1.986 1.152 3.379 0 1.471-.462 2.695-1.387 3.672-.918.97-2.096 1.455-3.535 1.455-1.634 0-2.887-.615-3.76-1.846-.872-1.237-1.308-2.936-1.308-5.098 0-2.558.566-4.645 1.699-6.26 1.133-1.62 2.708-2.43 4.727-2.43 1.087 0 1.946.142 2.578.429v2.04zm-6.572 7.95c0 .943.247 1.744.742 2.401.494.651 1.139.977 1.933.977.788 0 1.413-.296 1.875-.889.469-.592.703-1.325.703-2.197 0-.983-.221-1.738-.664-2.266-.442-.533-1.087-.8-1.933-.8-.755 0-1.387.267-1.895.8-.508.534-.761 1.192-.761 1.973zm10.126 2.636a5.31 5.31 0 002.745.742c1.321 0 2.337-.501 3.046-1.504.71-1.003 1.065-2.409 1.065-4.219a.107.107 0 01-.049-.01c-.657 1.185-1.745 1.778-3.262 1.778-1.282 0-2.334-.446-3.154-1.338-.814-.892-1.221-2.009-1.221-3.35 0-1.51.463-2.747 1.387-3.71.931-.964 2.142-1.446 3.633-1.446 1.569 0 2.783.606 3.642 1.817.866 1.21 1.299 2.93 1.299 5.156 0 2.708-.543 4.83-1.631 6.367-1.087 1.53-2.643 2.295-4.668 2.295-1.087 0-2.031-.176-2.832-.527v-2.051zm1.456-8.155c0 .938.237 1.687.712 2.247.482.553 1.146.83 1.993.83.735 0 1.347-.254 1.836-.762.494-.508.742-1.13.742-1.865 0-.97-.244-1.797-.733-2.48-.481-.684-1.132-1.026-1.953-1.026-.762 0-1.387.296-1.875.889-.482.592-.722 1.315-.722 2.168zM384.803 40.05c-1.791-.8-2.686-1.998-2.686-3.593 0-1.152.446-2.08 1.338-2.783.892-.703 1.996-1.055 3.311-1.055 1.23 0 2.262.329 3.095.986.84.658 1.26 1.534 1.26 2.627 0 1.667-.944 2.937-2.832 3.809v.04c2.188.78 3.281 2.115 3.281 4.003 0 1.328-.478 2.357-1.435 3.086-.957.723-2.237 1.084-3.838 1.084-1.354 0-2.474-.365-3.359-1.094-.886-.729-1.329-1.7-1.329-2.91 0-1.895 1.065-3.281 3.194-4.16v-.04zm4.062-3.583c0-.632-.202-1.13-.605-1.494-.397-.371-.931-.557-1.602-.557-.638 0-1.178.195-1.621.586-.436.39-.654.876-.654 1.455 0 1.185.742 2.08 2.226 2.686 1.504-.625 2.256-1.517 2.256-2.676zm-2.383 4.61c-1.751.696-2.627 1.715-2.627 3.056 0 .703.261 1.27.782 1.699.521.423 1.185.635 1.992.635.788 0 1.432-.209 1.933-.625.508-.417.762-.977.762-1.68 0-1.387-.947-2.415-2.842-3.086zm6.905-.352c0-2.657.452-4.672 1.357-6.045.912-1.374 2.23-2.06 3.955-2.06 3.288 0 4.932 2.58 4.932 7.743 0 2.526-.449 4.473-1.348 5.84-.898 1.367-2.2 2.05-3.906 2.05-1.647 0-2.891-.644-3.731-1.933-.839-1.289-1.259-3.154-1.259-5.595zm2.334-.088c0 3.854.934 5.781 2.802 5.781 1.843 0 2.764-1.966 2.764-5.898 0-4.037-.902-6.055-2.705-6.055-1.908 0-2.861 2.057-2.861 6.172zm9.824 6.23c0-.397.143-.726.43-.986a1.47 1.47 0 011.025-.39c.391 0 .729.13 1.016.39.286.254.429.583.429.986 0 .378-.136.703-.41.977-.273.267-.625.4-1.055.4-.397 0-.735-.13-1.015-.39a1.309 1.309 0 01-.42-.987zM420.018 48h-9.405v-1.914l4.385-4.316c.977-.958 1.696-1.784 2.158-2.48a3.992 3.992 0 00.703-2.276c0-1.674-.885-2.51-2.656-2.51-1.328 0-2.604.556-3.828 1.67v-2.207c1.23-.899 2.643-1.348 4.238-1.348 1.387 0 2.491.371 3.311 1.113.827.736 1.24 1.745 1.24 3.028 0 .924-.26 1.846-.781 2.763-.521.912-1.429 1.993-2.725 3.243l-3.359 3.203v.049h6.719V48zm5.625-7.95c-1.791-.8-2.686-1.998-2.686-3.593 0-1.152.446-2.08 1.338-2.783.892-.703 1.995-1.055 3.31-1.055 1.231 0 2.263.329 3.096.986.84.658 1.26 1.534 1.26 2.627 0 1.667-.944 2.937-2.832 3.809v.04c2.187.78 3.281 2.115 3.281 4.003 0 1.328-.478 2.357-1.435 3.086-.957.723-2.237 1.084-3.838 1.084-1.354 0-2.474-.365-3.36-1.094-.885-.729-1.328-1.7-1.328-2.91 0-1.895 1.065-3.281 3.194-4.16v-.04zm4.062-3.583c0-.632-.202-1.13-.605-1.494-.398-.371-.931-.557-1.602-.557-.638 0-1.178.195-1.621.586-.436.39-.654.876-.654 1.455 0 1.185.742 2.08 2.226 2.686 1.504-.625 2.256-1.517 2.256-2.676zm-2.383 4.61c-1.751.696-2.627 1.715-2.627 3.056 0 .703.261 1.27.782 1.699.52.423 1.184.635 1.992.635.788 0 1.432-.209 1.933-.625.508-.417.762-.977.762-1.68 0-1.387-.947-2.415-2.842-3.086zm152.268 5.695L573.818 61h-2.392l5.566-13.154h-7.422v-1.973h10.02v.899zm11.074 1.318a5.122 5.122 0 00-2.48-.625c-1.302 0-2.331.553-3.086 1.66-.749 1.1-1.12 2.523-1.114 4.268h.049c.71-1.296 1.83-1.944 3.36-1.944 1.302 0 2.337.433 3.105 1.299.768.86 1.152 1.986 1.152 3.379 0 1.471-.462 2.695-1.386 3.672-.918.97-2.097 1.455-3.535 1.455-1.635 0-2.888-.615-3.76-1.846-.873-1.237-1.309-2.936-1.309-5.098 0-2.558.567-4.645 1.699-6.26 1.133-1.62 2.709-2.43 4.727-2.43 1.087 0 1.947.142 2.578.429v2.04zm-6.572 7.95c0 .943.247 1.744.742 2.401.495.651 1.139.977 1.934.977.787 0 1.412-.296 1.875-.889.468-.592.703-1.325.703-2.197 0-.983-.222-1.738-.664-2.266-.443-.533-1.088-.8-1.934-.8-.755 0-1.387.267-1.894.8-.508.534-.762 1.192-.762 1.973zm9.453 3.827c0-.397.143-.726.43-.986a1.47 1.47 0 011.025-.39c.391 0 .729.13 1.016.39.286.254.429.583.429.986 0 .378-.136.703-.41.977-.273.267-.625.4-1.055.4-.397 0-.735-.13-1.015-.39a1.309 1.309 0 01-.42-.987zm5.449-1.63a5.655 5.655 0 003.516 1.181c.97 0 1.745-.234 2.324-.703.579-.475.869-1.117.869-1.924 0-1.777-1.295-2.666-3.887-2.666h-1.289v-1.846h1.211c2.311 0 3.467-.83 3.467-2.49 0-1.55-.882-2.324-2.646-2.324-1.042 0-2.038.351-2.989 1.054v-2.05c.996-.567 2.175-.85 3.535-.85 1.303 0 2.367.332 3.194.996.833.658 1.25 1.546 1.25 2.666 0 1.986-1.009 3.252-3.028 3.8v.038c1.068.104 1.924.488 2.569 1.153.644.657.967 1.468.967 2.431 0 1.406-.511 2.516-1.534 3.33-1.015.814-2.34 1.22-3.974 1.22-1.478 0-2.663-.263-3.555-.79v-2.227zm11.914 0a5.655 5.655 0 003.516 1.181c.97 0 1.745-.234 2.324-.703.579-.475.869-1.117.869-1.924 0-1.777-1.295-2.666-3.887-2.666h-1.289v-1.846h1.211c2.312 0 3.467-.83 3.467-2.49 0-1.55-.882-2.324-2.646-2.324-1.042 0-2.038.351-2.989 1.054v-2.05c.996-.567 2.175-.85 3.536-.85 1.302 0 2.366.332 3.193.996.833.658 1.25 1.546 1.25 2.666 0 1.986-1.009 3.252-3.027 3.8v.038c1.067.104 1.923.488 2.568 1.153.644.657.967 1.468.967 2.431 0 1.406-.511 2.516-1.533 3.33-1.016.814-2.341 1.22-3.975 1.22-1.478 0-2.663-.263-3.555-.79v-2.227zm155.182-2.465L760.318 70h-2.392l5.566-13.154h-7.422v-1.973h10.02v.899zm12.187 10.497h-1.894V70h-2.178v-3.73h-6.924v-1.485l6.592-9.912h2.51v9.649h1.894v1.747zm-4.072-1.748v-5.918c0-.442.013-.95.039-1.523h-.039a8.966 8.966 0 01-.576 1.172l-4.16 6.27h4.736zm5.84 4.346c0-.397.143-.726.43-.986a1.47 1.47 0 011.025-.39c.391 0 .729.13 1.016.39.286.254.429.582.429.986 0 .378-.136.703-.41.977-.273.267-.625.4-1.055.4-.397 0-.735-.13-1.015-.39a1.309 1.309 0 01-.42-.987zm5.449-1.63a5.655 5.655 0 003.516 1.181c.97 0 1.745-.234 2.324-.703.579-.475.869-1.117.869-1.924 0-1.777-1.295-2.666-3.887-2.666h-1.289v-1.846h1.211c2.311 0 3.467-.83 3.467-2.49 0-1.55-.882-2.324-2.646-2.324-1.042 0-2.038.351-2.989 1.054v-2.05c.996-.567 2.175-.85 3.535-.85 1.303 0 2.367.332 3.194.996.833.658 1.25 1.546 1.25 2.666 0 1.986-1.009 3.252-3.028 3.8v.038c1.068.104 1.924.488 2.569 1.153.644.657.967 1.468.967 2.431 0 1.406-.511 2.516-1.534 3.33-1.015.814-2.34 1.22-3.974 1.22-1.478 0-2.663-.263-3.555-.79v-2.227zm14.649-5.186c-1.791-.801-2.686-1.999-2.686-3.594 0-1.152.446-2.08 1.338-2.783.892-.703 1.995-1.055 3.31-1.055 1.231 0 2.263.329 3.096.986.84.658 1.26 1.534 1.26 2.627 0 1.667-.944 2.937-2.832 3.809v.04c2.187.78 3.281 2.115 3.281 4.003 0 1.328-.478 2.357-1.435 3.086-.957.723-2.237 1.084-3.838 1.084-1.354 0-2.474-.365-3.36-1.094-.885-.729-1.328-1.7-1.328-2.91 0-1.894 1.065-3.281 3.194-4.16v-.04zm4.062-3.584c0-.632-.202-1.13-.605-1.494-.398-.371-.931-.557-1.602-.557-.638 0-1.178.195-1.621.586-.436.39-.654.876-.654 1.455 0 1.185.742 2.08 2.226 2.686 1.504-.625 2.256-1.517 2.256-2.676zm-2.383 4.61c-1.751.696-2.627 1.715-2.627 3.056 0 .703.261 1.27.782 1.699.52.423 1.184.635 1.992.635.788 0 1.432-.209 1.933-.625.508-.417.762-.977.762-1.68 0-1.387-.947-2.415-2.842-3.086zM955.25 92.09a5.122 5.122 0 00-2.48-.625c-1.303 0-2.331.553-3.086 1.66-.749 1.1-1.12 2.523-1.114 4.268h.049c.71-1.296 1.83-1.944 3.36-1.944 1.302 0 2.337.433 3.105 1.299.768.86 1.152 1.986 1.152 3.379 0 1.471-.462 2.695-1.386 3.672-.918.97-2.097 1.455-3.536 1.455-1.634 0-2.887-.615-3.759-1.846-.873-1.237-1.309-2.936-1.309-5.097 0-2.559.566-4.646 1.699-6.26 1.133-1.621 2.709-2.432 4.727-2.432 1.087 0 1.946.143 2.578.43v2.04zm-6.572 7.949c0 .944.247 1.745.742 2.402.495.651 1.139.977 1.934.977.787 0 1.412-.296 1.875-.889.468-.592.703-1.325.703-2.197 0-.983-.222-1.738-.664-2.266-.443-.533-1.088-.8-1.934-.8-.755 0-1.387.267-1.895.8-.507.534-.761 1.192-.761 1.973zm18.486-7.95a5.122 5.122 0 00-2.48-.624c-1.302 0-2.331.553-3.086 1.66-.749 1.1-1.12 2.523-1.114 4.268h.049c.71-1.296 1.83-1.944 3.36-1.944 1.302 0 2.337.433 3.105 1.299.768.86 1.152 1.986 1.152 3.379 0 1.471-.462 2.695-1.386 3.672-.918.97-2.097 1.455-3.535 1.455-1.635 0-2.888-.615-3.76-1.846-.873-1.237-1.309-2.936-1.309-5.097 0-2.559.567-4.646 1.699-6.26 1.133-1.621 2.709-2.432 4.727-2.432 1.087 0 1.947.143 2.578.43v2.04zm-6.572 7.95c0 .944.247 1.745.742 2.402.495.651 1.139.977 1.934.977.787 0 1.412-.296 1.875-.889.468-.592.703-1.325.703-2.197 0-.983-.222-1.738-.664-2.266-.443-.533-1.088-.8-1.934-.8-.755 0-1.387.267-1.894.8-.508.534-.762 1.192-.762 1.973zm9.453 3.828c0-.397.143-.726.43-.986a1.469 1.469 0 011.025-.391c.391 0 .729.13 1.016.391.286.254.429.583.429.986 0 .378-.136.703-.41.977-.273.267-.625.4-1.055.4-.397 0-.735-.13-1.015-.39a1.31 1.31 0 01-.42-.987zM984.518 105h-9.405v-1.914l4.385-4.317c.977-.957 1.696-1.783 2.158-2.48a3.992 3.992 0 00.703-2.275c0-1.673-.885-2.51-2.656-2.51-1.328 0-2.604.556-3.828 1.67v-2.207c1.23-.899 2.643-1.348 4.238-1.348 1.387 0 2.491.371 3.311 1.113.827.736 1.24 1.745 1.24 3.028 0 .924-.26 1.846-.781 2.763-.521.912-1.429 1.993-2.725 3.243l-3.359 3.203v.049h6.719V105zm12.412-14.228L991.158 105h-2.392l5.566-13.154h-7.422v-1.973h10.02v.898z" fill="#293840"/><path d="M24 34.804L210.52 8l191.091 8.711 189.263 14.743 182.863 8.04L963 73" stroke="#293840" stroke-width="4" stroke-linecap="round"/><circle cx="28.5" cy="34.5" r="6" fill="#fff" stroke="#293840" stroke-width="3"/><circle cx="217.5" cy="7.5" r="6" fill="#fff" stroke="#293840" stroke-width="3"/><circle cx="406.5" cy="15.5" r="6" fill="#fff" stroke="#293840" stroke-width="3"/><circle cx="592.5" cy="30.5" r="6" fill="#fff" stroke="#293840" stroke-width="3"/><circle cx="779.5" cy="39.5" r="6" fill="#fff" stroke="#293840" stroke-width="3"/><circle cx="969.5" cy="73.5" r="6" fill="#fff" stroke="#293840" stroke-width="3"/><path d="M13.63 51.194L8.438 64H6.283l5.01-11.839h-6.68v-1.775h9.018v.808zm9.968 1.187a4.61 4.61 0 00-2.233-.563c-1.172 0-2.097.498-2.777 1.495-.674.99-1.008 2.27-1.002 3.84h.044c.639-1.166 1.646-1.749 3.023-1.749 1.172 0 2.104.39 2.795 1.17.692.773 1.037 1.786 1.037 3.04 0 1.325-.416 2.426-1.248 3.305-.826.873-1.886 1.31-3.181 1.31-1.471 0-2.599-.554-3.384-1.662-.785-1.113-1.178-2.642-1.178-4.587 0-2.303.51-4.181 1.53-5.634 1.019-1.46 2.437-2.189 4.253-2.189.979 0 1.752.13 2.32.387v1.837zm-5.915 7.154c0 .85.222 1.57.668 2.162.445.586 1.025.88 1.74.88.709 0 1.271-.267 1.687-.8.422-.534.633-1.193.633-1.978 0-.885-.2-1.565-.598-2.04-.398-.48-.978-.72-1.74-.72-.68 0-1.248.24-1.705.72-.457.481-.685 1.073-.685 1.776zm8.507 3.446c0-.358.13-.654.387-.888.258-.235.566-.352.923-.352.352 0 .656.117.914.352.258.228.387.524.387.887a1.2 1.2 0 01-.37.88c-.245.24-.562.36-.949.36-.357 0-.662-.117-.914-.352a1.178 1.178 0 01-.378-.888zm4.369-5.529c0-2.39.407-4.204 1.221-5.44.82-1.237 2.007-1.855 3.56-1.855 2.959 0 4.438 2.324 4.438 6.97 0 2.273-.404 4.025-1.213 5.256-.808 1.23-1.98 1.845-3.515 1.845-1.483 0-2.602-.58-3.358-1.74-.756-1.16-1.133-2.839-1.133-5.036zm2.1-.079c0 3.469.841 5.203 2.523 5.203 1.658 0 2.487-1.77 2.487-5.308 0-3.633-.812-5.45-2.435-5.45-1.716 0-2.575 1.852-2.575 5.555zm17.974 3.27h-1.705V64h-1.96v-3.357h-6.232v-1.336l5.933-8.921h2.259v8.683h1.705v1.574zm-3.665-1.574v-5.326c0-.398.011-.855.035-1.37h-.035c-.147.362-.32.714-.519 1.054l-3.744 5.642h4.263z" fill="#293840"/></svg>