<svg width="279" height="278" fill="none" xmlns="http://www.w3.org/2000/svg"><path d="M4.695 15.063c-1.304-1.493-1.957-3.335-1.957-5.526 0-2.203.653-4.074 1.957-5.613h.89c-1.326 1.605-1.99 3.472-1.99 5.601 0 2.118.66 3.963 1.98 5.537h-.879zm1.518-8.86c0-.742.195-1.33.586-1.764.394-.433.924-.65 1.588-.65.64 0 1.138.203 1.494.61.36.402.539.96.539 1.675 0 .711-.2 1.29-.598 1.735-.394.441-.916.662-1.564.662-.625 0-1.123-.207-1.494-.621-.368-.418-.551-.967-.551-1.647zm.814-.058c0 .52.116.925.346 1.218.234.29.55.434.95.434.406 0 .722-.149.948-.445.227-.301.34-.717.34-1.248 0-.524-.113-.93-.34-1.22-.222-.288-.53-.433-.925-.433a1.15 1.15 0 00-.961.463c-.239.309-.358.719-.358 1.23zM14.3 3.924L8.486 13.07H7.62l5.813-9.146h.867zm-2.69 6.949c0-.738.196-1.328.586-1.77.39-.445.916-.667 1.576-.667.637 0 1.135.205 1.495.615.359.41.539.978.539 1.705 0 .715-.201 1.29-.604 1.728-.398.438-.916.657-1.553.657-.613 0-1.107-.207-1.482-.621-.371-.415-.557-.963-.557-1.647zm.803-.053c0 .508.117.909.352 1.201.238.293.552.44.943.44.406 0 .723-.15.95-.451.226-.305.34-.72.34-1.248s-.112-.932-.335-1.213c-.223-.281-.531-.422-.926-.422-.414 0-.738.152-.972.457-.235.3-.352.713-.352 1.236zm4.031 4.242c1.317-1.566 1.975-3.412 1.975-5.537 0-2.136-.664-4.004-1.992-5.601h.896c1.313 1.539 1.969 3.41 1.969 5.613 0 2.188-.656 4.03-1.969 5.525h-.879zM5.076 27.717c.617.402 1.246.603 1.887.603.64 0 1.162-.183 1.564-.55.403-.372.604-.862.604-1.471 0-.613-.201-1.088-.604-1.424-.402-.336-.982-.504-1.74-.504-.238 0-.713.024-1.424.07v-4.517h4.348v.89H6.295v2.72c.34-.02.598-.03.773-.03.953 0 1.7.24 2.239.72.543.477.814 1.149.814 2.016 0 .903-.293 1.614-.879 2.133-.586.52-1.355.78-2.308.78-.836 0-1.455-.126-1.858-.376v-1.06zm6.961 0c.617.402 1.246.603 1.887.603.64 0 1.162-.183 1.564-.55.403-.372.604-.862.604-1.471 0-.613-.201-1.088-.604-1.424-.402-.336-.982-.504-1.74-.504-.238 0-.713.024-1.424.07v-4.517h4.348v.89h-3.416v2.72c.34-.02.598-.03.773-.03.953 0 1.7.24 2.239.72.543.477.814 1.149.814 2.016 0 .903-.293 1.614-.879 2.133-.586.52-1.355.78-2.308.78-.836 0-1.455-.126-1.858-.376v-1.06zm-7.461 23c.617.402 1.246.603 1.887.603.64 0 1.162-.183 1.564-.55.403-.372.604-.862.604-1.471 0-.614-.201-1.088-.604-1.424-.402-.336-.982-.504-1.74-.504-.238 0-.713.023-1.424.07v-4.517h4.348v.89H5.795v2.72c.34-.02.598-.03.773-.03.953 0 1.7.24 2.239.72.543.477.814 1.149.814 2.016 0 .903-.293 1.613-.879 2.133-.586.52-1.355.78-2.308.78-.836 0-1.455-.126-1.858-.376v-1.06zm6.475-3.07c0-1.602.26-2.815.78-3.64.523-.823 1.276-1.235 2.26-1.235 1.888 0 2.83 1.55 2.83 4.652 0 1.508-.259 2.674-.778 3.498-.516.82-1.268 1.23-2.256 1.23-.922 0-1.625-.394-2.11-1.183-.484-.79-.726-1.897-.726-3.322zm.996-.053c0 2.484.648 3.726 1.945 3.726 1.285 0 1.928-1.26 1.928-3.779 0-2.621-.627-3.932-1.88-3.932-1.33 0-1.993 1.328-1.993 3.985zm-1.498 23.969H9.377V74h-.973v-2.438H4.115v-.644l4.055-5.994h1.207v5.83h1.172v.808zm-2.145-.81v-3.995c0-.277.008-.592.024-.944h-.024a8.889 8.889 0 01-.345.698l-2.854 4.242h3.2zm3.633 1.964c.617.402 1.246.603 1.887.603.64 0 1.162-.183 1.564-.55.403-.372.604-.862.604-1.471 0-.614-.201-1.088-.604-1.424-.402-.336-.982-.504-1.74-.504-.238 0-.713.023-1.424.07v-4.517h4.348v.89h-3.416v2.72c.34-.02.598-.03.773-.03.953 0 1.7.24 2.239.72.543.477.814 1.149.814 2.016 0 .903-.293 1.614-.879 2.133-.586.52-1.355.78-2.308.78-.836 0-1.455-.126-1.858-.376v-1.06zm-1.988 19.846H8.877V95h-.973v-2.438H3.615v-.644l4.055-5.994h1.207v5.83h1.172v.808zm-2.145-.81v-3.995c0-.277.008-.592.024-.944h-.024a8.889 8.889 0 01-.345.698l-2.854 4.242h3.2zm3.147-1.106c0-1.602.26-2.815.78-3.64.523-.823 1.276-1.236 2.26-1.236 1.888 0 2.83 1.551 2.83 4.653 0 1.508-.259 2.674-.778 3.498-.516.82-1.268 1.23-2.256 1.23-.922 0-1.625-.394-2.11-1.183-.484-.79-.726-1.897-.726-3.322zm.996-.053c0 2.484.648 3.726 1.945 3.726 1.285 0 1.928-1.26 1.928-3.779 0-2.621-.627-3.932-1.88-3.932-1.33 0-1.993 1.329-1.993 3.985zM4.86 114.582c.62.492 1.32.738 2.097.738.625 0 1.133-.158 1.523-.474.395-.317.592-.752.592-1.307 0-1.211-.853-1.816-2.56-1.816h-.75v-.838h.715c1.515 0 2.273-.567 2.273-1.699 0-1.051-.578-1.577-1.734-1.577-.641 0-1.243.221-1.805.662v-.978c.578-.348 1.262-.522 2.05-.522.72 0 1.313.198 1.782.592.473.395.709.918.709 1.571 0 1.187-.607 1.957-1.822 2.308v.024c.644.054 1.162.281 1.552.679.395.399.592.895.592 1.489 0 .828-.299 1.488-.896 1.98-.594.492-1.354.738-2.28.738-.851 0-1.53-.162-2.039-.486v-1.084zm7.177.135c.617.402 1.246.603 1.887.603.64 0 1.162-.183 1.564-.55.403-.372.604-.862.604-1.471 0-.613-.201-1.088-.604-1.424-.402-.336-.982-.504-1.74-.504-.238 0-.713.024-1.424.07v-4.517h4.348v.89h-3.416v2.719c.34-.019.598-.029.773-.029.953 0 1.7.24 2.239.721.543.476.814 1.148.814 2.015 0 .903-.293 1.614-.879 2.133-.586.52-1.355.779-2.308.779-.836 0-1.455-.125-1.858-.375v-1.06zM4.36 134.582c.62.492 1.32.738 2.097.738.625 0 1.133-.158 1.523-.474.395-.317.592-.752.592-1.307 0-1.211-.853-1.816-2.56-1.816h-.75v-.838h.715c1.515 0 2.273-.567 2.273-1.699 0-1.051-.578-1.577-1.734-1.577-.641 0-1.243.221-1.805.662v-.978c.578-.348 1.262-.522 2.05-.522.72 0 1.313.198 1.782.592.473.395.709.918.709 1.571 0 1.187-.607 1.957-1.822 2.308v.024c.644.054 1.162.281 1.552.679.395.399.592.895.592 1.489 0 .828-.299 1.488-.896 1.98-.594.492-1.354.738-2.28.738-.851 0-1.53-.162-2.039-.486v-1.084zm6.69-2.936c0-1.601.26-2.814.78-3.638.524-.824 1.277-1.237 2.262-1.237 1.886 0 2.83 1.551 2.83 4.653 0 1.508-.26 2.674-.78 3.498-.515.82-1.267 1.23-2.255 1.23-.922 0-1.625-.394-2.11-1.183-.484-.789-.726-1.897-.726-3.323zm.997-.052c0 2.484.648 3.726 1.945 3.726 1.285 0 1.928-1.259 1.928-3.779 0-2.621-.627-3.932-1.88-3.932-1.33 0-1.993 1.329-1.993 3.985zM10.074 157H4.643v-.885l2.642-2.66c.875-.883 1.412-1.521 1.611-1.916.204-.398.305-.82.305-1.266 0-.535-.152-.947-.457-1.236-.3-.289-.734-.433-1.3-.433-.81 0-1.587.349-2.333 1.048v-1.043c.7-.558 1.52-.838 2.461-.838.782 0 1.407.217 1.875.651.473.433.71 1.021.71 1.764 0 .57-.157 1.132-.47 1.687-.308.551-.894 1.258-1.757 2.121l-2.116 2.092v.023h4.26V157zm1.963-1.283c.617.402 1.246.603 1.887.603.64 0 1.162-.183 1.564-.55.403-.372.604-.862.604-1.471 0-.613-.201-1.088-.604-1.424-.402-.336-.982-.504-1.74-.504-.238 0-.713.024-1.424.07v-4.517h4.348v.89h-3.416v2.719c.34-.019.598-.029.773-.029.953 0 1.7.24 2.239.721.543.476.814 1.148.814 2.015 0 .903-.293 1.614-.879 2.133-.586.52-1.355.779-2.308.779-.836 0-1.455-.125-1.858-.375v-1.06z" fill="#000" fill-opacity=".7"/><path d="M42.18 175.748c0-1.602.26-2.814.78-3.639.523-.824 1.277-1.236 2.261-1.236 1.887 0 2.83 1.551 2.83 4.652 0 1.508-.26 2.674-.779 3.498-.516.821-1.268 1.231-2.256 1.231-.922 0-1.625-.395-2.11-1.184-.484-.789-.726-1.896-.726-3.322zm.996-.053c0 2.485.649 3.727 1.946 3.727 1.285 0 1.927-1.26 1.927-3.779 0-2.622-.627-3.932-1.88-3.932-1.329 0-1.993 1.328-1.993 3.984zm11.625 4.407h-5.097v-.873h2.062v-7.137l-2.115.638v-.943l3.094-.967v8.409H54.8v.873zm-2.765 2.507c-.942.735-2.117 1.375-3.528 1.922l-.328-.527c1.36-.477 2.48-1.065 3.364-1.764l.492.369zm-3.95 5.842h-1.98v4.272h-.61v-4.272h-2.068v-.539h.545v-5.361h3.563v5.361h.55v.539zm-1.154-4.617v-.732h-2.385v.732h2.385zm0 1.283v-.767h-2.385v.767h2.385zm0 1.354v-.838h-2.385v.838h2.385zm0 1.441v-.908h-2.385v.908h2.385zm6.95 1.055l-.528.293a4.674 4.674 0 00-.469-.832c-.55.078-1.062.138-1.535.181v3.241a.856.856 0 01-.2.574c-.128.156-.259.244-.392.264-.129.023-.488.035-1.078.035l-.21-.563c.152.008.454.012.907.012.079 0 .157-.037.235-.111.078-.079.117-.157.117-.235v-3.123c-.484.051-1.236.108-2.256.17l-.135-.551a10.345 10.345 0 002.83-1.922c-.714.114-1.574.194-2.578.241l-.146-.493c.976-.558 1.865-1.334 2.666-2.326l.662.182c-.54.672-1.232 1.332-2.08 1.98a16.378 16.378 0 002.139-.228c.367-.371.664-.68.89-.926l.551.334c-1.25 1.348-2.47 2.377-3.662 3.088.988-.07 1.965-.191 2.93-.363a5.371 5.371 0 00-.493-.674l.551-.287c.531.687.96 1.367 1.283 2.039zm-5.842 1.74l-.528.281a9.426 9.426 0 00-.767-1.529l.527-.264c.309.496.565 1 .768 1.512zm-3.17-1.283c-.254.961-.586 1.805-.996 2.531l-.54-.31c.352-.602.672-1.415.961-2.438l.575.217zm5.086.375c-.457.937-.973 1.732-1.547 2.385l-.54-.346c.567-.59 1.09-1.365 1.571-2.326l.516.287zm3.96 2.144l-.538.264c-.231-.652-.65-1.463-1.26-2.432l.527-.252c.543.836.967 1.643 1.271 2.42zm-.14 4.407h-4.899v1.898h4.067v4.488c0 .266-.074.477-.223.633a.88.88 0 01-.55.264c-.215.023-.713.027-1.495.012l-.322-.645c.281.016.563.023.844.023.527 0 .846-.027.955-.082.113-.058.17-.156.17-.293v-3.779h-3.446v5.871h-.632v-5.871h-3.41v4.776h-.65v-5.397h4.06v-1.898h-4.91v-.627h5.05c-.207-.379-.515-.807-.925-1.284l.591-.298c.32.324.692.851 1.114 1.582h4.61v.627zm.094 15.685h-8.21v3.744a37.41 37.41 0 002.714-.914l.146.598a45.065 45.065 0 01-3.457 1.154l-.229-.633c.13-.066.194-.16.194-.281v-3.668h-1.6v-.58h1.91v-4.939h7.823v.586h-7.184v1.054h6.55v.592h-6.55v1.055h6.55v.574h-6.55v1.078h7.893v.58zm-.059 4.008l-.352.574c-1.296-.308-2.425-.746-3.386-1.312-.961-.567-1.692-1.397-2.192-2.491l.551-.252c.434.829.906 1.44 1.418 1.834.824-.429 1.66-1.025 2.508-1.787l.457.411c-.566.558-1.367 1.146-2.402 1.763.968.567 2.101.987 3.398 1.26zm108.369-40.295c0-1.602.26-2.814.78-3.639.523-.824 1.277-1.236 2.261-1.236 1.887 0 2.83 1.551 2.83 4.652 0 1.508-.259 2.674-.779 3.498-.516.821-1.268 1.231-2.256 1.231-.922 0-1.625-.395-2.109-1.184-.485-.789-.727-1.896-.727-3.322zm.996-.053c0 2.485.649 3.727 1.946 3.727 1.285 0 1.927-1.26 1.927-3.779 0-2.622-.627-3.932-1.881-3.932-1.328 0-1.992 1.328-1.992 3.984zm6.51 3.299a3.245 3.245 0 001.6.428c.824 0 1.468-.336 1.933-1.008.465-.676.698-1.635.698-2.877-.008.008-.016.008-.024 0-.391.789-1.07 1.184-2.039 1.184-.781 0-1.42-.268-1.916-.803s-.744-1.209-.744-2.022c0-.863.264-1.582.791-2.156.531-.578 1.232-.867 2.103-.867.911 0 1.608.357 2.092 1.072.485.711.727 1.735.727 3.071 0 1.648-.319 2.933-.955 3.855-.633.922-1.535 1.383-2.707 1.383-.606 0-1.125-.102-1.559-.305v-.955zm.51-5.244c0 .633.166 1.141.498 1.523.332.379.789.569 1.371.569.516 0 .941-.17 1.277-.51.34-.344.51-.758.51-1.242 0-.676-.17-1.24-.51-1.694-.336-.457-.785-.685-1.347-.685-.528 0-.959.199-1.295.598-.336.394-.504.875-.504 1.441zm1.84 8.859c-.942.735-2.118 1.375-3.528 1.922l-.328-.527c1.36-.477 2.481-1.065 3.363-1.764l.493.369zm-3.95 5.842h-1.98v4.272h-.609v-4.272h-2.069v-.539h.545v-5.361h3.563v5.361h.55v.539zm-1.154-4.617v-.732h-2.385v.732h2.385zm0 1.283v-.767h-2.385v.767h2.385zm0 1.354v-.838h-2.385v.838h2.385zm0 1.441v-.908h-2.385v.908h2.385zm6.949 1.055l-.527.293a4.633 4.633 0 00-.469-.832c-.55.078-1.062.138-1.535.181v3.241a.855.855 0 01-.199.574c-.129.156-.26.244-.393.264-.129.023-.488.035-1.078.035l-.211-.563c.153.008.455.012.908.012.079 0 .157-.037.235-.111.078-.079.117-.157.117-.235v-3.123c-.484.051-1.236.108-2.256.17l-.135-.551a10.336 10.336 0 002.83-1.922c-.714.114-1.574.194-2.578.241l-.146-.493c.976-.558 1.865-1.334 2.666-2.326l.662.182c-.539.672-1.232 1.332-2.08 1.98a16.39 16.39 0 002.139-.228c.367-.371.664-.68.89-.926l.551.334c-1.25 1.348-2.471 2.377-3.662 3.088.988-.07 1.965-.191 2.93-.363a5.378 5.378 0 00-.493-.674l.551-.287c.531.687.959 1.367 1.283 2.039zm-5.841 1.74l-.528.281a9.426 9.426 0 00-.767-1.529l.527-.264c.309.496.564 1 .768 1.512zm-3.17-1.283c-.254.961-.586 1.805-.996 2.531l-.539-.31c.351-.602.671-1.415.96-2.438l.575.217zm5.086.375c-.457.937-.973 1.732-1.547 2.385l-.539-.346c.566-.59 1.09-1.365 1.57-2.326l.516.287zm3.961 2.144l-.54.264c-.23-.652-.65-1.463-1.259-2.432l.527-.252c.543.836.967 1.643 1.272 2.42zm-.141 4.407h-4.899v1.898h4.067v4.488c0 .266-.074.477-.223.633a.879.879 0 01-.551.264c-.214.023-.712.027-1.494.012l-.322-.645c.281.016.563.023.844.023.527 0 .845-.027.955-.082.113-.058.17-.156.17-.293v-3.779h-3.446v5.871h-.632v-5.871h-3.41v4.776h-.651v-5.397h4.061v-1.898h-4.91v-.627h5.05c-.207-.379-.515-.807-.925-1.284l.591-.298c.321.324.692.851 1.114 1.582h4.611v.627zm.094 15.685h-8.209v3.744a37.508 37.508 0 002.713-.914l.146.598a45.152 45.152 0 01-3.457 1.154l-.228-.633c.128-.066.193-.16.193-.281v-3.668h-1.6v-.58h1.91v-4.939h7.823v.586h-7.184v1.054h6.551v.592h-6.551v1.055h6.551v.574h-6.551v1.078h7.893v.58zm-.059 4.008l-.351.574c-1.297-.308-2.426-.746-3.387-1.312-.961-.567-1.692-1.397-2.192-2.491l.551-.252c.434.829.906 1.44 1.418 1.834.824-.429 1.66-1.025 2.508-1.787l.457.411c-.566.558-1.367 1.146-2.402 1.763.968.567 2.101.987 3.398 1.26zm-71.631-40.295c0-1.602.26-2.814.78-3.639.523-.824 1.277-1.236 2.261-1.236 1.887 0 2.83 1.551 2.83 4.652 0 1.508-.259 2.674-.779 3.498-.516.821-1.268 1.231-2.256 1.231-.922 0-1.625-.395-2.109-1.184-.485-.789-.727-1.896-.727-3.322zm.996-.053c0 2.485.649 3.727 1.946 3.727 1.285 0 1.927-1.26 1.927-3.779 0-2.622-.627-3.932-1.881-3.932-1.328 0-1.992 1.328-1.992 3.984zm6.451 3.123c.618.403 1.247.604 1.887.604.641 0 1.162-.184 1.565-.551.402-.371.603-.861.603-1.471 0-.613-.201-1.088-.603-1.423-.403-.336-.983-.504-1.741-.504-.238 0-.712.023-1.423.07v-4.518h4.347v.891h-3.416v2.719c.34-.02.598-.03.774-.03.953 0 1.699.241 2.238.721.543.477.814 1.149.814 2.016 0 .902-.293 1.613-.879 2.133-.585.519-1.355.779-2.308.779-.836 0-1.455-.125-1.858-.375v-1.061zm2.409 3.791c-.942.735-2.118 1.375-3.528 1.922l-.328-.527c1.36-.477 2.481-1.065 3.363-1.764l.493.369zm-3.95 5.842h-1.98v4.272h-.609v-4.272h-2.069v-.539h.545v-5.361h3.563v5.361h.55v.539zm-1.154-4.617v-.732h-2.385v.732h2.385zm0 1.283v-.767h-2.385v.767h2.385zm0 1.354v-.838h-2.385v.838h2.385zm0 1.441v-.908h-2.385v.908h2.385zm6.949 1.055l-.527.293a4.633 4.633 0 00-.469-.832c-.55.078-1.062.138-1.535.181v3.241a.855.855 0 01-.199.574c-.129.156-.26.244-.393.264-.129.023-.488.035-1.078.035l-.211-.563c.153.008.455.012.908.012.079 0 .157-.037.235-.111.078-.079.117-.157.117-.235v-3.123c-.484.051-1.236.108-2.256.17l-.135-.551a10.336 10.336 0 002.83-1.922c-.714.114-1.574.194-2.578.241l-.146-.493c.976-.558 1.865-1.334 2.666-2.326l.662.182c-.539.672-1.232 1.332-2.08 1.98a16.39 16.39 0 002.139-.228c.367-.371.664-.68.89-.926l.551.334c-1.25 1.348-2.471 2.377-3.662 3.088.988-.07 1.965-.191 2.93-.363a5.378 5.378 0 00-.493-.674l.551-.287c.531.687.959 1.367 1.283 2.039zm-5.841 1.74l-.528.281a9.426 9.426 0 00-.767-1.529l.527-.264c.309.496.564 1 .768 1.512zm-3.17-1.283c-.254.961-.586 1.805-.996 2.531l-.539-.31c.351-.602.671-1.415.96-2.438l.575.217zm5.086.375c-.457.937-.973 1.732-1.547 2.385l-.539-.346c.566-.59 1.09-1.365 1.57-2.326l.516.287zm3.961 2.144l-.54.264c-.23-.652-.65-1.463-1.259-2.432l.527-.252c.543.836.967 1.643 1.272 2.42zm-.141 4.407h-4.899v1.898h4.067v4.488c0 .266-.074.477-.223.633a.879.879 0 01-.551.264c-.214.023-.712.027-1.494.012l-.322-.645c.281.016.563.023.844.023.527 0 .845-.027.955-.082.113-.058.17-.156.17-.293v-3.779h-3.446v5.871h-.632v-5.871h-3.41v4.776h-.651v-5.397h4.061v-1.898h-4.91v-.627h5.05c-.207-.379-.515-.807-.925-1.284l.591-.298c.321.324.692.851 1.114 1.582h4.611v.627zm.094 15.685h-8.209v3.744a37.508 37.508 0 002.713-.914l.146.598a45.152 45.152 0 01-3.457 1.154l-.228-.633c.128-.066.193-.16.193-.281v-3.668h-1.6v-.58h1.91v-4.939h7.823v.586h-7.184v1.054h6.551v.592h-6.551v1.055h6.551v.574h-6.551v1.078h7.893v.58zm-.059 4.008l-.351.574c-1.297-.308-2.426-.746-3.387-1.312-.961-.567-1.692-1.397-2.192-2.491l.551-.252c.434.829.906 1.44 1.418 1.834.824-.429 1.66-1.025 2.508-1.787l.457.411c-.566.558-1.367 1.146-2.402 1.763.968.567 2.101.987 3.398 1.26zM62.18 175.748c0-1.602.26-2.814.78-3.639.523-.824 1.277-1.236 2.261-1.236 1.887 0 2.83 1.551 2.83 4.652 0 1.508-.26 2.674-.779 3.498-.516.821-1.268 1.231-2.256 1.231-.922 0-1.625-.395-2.11-1.184-.484-.789-.726-1.896-.726-3.322zm.996-.053c0 2.485.649 3.727 1.946 3.727 1.285 0 1.927-1.26 1.927-3.779 0-2.622-.627-3.932-1.88-3.932-1.329 0-1.993 1.328-1.993 3.984zm11.45 4.407h-5.432v-.885l2.642-2.66c.876-.883 1.413-1.522 1.612-1.916.203-.399.305-.821.305-1.266 0-.535-.153-.947-.458-1.236-.3-.289-.734-.434-1.3-.434-.809 0-1.586.35-2.332 1.049v-1.043c.699-.559 1.52-.838 2.46-.838.782 0 1.407.217 1.876.65.472.434.709 1.022.709 1.764 0 .57-.157 1.133-.47 1.688-.308.55-.894 1.257-1.757 2.121l-2.115 2.092v.023h4.26v.891zm-.791 12.322H63.393v-.563h1.863v-6.662h2.485a8.73 8.73 0 00.463-1.137h-4.606v-.562h4.81a16.78 16.78 0 00.376-1.277l.597.134c-.144.563-.248.944-.31 1.143h4.594v.562h-4.788a33.79 33.79 0 01-.445 1.137h3.545v6.662h1.858v.563zm-2.508-5.531v-1.125h-5.438v1.125h5.438zm0 1.646v-1.119h-5.438v1.119h5.438zm0 1.664v-1.125h-5.438v1.125h5.438zm0 1.658v-1.125h-5.438v1.125h5.438zm2.35 5.209h-.598v-1.295H68.66v1.295h-.598v-1.875h2.508a3.767 3.767 0 00-.387-.896l.604-.17c.199.398.338.754.416 1.066h2.472v1.875zm-5.796 5.953h-1.968v1.641h-.586v-1.641h-1.91v-.58h1.91v-1.089h-1.512v-4.489h1.512v-1.09h-1.764v-.591h1.764v-.996h.586v.996h1.716v.591h-1.716v1.09h1.547v4.489h-1.547v1.089h1.968v.58zm-1.03-4.283v-1.312h-.938v1.312h.937zm-1.524 0v-1.312H64.4v1.312h.926zm1.523 2.039v-1.476h-.937v1.476h.937zm-1.523 0v-1.476H64.4v1.476h.926zm8.508-.158h-5.918v-.562h2.689v-1.043h-2.133v-.569h2.133v-.92l-1.453.082-.217-.562c.441 0 .998-.033 1.67-.1v-.767h.586v.685a6.882 6.882 0 001.324-.228l.275.515c-.488.129-1.021.225-1.6.287v1.008h2.081v.569h-2.08v1.043h2.643v.562zm-.78 4.067h-.615v-.563h-3.129v.563h-.627v-3.252h4.371v3.252zm-.615-1.149v-1.547h-3.129v1.547h3.129zm1.336 4.811h-4.898v1.898h4.066v4.488c0 .266-.074.477-.223.633a.88.88 0 01-.55.264c-.215.023-.714.027-1.495.012l-.322-.645c.281.016.563.023.844.023.527 0 .846-.027.955-.082.113-.058.17-.156.17-.293v-3.779h-3.445v5.871h-.633v-5.871h-3.41v4.776h-.65v-5.397h4.06v-1.898h-4.91v-.627h5.05c-.207-.379-.515-.807-.925-1.284l.591-.298c.32.324.692.851 1.114 1.582h4.61v.627zm.094 15.685h-8.21v3.744a37.41 37.41 0 002.714-.914l.146.598a45.065 45.065 0 01-3.457 1.154l-.228-.633c.128-.066.193-.16.193-.281v-3.668h-1.6v-.58h1.91v-4.939h7.823v.586h-7.184v1.054h6.55v.592h-6.55v1.055h6.55v.574h-6.55v1.078h7.893v.58zm-.059 4.008l-.352.574c-1.296-.308-2.425-.746-3.386-1.312-.961-.567-1.692-1.397-2.192-2.491l.551-.252c.434.829.906 1.44 1.418 1.834.824-.429 1.66-1.025 2.508-1.787l.457.411c-.566.558-1.367 1.146-2.402 1.763.968.567 2.101.987 3.398 1.26zm152.029-47.941h-5.097v-.873h2.062v-7.137l-2.115.638v-.943l3.094-.967v8.409h2.056v.873zm7.26-2.438h-1.172v2.438h-.972v-2.438h-4.289v-.644l4.054-5.995h1.207v5.83h1.172v.809zm-2.144-.809v-3.996c0-.277.007-.591.023-.943h-.023a9.36 9.36 0 01-.346.697l-2.854 4.242h3.2zm.879 15.569h-10.442v-.563h1.863v-6.662h2.485c.136-.261.291-.64.463-1.137h-4.606v-.562h4.811c.187-.578.312-1.004.375-1.277l.597.134c-.144.563-.248.944-.31 1.143h4.594v.562h-4.788c-.085.239-.234.618-.445 1.137h3.545v6.662h1.858v.563zm-2.508-5.531v-1.125h-5.438v1.125h5.438zm0 1.646v-1.119h-5.438v1.119h5.438zm0 1.664v-1.125h-5.438v1.125h5.438zm0 1.658v-1.125h-5.438v1.125h5.438zm2.349 5.209h-.597v-1.295h-4.418v1.295h-.598v-1.875h2.508a3.76 3.76 0 00-.387-.896l.604-.17c.199.398.338.754.416 1.066h2.472v1.875zm-5.795 5.953h-1.968v1.641h-.586v-1.641h-1.91v-.58h1.91v-1.089h-1.512v-4.489h1.512v-1.09h-1.764v-.591h1.764v-.996h.586v.996h1.716v.591h-1.716v1.09h1.547v4.489h-1.547v1.089h1.968v.58zm-1.031-4.283v-1.312h-.937v1.312h.937zm-1.523 0v-1.312h-.926v1.312h.926zm1.523 2.039v-1.476h-.937v1.476h.937zm-1.523 0v-1.476h-.926v1.476h.926zm8.508-.158h-5.918v-.562h2.689v-1.043h-2.133v-.569h2.133v-.92l-1.453.082-.217-.562c.441 0 .998-.033 1.67-.1v-.767h.586v.685a6.88 6.88 0 001.324-.228l.276.515c-.489.129-1.022.225-1.6.287v1.008h2.08v.569h-2.08v1.043h2.643v.562zm-.78 4.067h-.615v-.563h-3.129v.563h-.627v-3.252h4.371v3.252zm-.615-1.149v-1.547h-3.129v1.547h3.129zm-.404 3.07c-.942.735-2.118 1.375-3.528 1.922l-.328-.527c1.36-.477 2.481-1.065 3.363-1.764l.493.369zm-3.95 5.842h-1.98v4.272h-.609v-4.272h-2.069v-.539h.545v-5.361h3.563v5.361h.55v.539zm-1.154-4.617v-.732h-2.385v.732h2.385zm0 1.283v-.767h-2.385v.767h2.385zm0 1.354v-.838h-2.385v.838h2.385zm0 1.441v-.908h-2.385v.908h2.385zm6.949 1.055l-.527.293a4.633 4.633 0 00-.469-.832c-.55.078-1.062.138-1.535.181v3.241a.855.855 0 01-.199.574c-.129.156-.26.244-.393.264-.129.023-.488.035-1.078.035l-.211-.563c.153.008.455.012.908.012.079 0 .157-.037.235-.111.078-.079.117-.157.117-.235v-3.123c-.484.051-1.236.108-2.256.17l-.135-.551a10.336 10.336 0 002.83-1.922c-.714.114-1.574.194-2.578.241l-.146-.493c.976-.558 1.865-1.334 2.666-2.326l.662.182c-.539.672-1.232 1.332-2.08 1.98a16.39 16.39 0 002.139-.228c.367-.371.664-.68.89-.926l.551.334c-1.25 1.348-2.471 2.377-3.662 3.088.988-.07 1.965-.191 2.93-.363a5.378 5.378 0 00-.493-.674l.551-.287c.531.687.959 1.367 1.283 2.039zm-5.841 1.74l-.528.281a9.426 9.426 0 00-.767-1.529l.527-.264c.309.496.564 1 .768 1.512zm-3.17-1.283c-.254.961-.586 1.805-.996 2.531l-.539-.31c.351-.602.671-1.415.96-2.438l.575.217zm5.086.375c-.457.937-.973 1.732-1.547 2.385l-.539-.346c.566-.59 1.09-1.365 1.57-2.326l.516.287zm3.961 2.144l-.54.264c-.23-.652-.65-1.463-1.259-2.432l.527-.252c.543.836.967 1.643 1.272 2.42zm-.141 4.407h-4.899v1.898h4.067v4.488c0 .266-.074.477-.223.633a.879.879 0 01-.551.264c-.214.023-.712.027-1.494.012l-.322-.645c.281.016.563.023.844.023.527 0 .845-.027.955-.082.113-.058.17-.156.17-.293v-3.779h-3.446v5.871h-.632v-5.871h-3.41v4.776h-.651v-5.397h4.061v-1.898h-4.91v-.627h5.05c-.207-.379-.515-.807-.925-1.284l.591-.298c.321.324.692.851 1.114 1.582h4.611v.627zm.094 15.685h-8.209v3.744a37.508 37.508 0 002.713-.914l.146.598a45.152 45.152 0 01-3.457 1.154l-.228-.633c.128-.066.193-.16.193-.281v-3.668h-1.6v-.58h1.91v-4.939h7.823v.586h-7.184v1.054h6.551v.592h-6.551v1.055h6.551v.574h-6.551v1.078h7.893v.58zm-.059 4.008l-.351.574c-1.297-.308-2.426-.746-3.387-1.312-.961-.567-1.692-1.397-2.192-2.491l.551-.252c.434.829.906 1.44 1.418 1.834.824-.429 1.66-1.025 2.508-1.787l.457.411c-.566.558-1.367 1.146-2.402 1.763.968.567 2.101.987 3.398 1.26zm34.029-59.941h-5.097v-.873h2.062v-7.137l-2.115.638v-.943l3.094-.967v8.409h2.056v.873zm3.364-4.782c-1.094-.515-1.641-1.254-1.641-2.215 0-.664.254-1.201.762-1.611.508-.414 1.136-.621 1.886-.621.672 0 1.241.193 1.706.58.464.383.697.887.697 1.512 0 1.008-.563 1.793-1.688 2.355v.024c1.325.5 1.987 1.32 1.987 2.461 0 .773-.276 1.375-.827 1.804-.55.43-1.287.645-2.209.645-.753 0-1.384-.217-1.892-.65-.504-.438-.756-1.008-.756-1.711 0-1.164.658-2.014 1.975-2.549v-.024zm2.396-2.226c0-.43-.137-.766-.41-1.008-.27-.246-.629-.369-1.078-.369-.414 0-.774.129-1.078.387a1.201 1.201 0 00-.457.966c0 .805.498 1.412 1.494 1.823 1.019-.43 1.529-1.03 1.529-1.799zm-1.599 2.724c-1.176.469-1.764 1.145-1.764 2.028 0 .488.176.873.527 1.154.352.277.799.416 1.342.416.523 0 .955-.139 1.295-.416.34-.281.51-.652.51-1.113 0-.922-.637-1.612-1.91-2.069zm1.834 16.606h-10.442v-.563h1.863v-6.662h2.485c.136-.261.291-.64.463-1.137h-4.606v-.562h4.811c.187-.578.312-1.004.375-1.277l.597.134c-.144.563-.248.944-.31 1.143h4.594v.562h-4.788c-.085.239-.234.618-.445 1.137h3.545v6.662h1.858v.563zm-2.508-5.531v-1.125h-5.438v1.125h5.438zm0 1.646v-1.119h-5.438v1.119h5.438zm0 1.664v-1.125h-5.438v1.125h5.438zm0 1.658v-1.125h-5.438v1.125h5.438zm2.349 5.209h-.597v-1.295h-4.418v1.295h-.598v-1.875h2.508a3.76 3.76 0 00-.387-.896l.604-.17c.199.398.338.754.416 1.066h2.472v1.875zm-5.795 5.953h-1.968v1.641h-.586v-1.641h-1.91v-.58h1.91v-1.089h-1.512v-4.489h1.512v-1.09h-1.764v-.591h1.764v-.996h.586v.996h1.716v.591h-1.716v1.09h1.547v4.489h-1.547v1.089h1.968v.58zm-1.031-4.283v-1.312h-.937v1.312h.937zm-1.523 0v-1.312h-.926v1.312h.926zm1.523 2.039v-1.476h-.937v1.476h.937zm-1.523 0v-1.476h-.926v1.476h.926zm8.508-.158h-5.918v-.562h2.689v-1.043h-2.133v-.569h2.133v-.92l-1.453.082-.217-.562c.441 0 .998-.033 1.67-.1v-.767h.586v.685a6.88 6.88 0 001.324-.228l.276.515c-.489.129-1.022.225-1.6.287v1.008h2.08v.569h-2.08v1.043h2.643v.562zm-.78 4.067h-.615v-.563h-3.129v.563h-.627v-3.252h4.371v3.252zm-.615-1.149v-1.547h-3.129v1.547h3.129zm-.404 3.07c-.942.735-2.118 1.375-3.528 1.922l-.328-.527c1.36-.477 2.481-1.065 3.363-1.764l.493.369zm-3.95 5.842h-1.98v4.272h-.609v-4.272h-2.069v-.539h.545v-5.361h3.563v5.361h.55v.539zm-1.154-4.617v-.732h-2.385v.732h2.385zm0 1.283v-.767h-2.385v.767h2.385zm0 1.354v-.838h-2.385v.838h2.385zm0 1.441v-.908h-2.385v.908h2.385zm6.949 1.055l-.527.293a4.633 4.633 0 00-.469-.832c-.55.078-1.062.138-1.535.181v3.241a.855.855 0 01-.199.574c-.129.156-.26.244-.393.264-.129.023-.488.035-1.078.035l-.211-.563c.153.008.455.012.908.012.079 0 .157-.037.235-.111.078-.079.117-.157.117-.235v-3.123c-.484.051-1.236.108-2.256.17l-.135-.551a10.336 10.336 0 002.83-1.922c-.714.114-1.574.194-2.578.241l-.146-.493c.976-.558 1.865-1.334 2.666-2.326l.662.182c-.539.672-1.232 1.332-2.08 1.98a16.39 16.39 0 002.139-.228c.367-.371.664-.68.89-.926l.551.334c-1.25 1.348-2.471 2.377-3.662 3.088.988-.07 1.965-.191 2.93-.363a5.378 5.378 0 00-.493-.674l.551-.287c.531.687.959 1.367 1.283 2.039zm-5.841 1.74l-.528.281a9.426 9.426 0 00-.767-1.529l.527-.264c.309.496.564 1 .768 1.512zm-3.17-1.283c-.254.961-.586 1.805-.996 2.531l-.539-.31c.351-.602.671-1.415.96-2.438l.575.217zm5.086.375c-.457.937-.973 1.732-1.547 2.385l-.539-.346c.566-.59 1.09-1.365 1.57-2.326l.516.287zm3.961 2.144l-.54.264c-.23-.652-.65-1.463-1.259-2.432l.527-.252c.543.836.967 1.643 1.272 2.42zm-.141 4.407h-4.899v1.898h4.067v4.488c0 .266-.074.477-.223.633a.879.879 0 01-.551.264c-.214.023-.712.027-1.494.012l-.322-.645c.281.016.563.023.844.023.527 0 .845-.027.955-.082.113-.058.17-.156.17-.293v-3.779h-3.446v5.871h-.632v-5.871h-3.41v4.776h-.651v-5.397h4.061v-1.898h-4.91v-.627h5.05c-.207-.379-.515-.807-.925-1.284l.591-.298c.321.324.692.851 1.114 1.582h4.611v.627zm.094 15.685h-8.209v3.744a37.508 37.508 0 002.713-.914l.146.598a45.152 45.152 0 01-3.457 1.154l-.228-.633c.128-.066.193-.16.193-.281v-3.668h-1.6v-.58h1.91v-4.939h7.823v.586h-7.184v1.054h6.551v.592h-6.551v1.055h6.551v.574h-6.551v1.078h7.893v.58zm-.059 4.008l-.351.574c-1.297-.308-2.426-.746-3.387-1.312-.961-.567-1.692-1.397-2.192-2.491l.551-.252c.434.829.906 1.44 1.418 1.834.824-.429 1.66-1.025 2.508-1.787l.457.411c-.566.558-1.367 1.146-2.402 1.763.968.567 2.101.987 3.398 1.26zm-84.971-59.941h-5.097v-.873h2.062v-7.137l-2.115.638v-.943l3.094-.967v8.409h2.056v.873zm1.301-4.354c0-1.602.26-2.814.779-3.639.524-.824 1.278-1.236 2.262-1.236 1.887 0 2.83 1.551 2.83 4.652 0 1.508-.26 2.674-.779 3.498-.516.821-1.268 1.231-2.256 1.231-.922 0-1.625-.395-2.109-1.184-.485-.789-.727-1.896-.727-3.322zm.996-.053c0 2.485.649 3.727 1.946 3.727 1.285 0 1.927-1.26 1.927-3.779 0-2.622-.627-3.932-1.881-3.932-1.328 0-1.992 1.328-1.992 3.984zm3.698 16.729h-10.442v-.563h1.863v-6.662h2.485c.136-.261.291-.64.463-1.137h-4.606v-.562h4.811c.187-.578.312-1.004.375-1.277l.597.134c-.144.563-.248.944-.31 1.143h4.594v.562h-4.788c-.085.239-.234.618-.445 1.137h3.545v6.662h1.858v.563zm-2.508-5.531v-1.125h-5.438v1.125h5.438zm0 1.646v-1.119h-5.438v1.119h5.438zm0 1.664v-1.125h-5.438v1.125h5.438zm0 1.658v-1.125h-5.438v1.125h5.438zm2.349 5.209h-.597v-1.295h-4.418v1.295h-.598v-1.875h2.508a3.76 3.76 0 00-.387-.896l.604-.17c.199.398.338.754.416 1.066h2.472v1.875zm-5.795 5.953h-1.968v1.641h-.586v-1.641h-1.91v-.58h1.91v-1.089h-1.512v-4.489h1.512v-1.09h-1.764v-.591h1.764v-.996h.586v.996h1.716v.591h-1.716v1.09h1.547v4.489h-1.547v1.089h1.968v.58zm-1.031-4.283v-1.312h-.937v1.312h.937zm-1.523 0v-1.312h-.926v1.312h.926zm1.523 2.039v-1.476h-.937v1.476h.937zm-1.523 0v-1.476h-.926v1.476h.926zm8.508-.158h-5.918v-.562h2.689v-1.043h-2.133v-.569h2.133v-.92l-1.453.082-.217-.562c.441 0 .998-.033 1.67-.1v-.767h.586v.685a6.88 6.88 0 001.324-.228l.276.515c-.489.129-1.022.225-1.6.287v1.008h2.08v.569h-2.08v1.043h2.643v.562zm-.78 4.067h-.615v-.563h-3.129v.563h-.627v-3.252h4.371v3.252zm-.615-1.149v-1.547h-3.129v1.547h3.129zm1.336 4.811h-4.899v1.898h4.067v4.488c0 .266-.074.477-.223.633a.879.879 0 01-.551.264c-.214.023-.712.027-1.494.012l-.322-.645c.281.016.563.023.844.023.527 0 .845-.027.955-.082.113-.058.17-.156.17-.293v-3.779h-3.446v5.871h-.632v-5.871h-3.41v4.776h-.651v-5.397h4.061v-1.898h-4.91v-.627h5.05c-.207-.379-.515-.807-.925-1.284l.591-.298c.321.324.692.851 1.114 1.582h4.611v.627zm.094 15.685h-8.209v3.744a37.508 37.508 0 002.713-.914l.146.598a45.152 45.152 0 01-3.457 1.154l-.228-.633c.128-.066.193-.16.193-.281v-3.668h-1.6v-.58h1.91v-4.939h7.823v.586h-7.184v1.054h6.551v.592h-6.551v1.055h6.551v.574h-6.551v1.078h7.893v.58zm-.059 4.008l-.351.574c-1.297-.308-2.426-.746-3.387-1.312-.961-.567-1.692-1.397-2.192-2.491l.551-.252c.434.829.906 1.44 1.418 1.834.824-.429 1.66-1.025 2.508-1.787l.457.411c-.566.558-1.367 1.146-2.402 1.763.968.567 2.101.987 3.398 1.26zm-70.631-52.295c0-1.602.26-2.814.78-3.639.523-.824 1.277-1.236 2.261-1.236 1.887 0 2.83 1.551 2.83 4.652 0 1.508-.259 2.674-.779 3.498-.516.821-1.268 1.231-2.256 1.231-.922 0-1.625-.395-2.109-1.184-.485-.789-.727-1.896-.727-3.322zm.996-.053c0 2.485.649 3.727 1.946 3.727 1.285 0 1.927-1.26 1.927-3.779 0-2.622-.627-3.932-1.881-3.932-1.328 0-1.992 1.328-1.992 3.984zm8.028-.375c-1.094-.515-1.641-1.254-1.641-2.215 0-.664.254-1.201.762-1.611.508-.414 1.136-.621 1.886-.621.672 0 1.241.193 1.706.58.464.383.697.887.697 1.512 0 1.008-.563 1.793-1.688 2.355v.024c1.325.5 1.987 1.32 1.987 2.461 0 .773-.276 1.375-.827 1.804-.55.43-1.287.645-2.209.645-.753 0-1.384-.217-1.892-.65-.504-.438-.756-1.008-.756-1.711 0-1.164.658-2.014 1.975-2.549v-.024zm2.396-2.226c0-.43-.137-.766-.41-1.008-.27-.246-.629-.369-1.078-.369-.414 0-.774.129-1.078.387a1.201 1.201 0 00-.457.966c0 .805.498 1.412 1.494 1.823 1.019-.43 1.529-1.03 1.529-1.799zm-1.599 2.724c-1.176.469-1.764 1.145-1.764 2.028 0 .488.176.873.527 1.154.352.277.799.416 1.342.416.523 0 .955-.139 1.295-.416.34-.281.51-.652.51-1.113 0-.922-.637-1.612-1.91-2.069zm1.834 16.606h-10.442v-.563h1.863v-6.662h2.485c.136-.261.291-.64.463-1.137h-4.606v-.562h4.811c.187-.578.312-1.004.375-1.277l.597.134c-.144.563-.248.944-.31 1.143h4.594v.562h-4.788c-.085.239-.234.618-.445 1.137h3.545v6.662h1.858v.563zm-2.508-5.531v-1.125h-5.438v1.125h5.438zm0 1.646v-1.119h-5.438v1.119h5.438zm0 1.664v-1.125h-5.438v1.125h5.438zm0 1.658v-1.125h-5.438v1.125h5.438zm2.349 5.209h-.597v-1.295h-4.418v1.295h-.598v-1.875h2.508a3.76 3.76 0 00-.387-.896l.604-.17c.199.398.338.754.416 1.066h2.472v1.875zm-5.795 5.953h-1.968v1.641h-.586v-1.641h-1.91v-.58h1.91v-1.089h-1.512v-4.489h1.512v-1.09h-1.764v-.591h1.764v-.996h.586v.996h1.716v.591h-1.716v1.09h1.547v4.489h-1.547v1.089h1.968v.58zm-1.031-4.283v-1.312h-.937v1.312h.937zm-1.523 0v-1.312h-.926v1.312h.926zm1.523 2.039v-1.476h-.937v1.476h.937zm-1.523 0v-1.476h-.926v1.476h.926zm8.508-.158h-5.918v-.562h2.689v-1.043h-2.133v-.569h2.133v-.92l-1.453.082-.217-.562c.441 0 .998-.033 1.67-.1v-.767h.586v.685a6.88 6.88 0 001.324-.228l.276.515c-.489.129-1.022.225-1.6.287v1.008h2.08v.569h-2.08v1.043h2.643v.562zm-.78 4.067h-.615v-.563h-3.129v.563h-.627v-3.252h4.371v3.252zm-.615-1.149v-1.547h-3.129v1.547h3.129zm1.336 4.811h-4.899v1.898h4.067v4.488c0 .266-.074.477-.223.633a.879.879 0 01-.551.264c-.214.023-.712.027-1.494.012l-.322-.645c.281.016.563.023.844.023.527 0 .845-.027.955-.082.113-.058.17-.156.17-.293v-3.779h-3.446v5.871h-.632v-5.871h-3.41v4.776h-.651v-5.397h4.061v-1.898h-4.91v-.627h5.05c-.207-.379-.515-.807-.925-1.284l.591-.298c.321.324.692.851 1.114 1.582h4.611v.627zm.094 15.685h-8.209v3.744a37.508 37.508 0 002.713-.914l.146.598a45.152 45.152 0 01-3.457 1.154l-.228-.633c.128-.066.193-.16.193-.281v-3.668h-1.6v-.58h1.91v-4.939h7.823v.586h-7.184v1.054h6.551v.592h-6.551v1.055h6.551v.574h-6.551v1.078h7.893v.58zm-.059 4.008l-.351.574c-1.297-.308-2.426-.746-3.387-1.312-.961-.567-1.692-1.397-2.192-2.491l.551-.252c.434.829.906 1.44 1.418 1.834.824-.429 1.66-1.025 2.508-1.787l.457.411c-.566.558-1.367 1.146-2.402 1.763.968.567 2.101.987 3.398 1.26z" fill="#293840"/><circle cx="28.207" cy="162.5" r="2.5" fill="#293840"/><circle cx="48.15" cy="162.5" r="2.5" fill="#293840"/><ellipse cx="88.628" cy="162.5" rx="2.846" ry="2.5" fill="#293840"/><ellipse cx="108.573" cy="162.5" rx="2.846" ry="2.5" fill="#293840"/><ellipse cx="127.543" cy="162.5" rx="2.846" ry="2.5" fill="#293840"/><circle cx="146.025" cy="162.5" r="2.5" fill="#293840"/><circle cx="168.199" cy="162.5" r="2.5" fill="#293840"/><circle cx="187.168" cy="162.5" r="2.5" fill="#293840"/><circle cx="207.356" cy="162.5" r="2.5" fill="#293840"/><circle cx="227.057" cy="162.5" r="2.5" fill="#293840"/><circle cx="246.514" cy="162.5" r="2.5" fill="#293840"/><circle cx="266.943" cy="162.5" r="2.5" fill="#293840"/><ellipse cx="68.686" cy="162.5" rx="2.846" ry="2.5" fill="#293840"/><path stroke="#293840" stroke-opacity=".6" stroke-width=".8" d="M27.6 161V22.582M47.6 161V22.582M88.6 161V22.582M107.6 161V22.582M126.6 161V22.582M146.6 161V22.582M168.6 161V22.582M187.6 161V22.582M207.6 161V22.582M226.6 161V22.582M246.6 161V22.582M267.6 161V22.582"/><path stroke="#293840" stroke-opacity=".5" stroke-width=".8" d="M68.6 161V22.582"/><path d="M29 149.927l19.874-45.072 18.904-81.759 20.6 29.56 39.506-8.806L147.515 21l20.359 38.154 19.631 12.788 20.116-26.205 39.021 74.631L267 56.428" stroke="#2A60A5" stroke-width="3" stroke-linecap="round"/><path d="M28 90.695l19.896-22.583 20.382 16.192 19.897-33.45 19.896 29.828 19.169-7.883 20.381 8.948 25.963-18.962 13.345-11.93 20.382 16.191 19.411-6.391 20.139-31.745L267 92.186" stroke="#00A89C" stroke-width="3" stroke-linecap="round"/><path d="M21.674 175.748c0-1.602.26-2.814.78-3.639.523-.824 1.277-1.236 2.261-1.236 1.887 0 2.83 1.551 2.83 4.652 0 1.508-.26 2.674-.779 3.498-.516.821-1.268 1.231-2.256 1.231-.922 0-1.625-.395-2.11-1.184-.484-.789-.726-1.896-.726-3.322zm.996-.053c0 2.485.649 3.727 1.946 3.727 1.285 0 1.927-1.26 1.927-3.779 0-2.622-.627-3.932-1.88-3.932-1.329 0-1.993 1.328-1.993 3.984zm5.965.053c0-1.602.26-2.814.78-3.639.523-.824 1.277-1.236 2.261-1.236 1.887 0 2.83 1.551 2.83 4.652 0 1.508-.26 2.674-.78 3.498-.515.821-1.267 1.231-2.255 1.231-.922 0-1.625-.395-2.11-1.184-.484-.789-.726-1.896-.726-3.322zm.996-.053c0 2.485.649 3.727 1.945 3.727 1.286 0 1.928-1.26 1.928-3.779 0-2.622-.627-3.932-1.88-3.932-1.329 0-1.993 1.328-1.993 3.984zm-2.566 13.289l-.504.188a4.094 4.094 0 00-.17-.527 23.74 23.74 0 01-3.252.767l-.217-.586c.832-.703 1.61-1.646 2.332-2.83-.75.149-1.435.256-2.056.322l-.188-.574c.75-.855 1.41-2.045 1.98-3.568l.551.17c-.503 1.367-1.1 2.466-1.787 3.299a20.37 20.37 0 001.881-.334c.293-.481.565-1 .815-1.559l.556.24c-1 2.028-2.08 3.598-3.24 4.711.688-.105 1.498-.308 2.432-.609-.04-.196-.14-.463-.3-.803l.505-.24c.293.644.513 1.289.662 1.933zm5.496-.48h-5.139v-5.379h1.383c.176-.328.328-.637.457-.926l.54.17a4.402 4.402 0 01-.335.756h3.094v5.379zm-.598-.58v-4.213h-3.925v4.213h3.925zm-.351-.973l-.358.445a13.33 13.33 0 00-.779-.837c-.297.371-.61.722-.938 1.054l-.421-.345c.355-.372.664-.733.925-1.084a2.795 2.795 0 00-.539-.452c-.172.235-.42.514-.744.838l-.41-.386c.191-.172.424-.436.697-.791a4.007 4.007 0 00-.562-.405l.299-.457c.191.114.39.24.597.381.184-.285.356-.588.516-.908l.492.228c-.117.27-.305.61-.562 1.02.18.137.355.283.527.439.27-.414.521-.88.756-1.4l.48.217a9.86 9.86 0 01-.803 1.558c.172.172.448.467.827.885zm-.358 3.457l-.504.24c-.32-.671-.629-1.207-.925-1.605l.55-.24a7.49 7.49 0 01.88 1.605zm.897.481a3.443 3.443 0 01-.188.961c-.097.277-.242.464-.433.562-.192.102-.56.152-1.108.152-.738 0-1.2-.058-1.388-.175-.184-.114-.276-.35-.276-.709v-2.625h.61v2.689c0 .133.072.213.216.24.145.028.385.041.721.041.469 0 .764-.037.885-.111.12-.078.21-.23.27-.457.062-.227.1-.508.116-.844l.575.276zm1.336.826l-.516.375a14.647 14.647 0 00-1.049-2.438l.492-.357c.465.894.823 1.701 1.073 2.42zm-5.233-2.192c-.254 1.161-.578 2.092-.972 2.795l-.528-.275c.446-.82.752-1.713.92-2.678l.58.158zm-1.347 1.536l-.563.193a9.35 9.35 0 00-.38-1.477l.538-.193c.172.457.307.949.405 1.477zm-2.772-1.202a13.203 13.203 0 01-.697 2.842l-.574-.199a12.24 12.24 0 00.685-2.777l.586.134zm1.465 2.403l-.586.117c-.008-.723-.129-1.551-.363-2.484l.568-.129c.215.754.342 1.586.381 2.496zm7.717 3.908h-3.674c-.54 1.121-1.074 2.021-1.605 2.701a32.155 32.155 0 003.755-.398 9.867 9.867 0 00-.89-1.114l.527-.334c.758.903 1.346 1.739 1.764 2.508l-.504.369a6.422 6.422 0 00-.551-.896l-1.113.176v4.476c0 .176.091.264.275.264h.85a.37.37 0 00.275-.106c.07-.07.129-.314.176-.732.05-.418.08-.891.088-1.418l.603.217c-.02.902-.08 1.519-.181 1.851-.102.329-.252.543-.452.645-.195.102-.527.152-.996.152-.476 0-.802-.056-.978-.17-.176-.113-.264-.328-.264-.644v-4.459c-.664.078-1.076.117-1.236.117 0 2.41-.744 4.189-2.233 5.338l-.415-.428a5.299 5.299 0 001.5-1.887c.351-.738.53-1.726.538-2.964-.199.031-.638.056-1.318.076l-.135-.545c.621-.598 1.243-1.529 1.864-2.795h-2.034v-.586h2.31c.136-.309.323-.781.562-1.418l.585.182c-.203.554-.37.966-.503 1.236h3.41v.586zm-6.229 4.945l-.55.194a5.246 5.246 0 00-.194-.698 31.33 31.33 0 01-3.17.827l-.176-.551a18.823 18.823 0 002.362-2.965c-.633.133-1.34.25-2.121.351l-.159-.568c.915-1.183 1.575-2.359 1.98-3.527l.563.205c-.347 1.019-.931 2.092-1.752 3.217a15.14 15.14 0 001.887-.346c.14-.211.3-.512.48-.902l.551.24c-.625 1.305-1.54 2.652-2.748 4.043.477-.082 1.18-.281 2.11-.598a9.63 9.63 0 00-.3-.744l.54-.229c.375.887.607 1.571.697 2.051zm-.047 2.11l-.562.181a11.064 11.064 0 00-.48-1.705l.55-.164c.2.508.364 1.07.492 1.688zm-2.847-1.366c-.207 1.262-.45 2.202-.727 2.819l-.568-.205c.328-.793.564-1.713.709-2.76l.586.146zm1.476 2.315l-.61.123a8.977 8.977 0 00-.386-2.449l.604-.094c.246 1.121.377 1.928.392 2.42zm219.664-24.07h-5.097v-.873h2.062v-7.137l-2.115.638v-.943l3.094-.967v8.409h2.056v.873zm6.633-8.034a3.278 3.278 0 00-1.482-.357c-.832 0-1.489.365-1.969 1.096-.48.726-.719 1.703-.715 2.929h.029c.418-.867 1.112-1.3 2.081-1.3.792 0 1.425.257 1.898.773.473.516.709 1.193.709 2.033 0 .863-.266 1.582-.797 2.156-.531.571-1.209.856-2.033.856-.945 0-1.666-.369-2.162-1.108-.492-.738-.739-1.748-.739-3.029 0-1.535.323-2.793.967-3.773.645-.981 1.549-1.471 2.713-1.471.633 0 1.133.088 1.5.264v.931zm-4.096 5.063c0 .64.17 1.183.51 1.629.344.441.791.662 1.342.662.535 0 .967-.195 1.295-.586.328-.391.492-.881.492-1.471 0-.66-.16-1.174-.48-1.541-.321-.367-.76-.551-1.319-.551-.511 0-.947.18-1.306.539-.356.36-.534.799-.534 1.319zm-2.806 11.853l-.504.188a4.05 4.05 0 00-.17-.527 23.719 23.719 0 01-3.252.767l-.217-.586c.832-.703 1.61-1.646 2.332-2.83-.75.149-1.435.256-2.056.322l-.188-.574c.75-.855 1.41-2.045 1.981-3.568l.55.17c-.504 1.367-1.099 2.466-1.787 3.299a20.309 20.309 0 001.881-.334c.293-.481.565-1 .815-1.559l.556.24c-1 2.028-2.08 3.598-3.24 4.711.687-.105 1.498-.308 2.432-.609-.039-.196-.139-.463-.299-.803l.504-.24c.293.644.513 1.289.662 1.933zm5.496-.48h-5.139v-5.379h1.383c.176-.328.328-.637.457-.926l.539.17a4.433 4.433 0 01-.334.756h3.094v5.379zm-.598-.58v-4.213h-3.926v4.213h3.926zm-.351-.973l-.358.445c-.304-.351-.564-.63-.779-.837-.297.371-.609.722-.938 1.054l-.421-.345c.355-.372.664-.733.925-1.084a2.776 2.776 0 00-.539-.452c-.172.235-.42.514-.744.838l-.41-.386c.191-.172.424-.436.697-.791a3.981 3.981 0 00-.562-.405l.299-.457c.191.114.39.24.597.381.184-.285.356-.588.516-.908l.492.228c-.117.27-.305.61-.562 1.02.179.137.355.283.527.439.269-.414.521-.88.756-1.4l.48.217a9.902 9.902 0 01-.802 1.558c.171.172.447.467.826.885zm-.358 3.457l-.504.24c-.32-.671-.629-1.207-.925-1.605l.55-.24c.391.558.684 1.093.879 1.605zm.897.481a3.45 3.45 0 01-.188.961c-.097.277-.242.464-.433.562-.192.102-.561.152-1.108.152-.738 0-1.201-.058-1.388-.175-.184-.114-.276-.35-.276-.709v-2.625h.61v2.689c0 .133.072.213.216.24.145.028.385.041.721.041.469 0 .764-.037.885-.111.121-.078.211-.23.269-.457.063-.227.102-.508.118-.844l.574.276zm1.336.826l-.516.375a14.64 14.64 0 00-1.049-2.438l.492-.357c.465.894.823 1.701 1.073 2.42zm-5.233-2.192c-.254 1.161-.578 2.092-.972 2.795l-.528-.275c.446-.82.752-1.713.92-2.678l.58.158zm-1.347 1.536l-.563.193a9.34 9.34 0 00-.381-1.477l.539-.193c.172.457.307.949.405 1.477zm-2.772-1.202a13.239 13.239 0 01-.697 2.842l-.574-.199c.343-.926.572-1.852.685-2.777l.586.134zm1.465 2.403l-.586.117c-.008-.723-.129-1.551-.363-2.484l.568-.129c.215.754.342 1.586.381 2.496zm7.717 3.908h-3.674c-.539 1.121-1.074 2.021-1.606 2.701a32.145 32.145 0 003.756-.398 9.897 9.897 0 00-.89-1.114l.527-.334c.758.903 1.346 1.739 1.764 2.508l-.504.369a6.442 6.442 0 00-.551-.896l-1.113.176v4.476c0 .176.092.264.275.264h.85a.37.37 0 00.275-.106c.07-.07.129-.314.176-.732.051-.418.08-.891.088-1.418l.603.217c-.019.902-.08 1.519-.181 1.851-.102.329-.252.543-.451.645-.196.102-.528.152-.997.152-.476 0-.802-.056-.978-.17-.176-.113-.264-.328-.264-.644v-4.459c-.664.078-1.076.117-1.236.117 0 2.41-.744 4.189-2.233 5.338l-.416-.428a5.284 5.284 0 001.5-1.887c.352-.738.532-1.726.54-2.964-.2.031-.639.056-1.319.076l-.135-.545c.621-.598 1.243-1.529 1.864-2.795h-2.034v-.586h2.309c.137-.309.324-.781.563-1.418l.586.182a14.26 14.26 0 01-.504 1.236h3.41v.586zm-6.229 4.945l-.551.194a5.205 5.205 0 00-.193-.698 31.297 31.297 0 01-3.17.827l-.176-.551a18.838 18.838 0 002.362-2.965c-.633.133-1.34.25-2.121.351l-.159-.568c.914-1.183 1.575-2.359 1.981-3.527l.562.205c-.347 1.019-.931 2.092-1.752 3.217a15.14 15.14 0 001.887-.346c.141-.211.301-.512.481-.902l.55.24c-.625 1.305-1.541 2.652-2.748 4.043.477-.082 1.18-.281 2.11-.598a9.717 9.717 0 00-.299-.744l.539-.229c.375.887.607 1.571.697 2.051zm-.047 2.11l-.562.181a11.08 11.08 0 00-.481-1.705l.551-.164c.199.508.363 1.07.492 1.688zm-2.847-1.366c-.207 1.262-.45 2.202-.727 2.819l-.568-.205c.328-.793.564-1.713.709-2.76l.586.146zm1.476 2.315l-.609.123a8.976 8.976 0 00-.387-2.449l.604-.094c.246 1.121.377 1.928.392 2.42zm-37.336-24.07h-5.097v-.873h2.062v-7.137l-2.115.638v-.943l3.094-.967v8.409h2.056v.873zm6.785 0h-5.431v-.885l2.642-2.66c.875-.883 1.413-1.522 1.612-1.916.203-.399.304-.821.304-1.266 0-.535-.152-.947-.457-1.236-.3-.289-.734-.434-1.3-.434-.809 0-1.586.35-2.332 1.049v-1.043c.699-.559 1.519-.838 2.461-.838.781 0 1.406.217 1.875.65.472.434.709 1.022.709 1.764 0 .57-.157 1.133-.469 1.688-.309.55-.895 1.257-1.758 2.121l-2.115 2.092v.023h4.259v.891zm-7.054 8.882l-.504.188a4.05 4.05 0 00-.17-.527 23.719 23.719 0 01-3.252.767l-.217-.586c.832-.703 1.61-1.646 2.332-2.83-.75.149-1.435.256-2.056.322l-.188-.574c.75-.855 1.41-2.045 1.981-3.568l.55.17c-.504 1.367-1.099 2.466-1.787 3.299a20.309 20.309 0 001.881-.334c.293-.481.565-1 .815-1.559l.556.24c-1 2.028-2.08 3.598-3.24 4.711.687-.105 1.498-.308 2.432-.609-.039-.196-.139-.463-.299-.803l.504-.24c.293.644.513 1.289.662 1.933zm5.496-.48h-5.139v-5.379h1.383c.176-.328.328-.637.457-.926l.539.17a4.433 4.433 0 01-.334.756h3.094v5.379zm-.598-.58v-4.213h-3.926v4.213h3.926zm-.351-.973l-.358.445c-.304-.351-.564-.63-.779-.837-.297.371-.609.722-.938 1.054l-.421-.345c.355-.372.664-.733.925-1.084a2.776 2.776 0 00-.539-.452c-.172.235-.42.514-.744.838l-.41-.386c.191-.172.424-.436.697-.791a3.981 3.981 0 00-.562-.405l.299-.457c.191.114.39.24.597.381.184-.285.356-.588.516-.908l.492.228c-.117.27-.305.61-.562 1.02.179.137.355.283.527.439.269-.414.521-.88.756-1.4l.48.217a9.902 9.902 0 01-.802 1.558c.171.172.447.467.826.885zm-.358 3.457l-.504.24c-.32-.671-.629-1.207-.925-1.605l.55-.24c.391.558.684 1.093.879 1.605zm.897.481a3.45 3.45 0 01-.188.961c-.097.277-.242.464-.433.562-.192.102-.561.152-1.108.152-.738 0-1.201-.058-1.388-.175-.184-.114-.276-.35-.276-.709v-2.625h.61v2.689c0 .133.072.213.216.24.145.028.385.041.721.041.469 0 .764-.037.885-.111.121-.078.211-.23.269-.457.063-.227.102-.508.118-.844l.574.276zm1.336.826l-.516.375a14.64 14.64 0 00-1.049-2.438l.492-.357c.465.894.823 1.701 1.073 2.42zm-5.233-2.192c-.254 1.161-.578 2.092-.972 2.795l-.528-.275c.446-.82.752-1.713.92-2.678l.58.158zm-1.347 1.536l-.563.193a9.34 9.34 0 00-.381-1.477l.539-.193c.172.457.307.949.405 1.477zm-2.772-1.202a13.239 13.239 0 01-.697 2.842l-.574-.199c.343-.926.572-1.852.685-2.777l.586.134zm1.465 2.403l-.586.117c-.008-.723-.129-1.551-.363-2.484l.568-.129c.215.754.342 1.586.381 2.496zm7.717 3.908h-3.674c-.539 1.121-1.074 2.021-1.606 2.701a32.145 32.145 0 003.756-.398 9.897 9.897 0 00-.89-1.114l.527-.334c.758.903 1.346 1.739 1.764 2.508l-.504.369a6.442 6.442 0 00-.551-.896l-1.113.176v4.476c0 .176.092.264.275.264h.85a.37.37 0 00.275-.106c.07-.07.129-.314.176-.732.051-.418.08-.891.088-1.418l.603.217c-.019.902-.08 1.519-.181 1.851-.102.329-.252.543-.451.645-.196.102-.528.152-.997.152-.476 0-.802-.056-.978-.17-.176-.113-.264-.328-.264-.644v-4.459c-.664.078-1.076.117-1.236.117 0 2.41-.744 4.189-2.233 5.338l-.416-.428a5.284 5.284 0 001.5-1.887c.352-.738.532-1.726.54-2.964-.2.031-.639.056-1.319.076l-.135-.545c.621-.598 1.243-1.529 1.864-2.795h-2.034v-.586h2.309c.137-.309.324-.781.563-1.418l.586.182a14.26 14.26 0 01-.504 1.236h3.41v.586zm-6.229 4.945l-.551.194a5.205 5.205 0 00-.193-.698 31.297 31.297 0 01-3.17.827l-.176-.551a18.838 18.838 0 002.362-2.965c-.633.133-1.34.25-2.121.351l-.159-.568c.914-1.183 1.575-2.359 1.981-3.527l.562.205c-.347 1.019-.931 2.092-1.752 3.217a15.14 15.14 0 001.887-.346c.141-.211.301-.512.481-.902l.55.24c-.625 1.305-1.541 2.652-2.748 4.043.477-.082 1.18-.281 2.11-.598a9.717 9.717 0 00-.299-.744l.539-.229c.375.887.607 1.571.697 2.051zm-.047 2.11l-.562.181a11.08 11.08 0 00-.481-1.705l.551-.164c.199.508.363 1.07.492 1.688zm-2.847-1.366c-.207 1.262-.45 2.202-.727 2.819l-.568-.205c.328-.793.564-1.713.709-2.76l.586.146zm1.476 2.315l-.609.123a8.976 8.976 0 00-.387-2.449l.604-.094c.246 1.121.377 1.928.392 2.42zm-63.996-28.424c0-1.602.26-2.814.779-3.639.524-.824 1.278-1.236 2.262-1.236 1.887 0 2.83 1.551 2.83 4.652 0 1.508-.259 2.674-.779 3.498-.516.821-1.268 1.231-2.256 1.231-.922 0-1.625-.395-2.109-1.184-.485-.789-.727-1.896-.727-3.322zm.996-.053c0 2.485.649 3.727 1.946 3.727 1.285 0 1.927-1.26 1.927-3.779 0-2.622-.627-3.932-1.881-3.932-1.328 0-1.992 1.328-1.992 3.984zm8.028-.375c-1.094-.515-1.641-1.254-1.641-2.215 0-.664.254-1.201.762-1.611.508-.414 1.136-.621 1.886-.621.672 0 1.241.193 1.706.58.464.383.697.887.697 1.512 0 1.008-.563 1.793-1.688 2.355v.024c1.324.5 1.987 1.32 1.987 2.461 0 .773-.276 1.375-.827 1.804-.55.43-1.287.645-2.209.645-.753 0-1.384-.217-1.892-.65-.504-.438-.756-1.008-.756-1.711 0-1.164.658-2.014 1.975-2.549v-.024zm2.396-2.226c0-.43-.137-.766-.41-1.008-.27-.246-.629-.369-1.078-.369-.414 0-.774.129-1.078.387a1.201 1.201 0 00-.457.966c0 .805.498 1.412 1.494 1.823 1.019-.43 1.529-1.03 1.529-1.799zm-1.6 2.724c-1.175.469-1.763 1.145-1.763 2.028 0 .488.176.873.527 1.154.352.277.799.416 1.342.416.523 0 .955-.139 1.295-.416.34-.281.51-.652.51-1.113 0-.922-.637-1.612-1.911-2.069zm-4.429 13.166l-.504.188a4.05 4.05 0 00-.17-.527 23.719 23.719 0 01-3.252.767l-.217-.586c.832-.703 1.61-1.646 2.332-2.83-.75.149-1.435.256-2.056.322l-.188-.574c.75-.855 1.41-2.045 1.981-3.568l.55.17c-.504 1.367-1.099 2.466-1.787 3.299a20.309 20.309 0 001.881-.334c.293-.481.565-1 .815-1.559l.556.24c-1 2.028-2.08 3.598-3.24 4.711.687-.105 1.498-.308 2.432-.609-.039-.196-.139-.463-.299-.803l.504-.24c.293.644.513 1.289.662 1.933zm5.496-.48h-5.139v-5.379h1.383c.176-.328.328-.637.457-.926l.539.17a4.433 4.433 0 01-.334.756h3.094v5.379zm-.598-.58v-4.213h-3.926v4.213h3.926zm-.351-.973l-.358.445c-.304-.351-.564-.63-.779-.837-.297.371-.609.722-.938 1.054l-.421-.345c.355-.372.664-.733.925-1.084a2.776 2.776 0 00-.539-.452c-.172.235-.42.514-.744.838l-.41-.386c.191-.172.424-.436.697-.791a3.981 3.981 0 00-.562-.405l.299-.457c.191.114.39.24.597.381.184-.285.356-.588.516-.908l.492.228c-.117.27-.305.61-.562 1.02.179.137.355.283.527.439.269-.414.521-.88.756-1.4l.48.217a9.902 9.902 0 01-.802 1.558c.171.172.447.467.826.885zm-.358 3.457l-.504.24c-.32-.671-.629-1.207-.925-1.605l.55-.24c.391.558.684 1.093.879 1.605zm.897.481a3.45 3.45 0 01-.188.961c-.097.277-.242.464-.433.562-.192.102-.561.152-1.108.152-.738 0-1.201-.058-1.388-.175-.184-.114-.276-.35-.276-.709v-2.625h.61v2.689c0 .133.072.213.216.24.145.028.385.041.721.041.469 0 .764-.037.885-.111.121-.078.211-.23.269-.457.063-.227.102-.508.118-.844l.574.276zm1.336.826l-.516.375a14.64 14.64 0 00-1.049-2.438l.492-.357c.465.894.823 1.701 1.073 2.42zm-5.233-2.192c-.254 1.161-.578 2.092-.972 2.795l-.528-.275c.446-.82.752-1.713.92-2.678l.58.158zm-1.347 1.536l-.563.193a9.34 9.34 0 00-.381-1.477l.539-.193c.172.457.307.949.405 1.477zm-2.772-1.202a13.239 13.239 0 01-.697 2.842l-.574-.199c.343-.926.572-1.852.685-2.777l.586.134zm1.465 2.403l-.586.117c-.008-.723-.129-1.551-.363-2.484l.568-.129c.215.754.342 1.586.381 2.496zm7.717 3.908h-3.674c-.539 1.121-1.074 2.021-1.606 2.701a32.145 32.145 0 003.756-.398 9.897 9.897 0 00-.89-1.114l.527-.334c.758.903 1.346 1.739 1.764 2.508l-.504.369a6.442 6.442 0 00-.551-.896l-1.113.176v4.476c0 .176.092.264.275.264h.85a.37.37 0 00.275-.106c.07-.07.129-.314.176-.732.051-.418.08-.891.088-1.418l.603.217c-.019.902-.08 1.519-.181 1.851-.102.329-.252.543-.451.645-.196.102-.528.152-.997.152-.476 0-.802-.056-.978-.17-.176-.113-.264-.328-.264-.644v-4.459c-.664.078-1.076.117-1.236.117 0 2.41-.744 4.189-2.233 5.338l-.416-.428a5.284 5.284 0 001.5-1.887c.352-.738.532-1.726.54-2.964-.2.031-.639.056-1.319.076l-.135-.545c.621-.598 1.243-1.529 1.864-2.795h-2.034v-.586h2.309c.137-.309.324-.781.563-1.418l.586.182a14.26 14.26 0 01-.504 1.236h3.41v.586zm-6.229 4.945l-.551.194a5.205 5.205 0 00-.193-.698 31.297 31.297 0 01-3.17.827l-.176-.551a18.838 18.838 0 002.362-2.965c-.633.133-1.34.25-2.121.351l-.159-.568c.914-1.183 1.575-2.359 1.981-3.527l.562.205c-.347 1.019-.931 2.092-1.752 3.217a15.14 15.14 0 001.887-.346c.141-.211.301-.512.481-.902l.55.24c-.625 1.305-1.541 2.652-2.748 4.043.477-.082 1.18-.281 2.11-.598a9.717 9.717 0 00-.299-.744l.539-.229c.375.887.607 1.571.697 2.051zm-.047 2.11l-.562.181a11.08 11.08 0 00-.481-1.705l.551-.164c.199.508.363 1.07.492 1.688zm-2.847-1.366c-.207 1.262-.45 2.202-.727 2.819l-.568-.205c.328-.793.564-1.713.709-2.76l.586.146zm1.476 2.315l-.609.123a8.976 8.976 0 00-.387-2.449l.604-.094c.246 1.121.377 1.928.392 2.42zm-61.996-28.424c0-1.602.26-2.814.78-3.639.523-.824 1.277-1.236 2.261-1.236 1.887 0 2.83 1.551 2.83 4.652 0 1.508-.26 2.674-.779 3.498-.516.821-1.268 1.231-2.256 1.231-.922 0-1.625-.395-2.11-1.184-.484-.789-.726-1.896-.726-3.322zm.996-.053c0 2.485.649 3.727 1.946 3.727 1.285 0 1.927-1.26 1.927-3.779 0-2.622-.627-3.932-1.88-3.932-1.329 0-1.993 1.328-1.993 3.984zm11.924 1.969h-1.172v2.438h-.972v-2.438h-4.29v-.644l4.055-5.995h1.207v5.83h1.172v.809zm-2.144-.809v-3.996c0-.277.007-.591.023-.943h-.023a8.927 8.927 0 01-.346.697l-2.854 4.242h3.2zm-5.385 12.129l-.504.188a4.094 4.094 0 00-.17-.527 23.74 23.74 0 01-3.252.767l-.217-.586c.832-.703 1.61-1.646 2.332-2.83-.75.149-1.435.256-2.056.322l-.188-.574c.75-.855 1.41-2.045 1.98-3.568l.551.17c-.504 1.367-1.1 2.466-1.787 3.299a20.37 20.37 0 001.881-.334c.293-.481.565-1 .815-1.559l.556.24c-1 2.028-2.08 3.598-3.24 4.711.688-.105 1.498-.308 2.432-.609-.04-.196-.14-.463-.3-.803l.505-.24c.293.644.513 1.289.662 1.933zm5.496-.48h-5.139v-5.379h1.383c.176-.328.328-.637.457-.926l.54.17a4.402 4.402 0 01-.335.756h3.094v5.379zm-.598-.58v-4.213h-3.925v4.213h3.925zm-.351-.973l-.358.445a13.33 13.33 0 00-.779-.837c-.297.371-.61.722-.938 1.054l-.421-.345c.355-.372.664-.733.925-1.084a2.795 2.795 0 00-.539-.452c-.172.235-.42.514-.744.838l-.41-.386c.191-.172.424-.436.697-.791a4.007 4.007 0 00-.562-.405l.299-.457c.191.114.39.24.597.381.184-.285.356-.588.516-.908l.492.228c-.117.27-.305.61-.562 1.02.18.137.355.283.527.439.27-.414.521-.88.756-1.4l.48.217a9.86 9.86 0 01-.802 1.558c.171.172.447.467.826.885zm-.358 3.457l-.504.24c-.32-.671-.629-1.207-.925-1.605l.55-.24a7.49 7.49 0 01.88 1.605zm.897.481a3.443 3.443 0 01-.188.961c-.097.277-.242.464-.433.562-.192.102-.56.152-1.108.152-.738 0-1.2-.058-1.388-.175-.184-.114-.276-.35-.276-.709v-2.625h.61v2.689c0 .133.072.213.216.24.145.028.385.041.721.041.469 0 .764-.037.885-.111.12-.078.21-.23.27-.457.062-.227.1-.508.117-.844l.574.276zm1.336.826l-.516.375a14.647 14.647 0 00-1.049-2.438l.492-.357c.465.894.823 1.701 1.073 2.42zm-5.233-2.192c-.254 1.161-.578 2.092-.972 2.795l-.528-.275c.446-.82.752-1.713.92-2.678l.58.158zm-1.347 1.536l-.563.193a9.35 9.35 0 00-.38-1.477l.538-.193c.172.457.307.949.405 1.477zm-2.772-1.202a13.203 13.203 0 01-.697 2.842l-.574-.199a12.24 12.24 0 00.685-2.777l.586.134zm1.465 2.403l-.586.117c-.008-.723-.129-1.551-.363-2.484l.568-.129c.215.754.342 1.586.381 2.496zm7.717 3.908h-3.674c-.54 1.121-1.074 2.021-1.606 2.701a32.155 32.155 0 003.756-.398 9.867 9.867 0 00-.89-1.114l.527-.334c.758.903 1.346 1.739 1.764 2.508l-.504.369a6.422 6.422 0 00-.551-.896l-1.113.176v4.476c0 .176.092.264.275.264h.85a.37.37 0 00.275-.106c.07-.07.129-.314.176-.732.05-.418.08-.891.088-1.418l.603.217c-.02.902-.08 1.519-.181 1.851-.102.329-.252.543-.451.645-.196.102-.528.152-.997.152-.476 0-.802-.056-.978-.17-.176-.113-.264-.328-.264-.644v-4.459c-.664.078-1.076.117-1.236.117 0 2.41-.744 4.189-2.233 5.338l-.416-.428a5.299 5.299 0 001.5-1.887c.352-.738.532-1.726.54-2.964-.2.031-.64.056-1.319.076l-.135-.545c.621-.598 1.243-1.529 1.864-2.795h-2.033v-.586h2.308c.137-.309.324-.781.563-1.418l.585.182c-.203.554-.37.966-.503 1.236h3.41v.586zm-6.229 4.945l-.55.194a5.246 5.246 0 00-.194-.698 31.33 31.33 0 01-3.17.827l-.176-.551a18.823 18.823 0 002.362-2.965c-.633.133-1.34.25-2.121.351l-.159-.568c.915-1.183 1.575-2.359 1.98-3.527l.563.205c-.347 1.019-.931 2.092-1.752 3.217a15.14 15.14 0 001.887-.346c.14-.211.3-.512.48-.902l.551.24c-.625 1.305-1.54 2.652-2.748 4.043.477-.082 1.18-.281 2.11-.598a9.63 9.63 0 00-.3-.744l.54-.229c.375.887.607 1.571.697 2.051zm-.047 2.11l-.562.181a11.064 11.064 0 00-.48-1.705l.55-.164c.2.508.363 1.07.492 1.688zm-2.847-1.366c-.207 1.262-.45 2.202-.727 2.819l-.568-.205c.328-.793.564-1.713.709-2.76l.586.146zm1.476 2.315l-.61.123a8.977 8.977 0 00-.386-2.449l.604-.094c.246 1.121.377 1.928.392 2.42z" fill="#293840"/><path d="M200.174 272.271c-.274 1.047-.516 1.7-.727 1.958a.983.983 0 01-.808.392c-.563 0-1.239-.385-2.028-1.154-.789-.77-1.341-1.932-1.658-3.487h-3.685v3.791c1.472-.324 2.664-.644 3.574-.96v.627c-.844.312-2.246.699-4.207 1.16l-.229-.621c.133-.055.199-.151.199-.288v-9.298h8.45v3.187h-3.733a9.122 9.122 0 00.17 1.787h4.43v.615h-4.301c.188.895.481 1.653.879 2.274.398.617.809 1.062 1.23 1.336.426.269.729.404.909.404.359 0 .67-.701.931-2.103l.604.38zm-1.764-5.337v-1.911h-7.142v1.911h7.142zm-3.58 2.431a15.019 15.019 0 01-.176-1.787h-3.386v1.787h3.562zm17.244 3.205h-6.24v-5.121c-.34.485-.604.821-.791 1.008l-.404-.492a11.3 11.3 0 002.132-3.949l.598.158a19.783 19.783 0 01-.668 1.705h2.121a9.007 9.007 0 00-.539-1.5l.604-.193c.273.699.476 1.263.609 1.693h2.473v.586h-2.701v1.342h2.437v.58h-2.437v1.424h2.437v.591h-2.437v1.594h2.806v.574zm-3.428-4.763v-1.342h-2.185v1.342h2.185zm0 2.004v-1.424h-2.185v1.424h2.185zm0 2.185v-1.594h-2.185v1.594h2.185zm-4.382-6.228l-.434.433a10.068 10.068 0 00-1.664-1.681l.393-.446c.73.574 1.298 1.139 1.705 1.694zm8.074 8.039l-.141.615c-1.566.012-2.986 0-4.259-.035-1.27-.032-2.225-.164-2.866-.399-.636-.238-1.162-.574-1.576-1.008-.332.551-.779 1.094-1.342 1.629l-.468-.392c1.168-1.125 1.927-2.401 2.279-3.826h-1.863v-.592c.523-.629 1.121-1.461 1.793-2.496h-2.057v-.586h2.801v.586a58.672 58.672 0 01-1.729 2.496h1.688v.592a7.673 7.673 0 01-.815 2.086c.274.285.592.521.955.709.367.183.725.316 1.073.398.347.082.949.145 1.804.187.856.04 1.867.059 3.035.059.59 0 1.153-.008 1.688-.023zm10.213-9.446c-.25.274-.553.514-.908.721l-.534-.334c.321-.203.625-.436.914-.697l.528.31zm-5.807.375l-.469.358a5.405 5.405 0 00-.873-.656l.463-.387c.332.191.625.42.879.685zm7.078 2.702h-.586v-1.612h-8.39v1.576h-.586v-2.127h4.476v-1.166h.598v1.166h4.488v2.163zm-1.763.503h-6.047v-1.558h6.047v1.558zm-.586-.527v-.492h-4.864v.492h4.864zm2.589 5.279h-10.124v-.504h4.798v-.65h-4.224v-.492h4.224v-.633h-3.838v-1.945h8.245v1.945h-3.844v.633h4.295v.492h-4.295v.65h4.763v.504zm-1.488-2.771v-.926h-3.275v.926h3.275zm-1.043-.422a7.795 7.795 0 01-1.031.346l-.322-.44c.34-.074.691-.191 1.054-.351l.299.445zm-2.795.422v-.926h-3.24v.926h3.24zm-.949-.516l-.322.44a6.508 6.508 0 00-1.031-.346l.298-.445c.352.078.704.195 1.055.351zm-1.857 3.873c-.528.582-1.039 1.006-1.535 1.272l-.457-.481c.519-.258 1.027-.64 1.523-1.148l.469.357zm8.086 1.055l-.516.34a13.903 13.903 0 00-1.271-1.406l.527-.323c.515.473.935.936 1.26 1.389zm-3.241.088l-.562.176a7.065 7.065 0 00-.563-1.354l.575-.17c.23.465.414.914.55 1.348zm-2.589.035l-.604.07a8.08 8.08 0 00-.357-1.318l.55-.1c.161.36.297.809.411 1.348z" fill="#000"/><path stroke="#00A89C" stroke-width="3" stroke-linecap="round" stroke-linejoin="round" d="M175.5 269.5h9"/><path d="M137.729 274.621h-.598v-.838h-8.139v.815h-.627v-10.237h9.364v10.26zm-.598-1.435v-8.233h-8.139v8.233h8.139zm-1.19-7.043l-.527.252a4.396 4.396 0 00-.615-.821l.515-.287c.262.266.471.551.627.856zm.791 4.88a4.758 4.758 0 01-.398 1.102c-.164.309-.299.5-.404.574-.102.071-.242.106-.422.106-.367 0-.738-.414-1.113-1.243-.403.477-.84.897-1.313 1.26l-.48-.427c.503-.333 1.003-.825 1.5-1.477-.391-1.129-.629-2.385-.715-3.768h-3.903v-.568h3.85c-.02-.375-.023-.795-.012-1.26h.604c-.012.344-.004.764.023 1.26h2.649v.568h-2.625c.097 1.293.277 2.344.539 3.153.437-.696.834-1.508 1.189-2.438l.551.24a15.59 15.59 0 01-1.477 2.883c.133.34.272.617.416.832.145.215.247.323.305.323.188 0 .42-.477.697-1.43l.539.31zm-4.089-.609h-2.608v-2.32h2.608v2.32zm-.604-.603v-1.137h-1.4v1.137h1.4zm1.131 1.535c-1.512.433-2.717.711-3.615.832l-.082-.592c.961-.113 2.175-.381 3.644-.803l.053.563zm17.004.925c-.274 1.047-.516 1.7-.727 1.958a.983.983 0 01-.808.392c-.563 0-1.239-.385-2.028-1.154-.789-.77-1.341-1.932-1.658-3.487h-3.685v3.791c1.472-.324 2.664-.644 3.574-.96v.627c-.844.312-2.246.699-4.207 1.16l-.229-.621c.133-.055.199-.151.199-.288v-9.298h8.45v3.187h-3.733a9.122 9.122 0 00.17 1.787h4.43v.615h-4.301c.188.895.481 1.653.879 2.274.398.617.809 1.062 1.23 1.336.426.269.729.404.909.404.359 0 .67-.701.931-2.103l.604.38zm-1.764-5.337v-1.911h-7.142v1.911h7.142zm-3.58 2.431a15.019 15.019 0 01-.176-1.787h-3.386v1.787h3.562zm15.721-5.004c-.25.274-.553.514-.908.721l-.534-.334c.321-.203.625-.436.914-.697l.528.31zm-5.807.375l-.469.358a5.405 5.405 0 00-.873-.656l.463-.387c.332.191.625.42.879.685zm7.078 2.702h-.586v-1.612h-8.39v1.576h-.586v-2.127h4.476v-1.166h.598v1.166h4.488v2.163zm-1.763.503h-6.047v-1.558h6.047v1.558zm-.586-.527v-.492h-4.864v.492h4.864zm2.589 5.279h-10.124v-.504h4.798v-.65h-4.224v-.492h4.224v-.633h-3.838v-1.945h8.245v1.945h-3.844v.633h4.295v.492h-4.295v.65h4.763v.504zm-1.488-2.771v-.926h-3.275v.926h3.275zm-1.043-.422a7.795 7.795 0 01-1.031.346l-.322-.44c.34-.074.691-.191 1.054-.351l.299.445zm-2.795.422v-.926h-3.24v.926h3.24zm-.949-.516l-.322.44a6.508 6.508 0 00-1.031-.346l.298-.445c.352.078.704.195 1.055.351zm-1.857 3.873c-.528.582-1.039 1.006-1.535 1.272l-.457-.481c.519-.258 1.027-.64 1.523-1.148l.469.357zm8.086 1.055l-.516.34a13.903 13.903 0 00-1.271-1.406l.527-.323c.515.473.935.936 1.26 1.389zm-3.241.088l-.562.176a7.065 7.065 0 00-.563-1.354l.575-.17c.23.465.414.914.55 1.348zm-2.589.035l-.604.07a8.08 8.08 0 00-.357-1.318l.55-.1c.161.36.297.809.411 1.348z" fill="#000"/><path stroke="#2A60A5" stroke-width="3" stroke-linecap="round" stroke-linejoin="round" d="M113.5 270.1h9"/><path d="M48.063 263.338c-.688 1.207-1.536 2.123-2.544 2.748l-.398-.539c.898-.488 1.7-1.328 2.402-2.52l.54.311zm6.72 3.767h-5.83v-3.703h5.83v3.703zm-.633-2.167v-.961h-4.576v.961h4.576zm0 1.582v-1.02h-4.576v1.02h4.576zm-5.976-.622c-.164.411-.469.961-.914 1.653v6.011h-.621v-5.132c-.438.531-.846.966-1.225 1.306l-.375-.515a11.502 11.502 0 002.62-3.575l.515.252zm7.353 4.389h-1.476v2.414c0 .32-.1.551-.299.692-.2.144-.649.216-1.348.216-.226 0-.457-.007-.691-.023l-.217-.621c.242.027.516.041.82.041.543 0 .864-.027.961-.082.102-.055.153-.153.153-.293v-2.344h-5.344v-.574h5.344v-1.166h-5.115v-.586h6.949v.586H54.05v1.166h1.476v.574zm-4.418 2.139l-.55.345c-.243-.531-.666-1.162-1.272-1.892l.528-.328a8.729 8.729 0 011.294 1.875zm16.43-8.414h-3.562v.926h2.76v2.408H57.93v-2.408h2.736v-.926h-3.58v-.598h10.453v.598zm-4.166.926v-.926h-2.098v.926h2.098zm2.766 1.798v-1.201h-2.162v1.201h2.162zm-2.766 0v-1.201h-2.098v1.201h2.098zm-2.707 0v-1.201h-2.127v1.201h2.127zm6.059 2.051h-8.807v-.586h8.807v.586zm.72 1.559h-4.828v3.304h-.61v-3.304h-4.833v-.586h10.271v.586zm.047 2.549l-.469.427c-.816-.617-1.855-1.244-3.117-1.881l.416-.503a20.63 20.63 0 013.17 1.957zm-6.814-1.541c-1.047.828-2.104 1.476-3.17 1.945l-.504-.516c1.012-.383 2.068-.998 3.17-1.845l.504.416zm18.504-6.551h-4.993l.428.275a6.561 6.561 0 01-1.459 1.576 14.6 14.6 0 001.752-.158c.215-.226.438-.494.668-.803l.528.311a11.436 11.436 0 01-2.854 2.678c.672-.032 1.473-.12 2.402-.264a4.422 4.422 0 00-.492-.697l.504-.311a7.74 7.74 0 011.184 1.916l-.516.317-.357-.709a38.145 38.145 0 01-3.663.392l-.128-.551c.628-.375 1.324-.921 2.085-1.64a148.7 148.7 0 01-1.968.129l-.117-.528c.8-.566 1.42-1.211 1.857-1.933h-4.547v-.586h4.547a6.026 6.026 0 00-.55-.985l.65-.216c.254.457.449.857.585 1.201h4.454v.586zm-7.489 1.851l-.457.44a7.933 7.933 0 00-1.57-1.389l.463-.434c.562.379 1.084.84 1.564 1.383zm7.184-.937a9.335 9.335 0 01-1.799 1.453l-.48-.457c.574-.297 1.175-.754 1.804-1.371l.475.375zm-6.885 2.531a17.575 17.575 0 01-2.367 1.547l-.31-.551a13.508 13.508 0 002.39-1.594l.287.598zm7.307 1.02l-.422.48c-.469-.48-1.203-1.019-2.203-1.617l.404-.469c.934.547 1.674 1.082 2.22 1.606zm.217 2.015h-4.87v2.326h-.65v-2.326h-4.922v-.574h4.922v-1.131h.65v1.131h4.87v.574zm1.242-5.08c0-.742.195-1.33.586-1.764.394-.433.924-.65 1.588-.65.64 0 1.138.203 1.494.609.36.403.539.961.539 1.676 0 .711-.2 1.289-.598 1.735-.394.441-.916.662-1.564.662-.625 0-1.123-.207-1.494-.621-.368-.418-.551-.967-.551-1.647zm.814-.058c0 .519.115.925.346 1.218.234.289.55.434.95.434.405 0 .722-.149.948-.445.227-.301.34-.717.34-1.248 0-.524-.113-.93-.34-1.219-.222-.289-.53-.434-.925-.434a1.15 1.15 0 00-.961.463c-.239.309-.358.719-.358 1.231zm7.272-2.221l-5.813 9.146h-.867l5.813-9.146h.867zm-2.69 6.949c0-.738.196-1.328.586-1.769.39-.446.916-.668 1.576-.668.637 0 1.135.205 1.495.615.359.41.539.978.539 1.705 0 .715-.202 1.291-.604 1.728-.398.438-.916.657-1.553.657-.613 0-1.107-.207-1.482-.621-.371-.415-.557-.963-.557-1.647zm.803-.053c0 .508.117.909.352 1.201.238.293.552.44.943.44.406 0 .723-.15.95-.451.226-.305.339-.721.339-1.248 0-.528-.111-.932-.334-1.213-.223-.281-.531-.422-.926-.422-.414 0-.738.152-.972.457-.235.301-.352.713-.352 1.236z" fill="#000"/><rect x="36.5" y="260.5" width="58" height="17" rx="8.5" stroke="#000"/></svg>