<svg width="32" height="32" fill="none" xmlns="http://www.w3.org/2000/svg"><path d="M11.085 9.499h0l-.002.005a.638.638 0 00.065.52.724.724 0 00.423.307l.457.143a7 7 0 00-2.004 1.954h0v.001c-2.103 3.153-1.235 7.447 1.918 9.548 3.152 2.102 7.446 1.234 9.547-1.918 2.102-3.153 1.234-7.447-1.918-9.548-.333-.222-.717-.105-.93.16h0l-.006.01c-.222.332-.105.716.16.929h0l.009.006c2.545 1.711 3.246 5.133 1.536 7.676-1.712 2.545-5.133 3.246-7.676 1.535-2.545-1.711-3.246-5.132-1.536-7.675a6.038 6.038 0 011.519-1.526l-.128.434h0a.638.638 0 00.064.521.724.724 0 00.425.307.638.638 0 00.52-.064.724.724 0 00.308-.425h0l.583-2.064h0l.002-.01c.053-.263-.047-.58-.265-.747a.325.325 0 00-.108-.066l-.026-.01c-.023-.009-.043-.016-.071-.03l-.01-.006-.012-.003-2.063-.583-.041-.012-.04.016a1.76 1.76 0 00-.394.218.854.854 0 00-.306.397z" fill="#fff" stroke="#fff" stroke-width=".25"/></svg>